<?xml version="1.0" encoding="UTF-8"?>
<svg version="1.1" xmlns="http://www.w3.org/2000/svg" width="1280" height="640">
<path d="M0 0 C422.4 0 844.8 0 1280 0 C1280 211.2 1280 422.4 1280 640 C857.6 640 435.2 640 0 640 C0 428.8 0 217.6 0 0 Z " fill="#D56D37" transform="translate(0,0)"/>
<path d="M0 0 C29.66428571 0 29.66428571 0 44 4 C45.08023438 4.28875 46.16046875 4.5775 47.2734375 4.875 C78.15051328 14.14640077 104.63203762 37.3336349 120.39453125 65.0859375 C132.13296865 86.95804327 135 108.03715076 135 133 C90.45 133 45.9 133 0 133 C0 89.11 0 45.22 0 0 Z " fill="#C98075" transform="translate(0,507)"/>
<path d="M0 0 C12.6727872 9.01127256 20.02330872 23.06333054 23.12890625 38.0234375 C25.76743024 56.12493932 21.11951813 72.77308886 10.4609375 87.4765625 C0.29694148 99.31653658 -13.87643924 107.35689004 -29.3671875 109.48046875 C-45.65761467 110.57126574 -60.96727425 107.76412058 -74.0546875 97.33984375 C-85.9837174 86.90194259 -96.17398896 74.21761507 -97.59472656 57.86083984 C-98.48067809 41.49302472 -96.3295241 28.93667822 -88.3671875 14.48046875 C-87.7071875 14.48046875 -87.0471875 14.48046875 -86.3671875 14.48046875 C-86.1815625 13.79984375 -85.9959375 13.11921875 -85.8046875 12.41796875 C-80.50261191 1.58329254 -67.23727366 -5.52185493 -56.3671875 -9.51953125 C-36.4773442 -15.55638465 -17.10364697 -10.97907371 0 0 Z " fill="#ED7D27" transform="translate(1158.3671875,93.51953125)"/>
<path d="M0 0 C37.29 0 74.58 0 113 0 C113 37.29 113 74.58 113 113 C78.59585516 113 53.00469906 104.44496109 28.54296875 80.60546875 C6.83451277 57.6804268 0 31.24695264 0 0 Z " fill="#F49950" transform="translate(1167,0)"/>
<path d="M0 0 C9.53962036 7.53594545 15.33024523 19.09201201 17 31 C18.12225737 46.03088968 14.68904709 57.84346083 5.03515625 69.33984375 C-0.50625615 75.36224674 -6.51544091 78.81174508 -14 82 C-14.74378906 82.37640625 -15.48757812 82.7528125 -16.25390625 83.140625 C-20.38037733 84.43198153 -24.38815973 84.3402889 -28.6875 84.3125 C-29.58581543 84.30686035 -30.48413086 84.3012207 -31.40966797 84.29541016 C-44.37345579 84.05756409 -54.17095495 79.46954279 -64 71 C-73.96496219 59.69505236 -78.01478322 48.03246175 -77.3515625 33.171875 C-76.50108268 21.17957461 -71.01072754 9.98375008 -62.203125 1.78125 C-43.19673565 -13.58561798 -19.90361318 -13.71581367 0 0 Z " fill="#BC5C48" transform="translate(189,447)"/>
<path d="M0 0 C12.6727872 9.01127256 20.02330872 23.06333054 23.12890625 38.0234375 C25.76743024 56.12493932 21.11951813 72.77308886 10.4609375 87.4765625 C0.29694148 99.31653658 -13.87643924 107.35689004 -29.3671875 109.48046875 C-45.65761467 110.57126574 -60.96727425 107.76412058 -74.0546875 97.33984375 C-85.9837174 86.90194259 -96.17398896 74.21761507 -97.59472656 57.86083984 C-98.48067809 41.49302472 -96.3295241 28.93667822 -88.3671875 14.48046875 C-87.7071875 14.48046875 -87.0471875 14.48046875 -86.3671875 14.48046875 C-86.1815625 13.79984375 -85.9959375 13.11921875 -85.8046875 12.41796875 C-80.50261191 1.58329254 -67.23727366 -5.52185493 -56.3671875 -9.51953125 C-36.4773442 -15.55638465 -17.10364697 -10.97907371 0 0 Z M-72.6796875 16.73046875 C-82.03942105 28.05055717 -84.97658939 39.09403948 -84.7421875 53.59765625 C-83.39748553 67.52092457 -76.2559333 77.74151437 -65.90234375 86.62109375 C-54.1742971 95.22286602 -42.45699307 96.62045081 -28.3671875 95.48046875 C-20.29438622 93.91770302 -13.87713522 90.38651631 -7.3671875 85.48046875 C-6.5009375 84.90296875 -5.6346875 84.32546875 -4.7421875 83.73046875 C1.76278721 77.56786113 5.87472761 69.93266439 8.6328125 61.48046875 C8.82746094 60.89394531 9.02210937 60.30742187 9.22265625 59.703125 C11.65722719 46.51006917 9.68986522 33.71354536 2.65625 22.40234375 C-4.52407639 12.03384154 -15.39564216 4.23555795 -27.94140625 1.78125 C-45.37369515 0.25070696 -60.29248462 3.59110175 -72.6796875 16.73046875 Z " fill="#F09651" transform="translate(1158.3671875,93.51953125)"/>
<path d="M0 0 C0.96953613 0.00161133 1.93907227 0.00322266 2.93798828 0.00488281 C10.71586466 0.13730534 17.11653959 1.2833224 24.3125 4.375 C25.38757813 4.79072266 25.38757813 4.79072266 26.484375 5.21484375 C42.23413604 12.05024004 51.90632624 26.14910013 58.3125 41.375 C63.03998465 54.18694538 62.25884611 71.7134872 56.93066406 84.23852539 C49.27508199 100.57756273 36.46546842 112.0414939 19.90234375 118.7578125 C4.66122791 123.762358 -11.13349452 122.48882641 -25.75 116.01953125 C-41.4001548 107.91188161 -53.09419262 95.15861643 -58.5 78.1875 C-59.63248953 73.95065682 -60.41024535 69.75399258 -60.6875 65.375 C-60.75195312 64.58996094 -60.81640625 63.80492187 -60.8828125 62.99609375 C-61.61263653 46.67236286 -55.21201337 31.07048205 -44.4375 19 C-32.54536603 6.31013536 -17.19799674 -0.02976977 0 0 Z M-36.6875 30.375 C-45.5871198 42.45305545 -48.1501506 55.63816471 -46.6875 70.375 C-43.38078489 84.21474297 -34.45898914 94.70984428 -22.6875 102.375 C-11.50841631 108.27247988 3.12434717 109.99470846 15.38671875 106.3515625 C23.38493139 103.16635571 29.40973987 98.58190998 35.3125 92.375 C35.82296875 91.86066406 36.3334375 91.34632813 36.859375 90.81640625 C45.32091089 81.59751067 47.76952042 70.07041197 47.5625 57.97265625 C46.591243 43.99566099 40.7360363 32.69187678 30.3125 23.375 C8.43897527 7.47827695 -18.33320589 10.70968488 -36.6875 30.375 Z " fill="#C87867" transform="translate(158.6875,423.625)"/>
<path d="M0 0 C8.47099556 5.94373722 15.73813639 14.4008207 17.75 24.81640625 C19.09392161 36.55472155 17.28119089 46.44343696 10 56 C9.401875 56.845625 8.80375 57.69125 8.1875 58.5625 C1.76585098 65.71805177 -6.35636939 69.38057713 -15.84375 70.421875 C-27.01896944 70.99596291 -36.13185046 68.4845012 -44.875 61.3125 C-53.9542749 52.54630355 -56.95242141 43.30760148 -57.375 31 C-57.28114643 24.77884928 -56.19296298 20.31063259 -53 15 C-52.360625 13.9275 -51.72125 12.855 -51.0625 11.75 C-38.54848963 -4.93534716 -18.63982643 -10.12416969 0 0 Z " fill="#EA9256" transform="translate(1007,25)"/>
<path d="M0 0 C0.57363281 0.40863281 1.14726562 0.81726563 1.73828125 1.23828125 C2.60453125 1.81578125 3.47078125 2.39328125 4.36328125 2.98828125 C11.92122346 10.14843703 15.70966587 18.75570396 16.140625 29.06811523 C16.34660209 41.41672806 12.49349308 49.8926396 4.21875 58.890625 C-3.7426914 66.50339014 -13.37902019 68.96728706 -24.10717773 68.75732422 C-34.79525181 68.2200898 -42.70857187 63.77838297 -50.26171875 56.23828125 C-56.83279089 48.02098262 -59.6281043 38.31908697 -59.38671875 27.86328125 C-58.10461376 16.607749 -52.58941587 7.14899169 -43.88671875 0.01171875 C-30.28912161 -9.17475313 -13.53122279 -9.19255416 0 0 Z " fill="#CB7459" transform="translate(314.26171875,537.76171875)"/>
<path d="M0 0 C7.59 0 15.18 0 23 0 C23 22.44 23 44.88 23 68 C-14.29 68 -51.58 68 -90 68 C-90 60.41 -90 52.82 -90 45 C-60.3 45 -30.6 45 0 45 C0 30.15 0 15.3 0 0 Z " fill="#FEFCFC" transform="translate(370,309)"/>
<path d="M0 0 C37.29 0 74.58 0 113 0 C113 7.59 113 15.18 113 23 C83.3 23 53.6 23 23 23 C23 37.85 23 52.7 23 68 C15.41 68 7.82 68 0 68 C0 45.56 0 23.12 0 0 Z " fill="#FEFCFC" transform="translate(280,264)"/>
<path d="M0 0 C8.24044103 4.6962833 13.85289464 10.18949909 16.5625 19.4375 C18.41483713 28.86262716 17.72921501 36.53036745 12.4375 44.625 C6.96248273 51.90994033 0.57894267 56.61918406 -8.4375 58.4375 C-16.89718811 59.54989405 -24.47252432 57.51595642 -31.69921875 53.03515625 C-37.92596234 48.18422648 -42.43706034 41.34676359 -43.76708984 33.49072266 C-44.81711403 23.48305506 -43.17903963 15.38744173 -36.828125 7.41796875 C-27.3643157 -2.89237395 -12.78699401 -6.07059311 0 0 Z " fill="#ED7D28" transform="translate(1104.4375,248.5625)"/>
<path d="M0 0 C1.80164108 0.0001133 1.80164108 0.0001133 3.63967896 0.00022888 C5.59283524 0.00797081 5.59283524 0.00797081 7.58544922 0.01586914 C8.92780505 0.01773401 10.27016156 0.01915759 11.61251831 0.02015686 C15.14709347 0.02397661 18.68162759 0.03380227 22.21618652 0.04486084 C25.82234136 0.05508661 29.42850282 0.05965698 33.03466797 0.06469727 C40.11150928 0.07542502 47.18831601 0.09301744 54.26513672 0.11352539 C54.26513672 3.74352539 54.26513672 7.37352539 54.26513672 11.11352539 C52.58444092 11.12810791 50.90374512 11.14269043 49.17211914 11.15771484 C43.61993247 11.20935479 38.06801862 11.27463738 32.51609325 11.3492403 C29.14983195 11.3939738 25.78369248 11.43322278 22.41723633 11.45996094 C18.54721951 11.49341519 14.67785225 11.54572791 10.80810547 11.60180664 C8.99393379 11.61139153 8.99393379 11.61139153 7.14311218 11.62117004 C6.02217667 11.6409642 4.90124115 11.66075836 3.74633789 11.68115234 C2.75816574 11.6922554 1.76999359 11.70335846 0.75187683 11.71479797 C-1.76989805 11.9293355 -1.76989805 11.9293355 -3.59306335 13.44523621 C-5.05683771 15.20884392 -5.05683771 15.20884392 -4.48486328 18.23852539 C-4.02552804 20.9914338 -4.02552804 20.9914338 -2.73486328 22.11352539 C0.27251775 22.22455598 3.26076687 22.27520633 6.26904297 22.28930664 C8.14340293 22.31252305 10.0177519 22.3366411 11.89208984 22.36157227 C14.85220488 22.39656412 17.81192099 22.42595372 20.7722168 22.43945312 C23.62582273 22.45502043 26.47825159 22.49530686 29.33154297 22.53930664 C30.20581436 22.53739822 31.08008575 22.53548981 31.98085022 22.53352356 C38.81072504 22.66808234 44.14693264 24.36216885 49.32373047 28.92993164 C49.77876953 29.50614258 50.23380859 30.08235352 50.70263672 30.67602539 C51.17572266 31.25481445 51.64880859 31.83360352 52.13623047 32.42993164 C54.7502918 36.32841066 54.81499003 40.59340771 54.26513672 45.11352539 C52.60091325 51.12946835 49.20158841 54.57304146 44.03079224 57.87408447 C38.70480205 60.26095085 33.21745883 59.84227808 27.47998047 59.69946289 C26.18314835 59.69097321 24.88631622 59.68248352 23.55018616 59.67373657 C20.1317275 59.65101972 16.71484172 59.59225416 13.29699707 59.5255127 C9.79766102 59.46371292 6.29806636 59.43664206 2.79833984 59.40649414 C-4.04676557 59.34248612 -10.89057658 59.23710851 -17.73486328 59.11352539 C-17.73486328 55.15352539 -17.73486328 51.19352539 -17.73486328 47.11352539 C-16.0186377 47.09370605 -14.30241211 47.07388672 -12.53417969 47.0534668 C-6.8702802 46.98575637 -1.20655236 46.90898597 4.45714378 46.82599831 C7.89179808 46.77600501 11.32642117 46.72967561 14.76123047 46.69165039 C18.7080236 46.64779799 22.65450038 46.58813391 26.60107422 46.52758789 C27.83755707 46.51603668 29.07403992 46.50448547 30.34799194 46.49258423 C31.48902374 46.47271454 32.63005554 46.45284485 33.80566406 46.43237305 C35.31790054 46.41238754 35.31790054 46.41238754 36.86068726 46.39199829 C39.44814996 46.34455307 39.44814996 46.34455307 41.26513672 44.11352539 C41.1009664 40.5475992 41.1009664 40.5475992 40.26513672 37.11352539 C37.99059168 35.97625287 36.74278775 35.98913961 34.21777344 35.98754883 C32.96539383 35.98183868 32.96539383 35.98183868 31.68771362 35.97601318 C30.78256012 35.97498596 29.87740662 35.97395874 28.94482422 35.97290039 C27.02814576 35.95456293 25.11147878 35.93499176 23.19482422 35.91430664 C20.17314434 35.88541213 17.1521978 35.86352735 14.13037109 35.86303711 C11.21369374 35.85968571 8.29870628 35.8250254 5.38232422 35.78540039 C4.4893161 35.79247009 3.59630798 35.79953979 2.67623901 35.80682373 C-3.61035987 35.68596039 -7.87989743 34.17064878 -12.73486328 30.11352539 C-16.9516884 24.94791462 -17.36069631 20.5266205 -17.12158203 13.92211914 C-16.40697086 8.73216525 -13.91569544 6.15378229 -10.10986328 2.80102539 C-6.42831095 0.18518558 -4.49728618 -0.00940855 0 0 Z " fill="#FEFCFC" transform="translate(446.73486328125,291.886474609375)"/>
<path d="M0 0 C3.63 0 7.26 0 11 0 C11 7.59 11 15.18 11 23 C26.84 23 42.68 23 59 23 C59 15.41 59 7.82 59 0 C62.96 0 66.92 0 71 0 C71 19.47 71 38.94 71 59 C67.04 59 63.08 59 59 59 C59 51.08 59 43.16 59 35 C43.16 35 27.32 35 11 35 C11 42.92 11 50.84 11 59 C7.37 59 3.74 59 0 59 C0 39.53 0 20.06 0 0 Z " fill="#FEFEFD" transform="translate(513,292)"/>
<path d="M0 0 C3.96 0 7.92 0 12 0 C12.01981934 1.35270996 12.03963867 2.70541992 12.06005859 4.09912109 C12.13597629 9.10501115 12.22471454 14.11060523 12.31738281 19.11621094 C12.35572991 21.28509693 12.39057255 23.45404777 12.421875 25.62304688 C12.46740138 28.73591332 12.52541573 31.84833106 12.5859375 34.9609375 C12.59748871 35.934935 12.60903992 36.9089325 12.62094116 37.91244507 C12.64081085 38.81322784 12.66068054 39.71401062 12.68115234 40.64208984 C12.69447601 41.43706879 12.70779968 42.23204773 12.7215271 43.05111694 C12.83467008 45.23465372 12.83467008 45.23465372 15 47 C18.06178773 47.20014153 21.03119292 47.27971072 24.09375 47.265625 C24.9962146 47.26753845 25.8986792 47.2694519 26.82849121 47.27142334 C28.73836546 47.27278559 30.64824896 47.26908638 32.55810547 47.26074219 C35.4881665 47.25004321 38.41761438 47.26063611 41.34765625 47.2734375 C43.20052219 47.27211591 45.05338775 47.26955353 46.90625 47.265625 C47.78647827 47.26967346 48.66670654 47.27372192 49.5736084 47.27789307 C54.26966149 47.46959673 54.26966149 47.46959673 58 45 C58.32977606 42.98166057 58.32977606 42.98166057 58.31884766 40.64208984 C58.33871735 39.74130707 58.35858704 38.84052429 58.37905884 37.91244507 C58.39061005 36.93844757 58.40216125 35.96445007 58.4140625 34.9609375 C58.43342865 33.96494537 58.4527948 32.96895325 58.4727478 31.94277954 C58.53264965 28.7536075 58.57897138 25.56439957 58.625 22.375 C58.66317001 20.21612987 58.70222116 18.05727512 58.7421875 15.8984375 C58.83835991 10.59908293 58.92235166 5.29965706 59 0 C62.96 0 66.92 0 71 0 C71.09903545 6.72603073 71.17154874 13.451635 71.21972656 20.17822266 C71.23981517 22.46540726 71.26709128 24.75254068 71.30175781 27.03955078 C71.35039558 30.33118334 71.37299679 33.62213557 71.390625 36.9140625 C71.41127014 37.93303619 71.43191528 38.95200989 71.45318604 40.00186157 C71.45507889 46.01981379 70.99603205 49.41179371 67 54 C62.79686819 57.78281863 59.26883782 60.2268925 53.54199219 60.30639648 C52.66718201 60.32238388 51.79237183 60.33837128 50.89105225 60.35484314 C49.95247375 60.36020584 49.01389526 60.36556854 48.046875 60.37109375 C47.07268616 60.38012222 46.09849731 60.3891507 45.0947876 60.39845276 C43.03376332 60.41295177 40.97269305 60.42184113 38.91162109 60.42553711 C35.77491544 60.43740573 32.64019525 60.48657178 29.50390625 60.53710938 C27.49740539 60.5465774 25.4908925 60.55381062 23.484375 60.55859375 C22.08865265 60.58789223 22.08865265 60.58789223 20.66473389 60.61778259 C13.35464735 60.56771748 8.82950827 58.3975992 3.40423584 53.58421326 C0.46763783 50.27123878 -0.2500884 47.51679542 -0.22705078 43.13964844 C-0.22689972 42.17895447 -0.22674866 41.2182605 -0.22659302 40.22845459 C-0.21627045 39.19915833 -0.20594788 38.16986206 -0.1953125 37.109375 C-0.1924826 36.04962463 -0.18965271 34.98987427 -0.18673706 33.89801025 C-0.17554734 30.51522503 -0.1504447 27.13270513 -0.125 23.75 C-0.11496865 21.45573299 -0.10584307 19.16146183 -0.09765625 16.8671875 C-0.07561192 11.24468953 -0.0410901 5.62238974 0 0 Z " fill="#FDFAF9" transform="translate(596,291)"/>
<path d="M0 0 C23.43 0 46.86 0 71 0 C71 3.96 71 7.92 71 12 C51.53 12 32.06 12 12 12 C12 15.96 12 19.92 12 24 C31.47 24 50.94 24 71 24 C71 27.96 71 31.92 71 36 C47.57 36 24.14 36 0 36 C0 24.12 0 12.24 0 0 Z " fill="#FEFDFC" transform="translate(929,315)"/>
<path d="M0 0 C3.63 0 7.26 0 11 0 C11 15.51 11 31.02 11 47 C30.8 47 50.6 47 71 47 C71 50.96 71 54.92 71 59 C47.57 59 24.14 59 0 59 C0 39.53 0 20.06 0 0 Z " fill="#FFFFFF" transform="translate(846,292)"/>
<path d="M0 0 C8.24044103 4.6962833 13.85289464 10.18949909 16.5625 19.4375 C18.41483713 28.86262716 17.72921501 36.53036745 12.4375 44.625 C6.96248273 51.90994033 0.57894267 56.61918406 -8.4375 58.4375 C-16.89718811 59.54989405 -24.47252432 57.51595642 -31.69921875 53.03515625 C-37.92596234 48.18422648 -42.43706034 41.34676359 -43.76708984 33.49072266 C-44.81711403 23.48305506 -43.17903963 15.38744173 -36.828125 7.41796875 C-27.3643157 -2.89237395 -12.78699401 -6.07059311 0 0 Z M-33.18359375 14.5546875 C-36.746328 19.9043383 -38.67075094 26.00110462 -37.4375 32.4375 C-34.44958803 40.98956804 -29.8491037 46.03117071 -22 50.3125 C-14.69131301 52.62050642 -8.27454045 51.7084582 -1.4375 48.4375 C3.40966612 45.28875036 7.93248119 41.11380079 9.5625 35.4375 C10.46103675 27.84232147 10.9697329 20.3866357 6.12109375 14.08203125 C1.19995802 8.8895547 -3.1329147 4.96110513 -10.48828125 4.06640625 C-20.85058048 3.85543728 -26.73280143 6.43407156 -33.18359375 14.5546875 Z " fill="#F0954F" transform="translate(1104.4375,248.5625)"/>
<path d="M0 0 C23.76 0 47.52 0 72 0 C72 3.96 72 7.92 72 12 C52.2 12 32.4 12 12 12 C12 19.92 12 27.84 12 36 C8.04 36 4.08 36 0 36 C0 24.12 0 12.24 0 0 Z " fill="#FEFAF8" transform="translate(762,315)"/>
<path d="M0 0 C23.76 0 47.52 0 72 0 C72 3.96 72 7.92 72 12 C52.2 12 32.4 12 12 12 C12 19.92 12 27.84 12 36 C8.04 36 4.08 36 0 36 C0 24.12 0 12.24 0 0 Z " fill="#FEFBFA" transform="translate(679,315)"/>
<path d="M0 0 C23.43 0 46.86 0 71 0 C71 3.96 71 7.92 71 12 C47.57 12 24.14 12 0 12 C0 8.04 0 4.08 0 0 Z " fill="#FDF9F6" transform="translate(929,291)"/>
<path d="M0 0 C23.43 0 46.86 0 71 0 C71 3.63 71 7.26 71 11 C47.57 11 24.14 11 0 11 C0 7.37 0 3.74 0 0 Z " fill="#FEFEFE" transform="translate(763,292)"/>
<path d="M0 0 C23.43 0 46.86 0 71 0 C71 3.63 71 7.26 71 11 C47.57 11 24.14 11 0 11 C0 7.37 0 3.74 0 0 Z " fill="#FEFEFE" transform="translate(679,292)"/>
<path d="M0 0 C7.59 0 15.18 0 23 0 C23 7.59 23 15.18 23 23 C15.41 23 7.82 23 0 23 C0 15.41 0 7.82 0 0 Z " fill="#FDF9F8" transform="translate(325,310)"/>
</svg>
