<svg width="1776" height="330" viewBox="0 0 1776 330" fill="none" xmlns="http://www.w3.org/2000/svg"><path d="m1103.61 215.064.21.606.08.179.26.647.26.587.09.193.26.512.13.247.2.335.31.506.19.271.36.487.17.203m-2.52-103.97.21-.606.08-.18.26-.646.26-.587.09-.193.26-.513.13-.247.2-.333.31-.508.19-.27.36-.488.17-.203" stroke="#fff" stroke-width=".5" stroke-linecap="round" stroke-linejoin="round"/><path d="M876.987 179.922c7.993-1.788 15.518-5.196 22.1-10.008.716-.499 1.301-1.164 1.705-1.938.404-.775.615-1.636.615-2.511 0-.874-.211-1.736-.615-2.51-.404-.775-.989-1.44-1.705-1.938m3.919 7.741v-6.586m0 6.594v-6.585m6.172 4.931v-3.293m-40.776 4.785 1.029-.381-1.029.905v-.049l1.025-.878m.432.569 1.028-.383-1.028.912v-.049l1.025-.885m.432.572 1.028-.384-1.028.917v-.049l1.025-.89m-3.939-6.203 1.029.381-1.029-.907v.049l1.025.878m.432-.568 1.028.382-1.028-.912v.049l1.025.885m28.225-1.585-5.096-3.334m5.11 3.334 1.052.988m-1.052 7.984 1.052-.989m-27.834-6.564-1.025-.89v-.049l1.028.917-1.028-.384" stroke="#fff" stroke-width=".1" stroke-linecap="round" stroke-linejoin="round"/><path d="M860.613 173.875h-.001m15.918 5.257h-.02m.02 0 .411-.183m-.411.183.002-.002v.005l-.037.068m.015-.071.411-.188m-.411.188v-.301m1.932.34-.25.252m-.305.159-.203.09.041-.017m-.362.14-.376.127m0 0-.103.025m.103-.025v.044m0 0 1.464-.775-.115-.083-25.088-6.825m23.739 7.683 5.897-1.634m-4.591.764-.226.102-.244-.009-25.017-6.815m23.726-20.575.409.182m-.409-.182h-.022m.022 0-.037-.071m.015.071.411.188m-.411-.188v.301m.477-1.134 1.464.773-25.203 6.909m23.739-7.682v.042m0-.042 4.322 1.132 2.306.751m-6.628-1.841 1.455.752m-1.455-.752.129.043m-.129-.043-.286-.054m1.594.884-.227-.105-.245.008-25.017 6.816m25.205-7.149-.139-.068M857.7 169.787c.825 0 1.631-.258 2.314-.742.684-.484 1.213-1.171 1.52-1.972.251-.656.344-1.366.272-2.069-.072-.703-.307-1.376-.686-1.961-.378-.585-.888-1.064-1.484-1.395-.597-.332-1.261-.504-1.936-.504m2.912-4.086.001-.002m-2.968.99-1.028-.115 1.028.438 9.3 4.125 1.029.377-1.029-.9m-9.3-3.925v.044m0-.044 9.3 3.925m-8.007-4.206-1.029-.119 1.029.444 9.464 4.238m-9.464-4.563v.042m0-.042 9.464 4.037m-8.173-4.32-1.029-.122 1.029.451 9.63 4.35m-9.63-4.679v.043m0-.043 9.63 4.149m-8.42-4.457-1.029-.122 1.029.454 9.876 4.487m-9.876-4.819v.044m0-.044 9.876 4.286m-13.67-3.37-1.018-.134m1.018.134 5.019 1.758m-3.726-2.041-1.018-.137m1.018.137 5.11 1.814m-2.609 14.135 9.876-4.286m-9.876 4.286-1.029.122 1.029-.453 9.876-4.488m-9.876 4.819v-.044m-1.21-16.187-1.018-.141m1.018.141 5.203 1.871m-3.993-2.178-1.019-.142m1.019.142 5.379 1.951m-7.88 13.997 9.464-4.037m-9.464 4.037-1.029.118 1.029-.443 9.464-4.237m-9.464 4.562v-.042m-1.293-.239 9.3-3.926m-9.3 3.926-1.028.115 1.028-.437 9.3-4.126 1.029-.378-1.029.9m-9.3 3.926v-.044m9.3-3.882v-.049m-6.716 4.538 9.63-4.149m-9.63 4.149-1.029.122 1.029-.45 9.63-4.35m-9.63 4.678v-.042m6.716-4.496 1.025-.873m-1.025.873-4.245 2.158m-6.073 1.907 1.018-.134m0 0 5.019-1.758m-4.746 2.178 1.02-.137m0 0 5.108-1.814m.039-.017 4.317-2.213m-9.191 4.467 1.018-.141m0 0 5.203-1.87m.037-.017 4.39-2.269m-9.439 4.604 1.019-.142m0 0 5.379-1.951m.036-.015 4.461-2.325m-4.37-7.45v.049m1.025.873-1.025-.873m0 0-4.245-2.157m15.741 19.325-.004.01m-.056.085-.013.013m-.107.083-.047.03m-.105.063-.061.032m-.032.017-.032.015m-.565.237-.099.036m-.094.034-.104.035m1.161-.514.065-.049m.077-.09.011-.022m-2.852.481.011-.041m.018-.037.022-.036m.026-.034.233-.237m.064-.054.132-.101m.137-.095.239-.139m.252 1.065-.166.011m-.166.002-.33-.035m-.082-.016-.082-.02m-.079-.024-.117-.047m-.035-.022-.061-.059m18.407-6.477 5.102-3.337m-20.67-18.215.003.012m-2.533-.103-.287-.305m-.021-.037-.013-.039m.005-.083.022-.035m.03-.029.036-.022m.037-.021.078-.032m.079-.023.246-.051m.081-.012.332-.013m-.148 1.035-.142-.085m-.138-.094-.132-.102m.492-.04v.455m0 27.164v-.455m-9.739-11.076 32.395 2.208m0-8.973-32.395 2.206m1.675-1.335-4.317-2.213m5.774 2.042-4.39-2.269m5.846 2.098-4.461-2.325m-.268 3.938-13.717-4.552-.963.655v12.481l.963.654 13.719-4.551 1.892-2.344-1.894-2.343Z" stroke="#fff" stroke-width=".1" stroke-linecap="round" stroke-linejoin="round"/><path d="M857.7 161.144c-1.095 0-2.145.455-2.92 1.266-.774.81-1.209 1.909-1.209 3.055 0 1.147.435 2.246 1.209 3.056.775.811 1.825 1.266 2.92 1.266m41.387-8.77c-6.582-4.812-14.107-8.22-22.1-10.008m14.176 23.79 2.868-1.574 1.777-1.064 3.279-2.247-32.291-2.203M899.087 161.017l-7.511.513-4.438.303-4.361.297-1.482.1-5.485.376-3.219.218m1.249-.034h14.553l.955.205.808.579.542.868.189 1.023-.189 1.024-.542.868-.808.58-.955.203H873.84l-1.167-.17m1.167-5.18 1.113.163.281.042.917.45.264.129.603.661.188.207.208.771.069.252-.21.775-.067.249-.608.667-.183.201-.93.457-.251.123-1.133.165m-.261-5.312-.247.037-1.146.168-.182.088-.999.491-.106.116-.684.752-.034.125-.243.898.034.122.243.902.098.108.692.76m1.181.58-1.016-.499m19.226-5.47h15.628l1.249.266 1.057.758.707 1.135.249 1.338-.249 1.339-.707 1.135-1.057.758-1.249.266h-15.628m0-6.995-1.247.266-1.443.556m2.69-.822 1.249.266 1.057.758.708 1.135.249 1.338-.249 1.339-.708 1.135-1.057.758-1.249.266m0 0-1.247-.266-1.443-.557m-3.481.618v-6.585m0 6.594v-6.586" stroke="#fff" stroke-width=".3" stroke-linecap="round" stroke-linejoin="round"/><path clip-rule="evenodd" d="M1106.12 214.394v5.443l-.44.056-3.8.418-3.82.359-3.87.303-3.91.247-3.95.193-4 .138-1.38.036-4.34.085-4.26.035-4.17-.012-4.11-.062-4.05-.117-4-.173-3.97-.23-3.95-.287-3.93-.352-3.93-.415-3.93-.482-3.95-.55-3.98-.621-2.66-.452-3.39-.616-3.28-.644-3.2-.677-3.11-.716-3.04-.755-2.97-.798-2.93-.848-2.88-.9-2.844-.956-2.822-1.015-2.807-1.082-2.804-1.148-2.807-1.22-2.441-1.117-2.314-1.105-2.204-1.095-2.103-1.093-2.009-1.096-1.917-1.105-1.836-1.122-1.76-1.142-1.687-1.169-1.62-1.203-1.566-1.244-1.511-1.288-1.463-1.338-1.425-1.396-1.389-1.459-1.362-1.528-.381-.443-1.02-1.254-.946-1.253-.873-1.261-.804-1.274-.738-1.289-.676-1.314-.618-1.341-.562-1.374-.509-1.413-.046-.135-.408-1.31-.35-1.322-.287-1.331-.229-1.344-.164-1.355-.1-1.367-.032-1.234.032-1.233.1-1.367.164-1.354.229-1.345.287-1.332.35-1.321.408-1.31.046-.135.509-1.413.562-1.374.618-1.342.676-1.313.738-1.289.804-1.274.873-1.261.946-1.254 1.02-1.252.381-.445 1.362-1.528 1.389-1.458 1.425-1.396 1.463-1.339 1.511-1.287 1.566-1.244 1.62-1.203 1.687-1.169 1.76-1.142 1.836-1.122 1.917-1.105 2.009-1.096 2.103-1.094 2.204-1.094 2.314-1.105 2.441-1.117 2.807-1.22 2.804-1.149 2.807-1.079 2.822-1.017 2.844-.956 2.88-.9 2.93-.848 2.97-.799 3.04-.754 3.11-.714 3.2-.679 3.28-.645 3.39-.616 2.66-.451 3.98-.621 3.95-.55 3.93-.481 3.93-.416 3.93-.35 3.95-.29 3.97-.23 4-.172 4.05-.115 4.11-.065 4.17-.011 4.26.035 4.34.085 1.38.033 4 .141 3.95.193 3.91.247 3.87.304 3.82.359 3.8.416.44.056v5.444l.35.033 3.63.408 3.59.462 3.57.521 3.57.581 3.56.646 3.59.712 3.62.784 3.66.856 2.97.741 2.88.772 2.83.81 2.81.858 2.79.914 2.81.976 2.43.898 2.4.948 2.37.998 2.36 1.049 2.32 1.105 2.33 1.159 2.32 1.217 1.77.98 1.7 1 1.64 1.022 1.58 1.05 1.52 1.087 1.47 1.123 1.44 1.169 1.4 1.217 1.35 1.272 1.34 1.332.99 1.054.93 1.071.87 1.088.82 1.107.76 1.122.7 1.138.65 1.158.58 1.172.53 1.19.47 1.208.4 1.223.35 1.242.29 1.257.23 1.274.18 1.292.11 1.307.05 1.325-.05 1.325-.11 1.308-.18 1.291-.23 1.274-.29 1.259-.35 1.24-.4 1.224-.47 1.208-.53 1.189-.58 1.175-.65 1.155-.7 1.139-.76 1.124-.82 1.105-.87 1.087-.93 1.072-.99 1.054-1.34 1.331-1.35 1.273-1.4 1.216-1.44 1.17-1.47 1.123-1.52 1.086-1.58 1.051-1.64 1.022-1.7 1-1.77.98-2.32 1.216-2.33 1.159-2.32 1.105-2.36 1.049-2.37.999-2.4.947-2.43.899-2.81.978-2.79.912-2.81.858-2.83.81-2.88.772-2.97.741-3.66.856-3.62.783-3.59.713-3.56.646-3.57.582-3.57.52-3.59.463-3.63.408-.35.032Z" stroke="#fff" stroke-width=".5" stroke-linecap="round" stroke-linejoin="round"/><path clip-rule="evenodd" d="m1125.88 195.67.01.108.01.107.02.105.04.103.04.1.05.095.05.091.07.085.07.079.09.073.08.066.09.057.1.051.1.041.1.032.1.024.11.013.11.005h8.56l.1-.005.11-.013.11-.024.1-.032.09-.041.1-.051.09-.057.09-.066.08-.073.07-.079.07-.085.06-.091.05-.095.04-.1.03-.103.02-.105.01-.107.01-.108v-8.667l-.01-.106-.01-.107-.02-.105-.03-.103-.04-.1-.05-.095-.06-.091-.07-.086-.07-.078-.08-.073-.09-.066-.09-.057-.1-.051-.09-.041-.1-.032-.11-.023-.11-.014-.1-.005h-8.56l-.11.005-.11.014-.1.023-.1.032-.1.041-.1.051-.09.057-.08.066-.09.073-.07.078-.07.086-.05.091-.05.095-.04.1-.04.103-.02.105-.01.107-.01.106v8.667Zm-141.054 26.367v-12.221l1.206.742.522.31 2.076 1.186.029.015v10.33l-3.833-.362Z" stroke="#fff" stroke-width=".5" stroke-linecap="round" stroke-linejoin="round"/><path d="M980.863 221.685v-14.362m0 14.362 3.963.352m-3.963-.352v1.401l-4.274-.162v-18.448l.977.681 1.451.975 1.464.953.382.238m0 0 1.513.988 1.892 1.175.558.33m-8.238 13.108-4.332-.164m0 0v-21.335m0 21.335-5.008-.19v-25.052m5.008 3.907.758.572 1.491 1.067 1.507 1.032.576.38m-4.332-3.051-.89-.631-1.523-1.146-1.496-1.193-1.099-.937m9.34-71.063-.576.379-1.507 1.033-1.491 1.067-.758.572m0 0v-19.584l4.332-.321m-4.332 19.905-.89.631-1.523 1.146-1.496 1.193-1.099.937v-23.157l5.006-.332m-5.006 87.594-.532-.428-1.499-1.291-1.46-1.349-1.415-1.408-.215-.23m5.121-59.397-.532.426-1.499 1.291-1.46 1.35-1.415 1.407-.215.23m0 0v-27.56m0 27.56-1.302 1.323-1.383 1.509-1.332 1.564-1.277 1.607-.179.24m5.473-33.803 5.121-.3m-5.121.3-5.473.287m5.473 81.966v27.56l5.121.301m-5.121-27.861-1.302-1.323-1.383-1.509-1.332-1.564-1.277-1.607-.179-.24v33.516l5.473.286m-5.473-76.009v-33.516m0 33.516-.809 1.048-.921 1.286-.849 1.291-.78 1.303-.714 1.321-.653 1.342-.594 1.372-.542 1.406-.208.616v-44.215l6.07-.286m0 75.721-.809-1.044-.921-1.288-.849-1.291-.78-1.303-.714-1.321-.653-1.342-.594-1.372-.542-1.406-.208-.616v44.215l6.07.284m-20.329-.907V111.755l14.259-.626m26.005 15.326v-16.857l2.9-.237v15.132l-.472.306-1.451.976-.977.68Z" stroke="#fff" stroke-width=".5" stroke-linecap="round" stroke-linejoin="round"/><path d="M950.584 155.347v.005l-.252.717-.025.078-.405 1.329-.345 1.34-.286 1.352-.221 1.362-.161 1.372-.097 1.384-.028 1.179.028 1.18.097 1.384.161 1.374.221 1.36.286 1.352.345 1.34.405 1.328.025.078.252.718v.005m0 44.218-14.259-.626m.002.003-11.441-.477-3.725-.159V112.388m0 0 3.725-.159 11.441-.476m-15.166.635-30.641 1.287v103.58l30.641 1.29m-30.641-1.286-23.736-.983m0 0V114.655m0 101.621v.013l-2.477-.062V114.704l2.477-.063v.014m0 0 23.736-.983" stroke="#fff" stroke-width=".5" stroke-linecap="round" stroke-linejoin="round"/><path d="m864.307 216.23-2.878-.04V114.741l2.878-.04m-2.882 101.487-7.148-.085V114.828l7.148-.085" stroke="#fff" stroke-width=".5" stroke-linecap="round" stroke-linejoin="round"/><path d="m849.351 216.088 4.939.022V114.821l-4.939.022m0 101.245V114.843m0 101.245-.821.003-3.913.026V114.814m4.734.029-.821-.004-3.913-.025m0 0-4.713-.069v101.441l4.713-.071m-4.714.069-4.252.098m0 0V114.648m0 101.634-4.046.127m4.046-101.761 4.252.098m-4.252-.098-4.046-.127m0 101.888V114.521m0 101.888-3.841.158V114.364l3.841.157M1106.12 111.102l-1.2-.141-1.61-.179-1.62-.169-1.63-.158-1.64-.149-1.64-.138-1.66-.131-1.68-.118-1.7-.108-1.72-.102-1.74-.09-1.78-.081-1.81-.071-1.85-.061-1.89-.05-1.68-.038-2.29-.04-2.23-.027-2.21-.014h-2.18l-2.09.012-2.02.024-1.95.035-1.9.046-1.84.056-1.81.067-1.76.076-1.72.088-1.7.095-1.68.105-1.65.115-1.64.124-1.62.135-1.61.144-1.61.154-1.6.164-1.6.176-1.61.186-1.61.2-1.62.211-1.63.22-1.63.237-1.66.249-1.66.264-1.69.277-1.71.295-.62.11-1.78.321-1.73.327-1.69.33-1.65.336-1.61.342-1.58.349-1.56.358-1.53.366-1.52.377-1.51.389-1.49.401-1.49.417-1.48.429-1.48.445-1.48.464-1.48.482-1.489.505-1.498.524-1.511.55-1.528.575-1.534.599-1.555.628-1.581.662-1.611.695-1.644.734-1.682.775-1.295.615-1.786.866-1.674.839-1.575.819-1.496.806-1.413.79-1.355.788-1.303.792-1.257.795-1.22.807-1.186.823-1.158.841-1.131.863-1.112.891-1.098.924-1.085.963-1.079 1.007-1.073 1.056-1.076 1.115-1.082 1.181-1.079 1.24-.073.088-.893 1.095-.833 1.094-.776 1.1-.728 1.114-.682 1.133-.636 1.161-.597 1.198-.559 1.245-.521 1.303-.489 1.372-.381 1.214-.353 1.323-.293 1.331-.232 1.337-.167 1.344-.105 1.352-.039 1.358.034 1.254.1 1.352.162 1.344.225 1.336.289 1.332.349 1.323.411 1.318.019.058.495 1.386.53 1.313.567 1.253.606 1.205.643 1.164.688 1.136.731 1.111.782 1.097.834 1.091.892 1.09.727.842 1.1 1.224 1.093 1.15 1.092 1.088 1.091 1.034 1.098.985 1.107.944 1.12.909 1.137.876 1.159.851 1.186.831 1.217.812 1.252.801 1.293.791 1.343.787 1.398.789 1.453.788 1.525.799 1.609.814 1.707.837 1.826.868.164.076 1.722.792 1.684.748 1.65.709 1.617.672 1.593.639 1.568.606 1.538.576 1.523.548 1.511.524 1.503.501 1.5.481 1.49.463 1.49.444 1.49.428 1.5.414 1.51.4 1.52.387 1.53.376 1.55.363 1.57.358 1.6.346 1.63.34 1.65.332 1.69.327 1.73.323 1.79.318 1.1.191 1.73.289 1.7.273 1.69.259 1.67.243 1.66.229 1.64.218 1.63.203 1.63.191 1.62.181 1.62.168 1.62.159 1.63.147 1.64.137 1.65.127 1.65.117 1.68.107 1.69.098 1.72.088 1.76.077 1.78.068 1.83.059 1.88.048 1.92.037 2 .025 2.05.016 2.14.001 2.17-.012 2.19-.023 2.24-.036 2.28-.049 1.56-.04 1.86-.06 1.82-.069 1.78-.08 1.76-.089 1.73-.098 1.69-.107 1.68-.118 1.66-.127 1.64-.136 1.62-.145 1.61-.156 1.61-.164 1.59-.176 1.56-.181m-17.93-48.766h-74.08v-55.73m67.9 87.992h-67.9v12.272m74.08-105.976V221.31m-6.18-50.247v50.478m-104.932-92.367v7.362m0 57.858v7.362m18.518-80.954v6.68m0 75.966v6.68m37.034-98.238v4.894m0 97.363v4.893m18.52-109.145v7.259m0 96.623v7.258m18.52-111.789v8.072m0 96.294v8.073m55.55-24.122h12.35v-12.451h-12.35v12.451Z" stroke="#fff" stroke-width=".5" stroke-linecap="round" stroke-linejoin="round"/><path clip-rule="evenodd" d="m1025.72 108.682.02-7.641.82-.041v7.44l-.84.242Z" stroke="#fff" stroke-width=".5" stroke-linecap="round" stroke-linejoin="round"/><path d="m1025.72 108.682-.31.086-.73.219.03-7.894 1.03-.05" stroke="#fff" stroke-width=".5" stroke-linecap="round" stroke-linejoin="round"/><path d="m1024.68 108.987-1.06.304.02-8.147 1.07-.051" stroke="#fff" stroke-width=".5" stroke-linecap="round" stroke-linejoin="round"/><path d="m1023.62 109.293-1.09.304.03-8.399 1.09-.054" stroke="#fff" stroke-width=".5" stroke-linecap="round" stroke-linejoin="round"/><path d="m1022.53 109.598-.47.125-.65.186.03-8.655 1.12-.056" stroke="#fff" stroke-width=".5" stroke-linecap="round" stroke-linejoin="round"/><path d="m1021.41 109.911-1.12.314.03-8.917 1.13-.054" stroke="#fff" stroke-width=".5" stroke-linecap="round" stroke-linejoin="round"/><path d="m1020.29 110.225-1.17.318.04-9.176 1.16-.057" stroke="#fff" stroke-width=".5" stroke-linecap="round" stroke-linejoin="round"/><path d="m1019.13 110.545-.37.095-.85.242.03-9.455 1.22-.06" stroke="#fff" stroke-width=".5" stroke-linecap="round" stroke-linejoin="round"/><path d="m1017.91 110.882-1.27.35.03-9.743 1.28-.062" stroke="#fff" stroke-width=".5" stroke-linecap="round" stroke-linejoin="round"/><path d="m1016.64 111.232-1.03.277-.3.085.03-10.039 1.34-.066" stroke="#fff" stroke-width=".5" stroke-linecap="round" stroke-linejoin="round"/><path d="m1015.31 111.596-1.41.389.04-10.36 1.41-.07" stroke="#fff" stroke-width=".5" stroke-linecap="round" stroke-linejoin="round"/><path d="m1013.9 111.985-1.37.372-.11.034.04-10.694 1.48-.072M1012.42 112.391l-1.58.443m0 0 .04-11.059m-.04 11.059-.7.193-.35.098-.63.187.05-11.454 1.67-.083m0 0 1.58-.078" stroke="#fff" stroke-width=".5" stroke-linecap="round" stroke-linejoin="round"/><path d="m1009.16 113.313-1.79.516.04-11.881 1.8-.09M1007.37 113.828l-.28.076-1.65.501.04-12.362 1.93-.095M1005.44 114.405l-1.2.355-.88.277.05-12.893 2.07-.102" stroke="#fff" stroke-width=".5" stroke-linecap="round" stroke-linejoin="round"/><path d="m1003.36 115.034-.44.134-1.8.582.05-13.494 2.24-.11" stroke="#fff" stroke-width=".5" stroke-linecap="round" stroke-linejoin="round"/><path d="m1001.12 115.75-.94.299-1.41.484.048-14.162 2.352-.115" stroke="#fff" stroke-width=".5" stroke-linecap="round" stroke-linejoin="round"/><path d="m998.772 116.533-1.342.454-1.044.377.049-14.873 2.383-.118" stroke="#fff" stroke-width=".5" stroke-linecap="round" stroke-linejoin="round"/><path d="m996.388 117.366-1.707.609-.759.291.05-15.655 2.463-.122" stroke="#fff" stroke-width=".5" stroke-linecap="round" stroke-linejoin="round"/><path d="m993.922 118.266-1.988.751-.615.249.05-16.526 2.603-.129" stroke="#fff" stroke-width=".5" stroke-linecap="round" stroke-linejoin="round"/><path d="m991.319 119.268-.814.314-2.002.828.052-17.53 2.814-.14" stroke="#fff" stroke-width=".5" stroke-linecap="round" stroke-linejoin="round"/><path d="m988.503 120.411-.973.4-2.145.937.054-18.714 3.116-.154" stroke="#fff" stroke-width=".5" stroke-linecap="round" stroke-linejoin="round"/><path d="m985.385 121.75-.806.35-2.854 1.317-.039.018.056-20.22 3.697-.183" stroke="#fff" stroke-width=".5" stroke-linecap="round" stroke-linejoin="round"/><path d="m981.686 123.435-.054.025-.97.462-1.856.902-.814.408.056-21.834 3.694-.183M977.992 125.232l-.914.455v-13.748l-2.8.125m0 0 .02-8.48m-.02 8.48-3.871.17.02-8.459 3.871-.191m0 0 3.75-.186" stroke="#fff" stroke-width=".5" stroke-linecap="round" stroke-linejoin="round"/><path d="m970.407 112.234-4.202.183.019-8.434 4.203-.208" stroke="#fff" stroke-width=".5" stroke-linecap="round" stroke-linejoin="round"/><path d="m966.205 112.417-4.157.176.017-8.405 4.159-.205M962.048 112.592l-4.127.173m0 0 .015-8.372m-.015 8.372-4.108.169m4.123-8.541 4.129-.203m-4.129.203-4.11.203m-.013 8.338.013-8.338m-.013 8.338-4.102.164.012-8.299 4.103-.203M949.711 113.098l-4.11.163.012-8.259 4.11-.203" stroke="#fff" stroke-width=".5" stroke-linecap="round" stroke-linejoin="round"/><path d="m945.601 113.261-3.81.147.01-8.218 3.812-.188M941.791 113.401l-3.792.144.008-8.167m0 0 3.794-.186m-3.794.186-3.819.189-.006 8.115 3.817-.142" stroke="#fff" stroke-width=".5" stroke-linecap="round" stroke-linejoin="round"/><path d="m934.182 113.684-3.892.142.007-8.068 3.891-.191M930.29 113.826l-4.014.145m0 0 .004-8.013m-.004 8.013-5.186.185.002-7.943 5.188-.255m0 0 4.017-.2" stroke="#fff" stroke-width=".5" stroke-linecap="round" stroke-linejoin="round"/><path d="m921.09 114.156-5.172.176v-7.863m0 0 5.174-.254m-5.174.254-5.175.256.002 7.778 5.173-.173" stroke="#fff" stroke-width=".5" stroke-linecap="round" stroke-linejoin="round"/><path d="m910.745 114.503-5.184.169-.002-7.69 5.184-.258M905.561 114.672l-5.207.168m0 0-.003-7.601m.003 7.601-5.243.165m5.24-7.766 5.208-.257m-5.208.257-5.247.259m.007 7.507-.007-7.507m.007 7.507-.461.017-4.837.142-.007-7.404 5.298-.262" stroke="#fff" stroke-width=".5" stroke-linecap="round" stroke-linejoin="round"/><path d="m889.813 115.163-5.362.154-.009-7.293 5.364-.264" stroke="#fff" stroke-width=".5" stroke-linecap="round" stroke-linejoin="round"/><path d="m884.453 115.317-5.447.152-.01-7.174 5.446-.271M879.006 115.471l-5.543.152-.014-7.056 5.547-.272" stroke="#fff" stroke-width=".5" stroke-linecap="round" stroke-linejoin="round"/><path d="m873.463 115.625-5.66.152-.014-6.929 5.662-.279M867.803 115.779l-5.794.143-.015-6.788 5.795-.286" stroke="#fff" stroke-width=".5" stroke-linecap="round" stroke-linejoin="round"/><path d="m862.011 115.921-4.806.118-.016-6.667 4.805-.237" stroke="#fff" stroke-width=".5" stroke-linecap="round" stroke-linejoin="round"/><path d="m857.205 116.037-4.72.114-.019-6.545 4.722-.234" stroke="#fff" stroke-width=".5" stroke-linecap="round" stroke-linejoin="round"/><path d="m852.485 116.151-4.67.11-.019-6.425 4.67-.23M847.815 116.259l-4.65.107m0 0-.02-6.3m.02 6.3-.563.013-4.099.085-.022-6.168 4.664-.23m0 0 4.651-.23M838.503 116.464l-1.577.034-2.558.05-.022-6.047 4.135-.203M834.368 116.55h-.066l-3.877.074m0 0-.023-5.928m.023 5.928-1.796.034-2.016.038-.022-5.811 3.811-.189m0 0 3.944-.195" stroke="#fff" stroke-width=".5" stroke-linecap="round" stroke-linejoin="round"/><path d="m826.613 116.694-.758.015-2.974.051-.024-5.691 3.734-.186m199.129 111.365.84.244v7.438l-.82-.04-.02-7.642ZM1025.74 229.89l-1.03-.051-.03-7.893.73.216.31.087" stroke="#fff" stroke-width=".5" stroke-linecap="round" stroke-linejoin="round"/><path d="m1024.71 229.839-1.07-.052-.02-8.149 1.06.306" stroke="#fff" stroke-width=".5" stroke-linecap="round" stroke-linejoin="round"/><path d="m1023.65 229.787-1.09-.055-.03-8.399 1.09.305" stroke="#fff" stroke-width=".5" stroke-linecap="round" stroke-linejoin="round"/><path d="m1022.56 229.733-1.12-.056-.03-8.657.65.188.47.125" stroke="#fff" stroke-width=".5" stroke-linecap="round" stroke-linejoin="round"/><path d="m1021.45 229.677-1.13-.054-.03-8.918 1.12.315" stroke="#fff" stroke-width=".5" stroke-linecap="round" stroke-linejoin="round"/><path d="m1020.32 229.622-1.16-.059-.04-9.176 1.17.318" stroke="#fff" stroke-width=".5" stroke-linecap="round" stroke-linejoin="round"/><path d="m1019.16 229.565-1.22-.061-.03-9.455.85.242.37.097" stroke="#fff" stroke-width=".5" stroke-linecap="round" stroke-linejoin="round"/><path d="m1017.95 229.504-1.28-.062-.03-9.743 1.27.35" stroke="#fff" stroke-width=".5" stroke-linecap="round" stroke-linejoin="round"/><path d="m1016.68 229.442-1.34-.066-.03-10.041.3.086 1.03.278" stroke="#fff" stroke-width=".5" stroke-linecap="round" stroke-linejoin="round"/><path d="m1015.35 229.375-1.41-.069-.04-10.362 1.41.393" stroke="#fff" stroke-width=".5" stroke-linecap="round" stroke-linejoin="round"/><path d="m1013.94 229.306-1.48-.073-.04-10.693.11.033 1.37.371" stroke="#fff" stroke-width=".5" stroke-linecap="round" stroke-linejoin="round"/><path d="m1012.46 229.233-1.58-.078-.04-11.059 1.58.444" stroke="#fff" stroke-width=".5" stroke-linecap="round" stroke-linejoin="round"/><path d="m1010.88 229.155-1.67-.082-.05-11.454.63.186.35.098.7.193" stroke="#fff" stroke-width=".5" stroke-linecap="round" stroke-linejoin="round"/><path d="m1009.21 229.073-1.8-.09-.04-11.882 1.79.516M1007.41 228.983l-1.93-.095-.04-12.36 1.65.499.28.076M1005.48 228.888l-2.07-.103m0 0-.05-12.892.88.279 1.2.354m-2.03 12.259-2.24-.11-.05-13.494 1.8.584.44.132M1001.17 228.675l-2.352-.117-.048-14.161 1.41.484.94.3" stroke="#fff" stroke-width=".5" stroke-linecap="round" stroke-linejoin="round"/><path d="m998.818 228.558-2.383-.116-.049-14.875 1.044.377 1.342.454" stroke="#fff" stroke-width=".5" stroke-linecap="round" stroke-linejoin="round"/><path d="m996.435 228.442-2.463-.122-.05-15.655.759.291 1.707.609" stroke="#fff" stroke-width=".5" stroke-linecap="round" stroke-linejoin="round"/><path d="m993.972 228.32-2.603-.129-.05-16.526.615.249 1.988.751" stroke="#fff" stroke-width=".5" stroke-linecap="round" stroke-linejoin="round"/><path d="m991.369 228.191-2.814-.139-.052-17.531 2.002.828.814.314M988.555 228.052l-3.116-.154-.054-18.715 2.145.937.973.401M985.439 227.898l-3.697-.182-.056-20.22.039.018 2.854 1.317.806.352" stroke="#fff" stroke-width=".5" stroke-linecap="round" stroke-linejoin="round"/><path d="m981.742 227.716-3.694-.183-.056-21.834.814.408 1.856.901.97.462.054.026M978.048 227.533l-3.75-.186m0 0-.02-8.481m.02 8.481-3.871-.191m3.851-8.29 2.8.125v-13.747l.914.455m-3.714 13.167-3.871-.169m.02 8.459-.02-8.459m.02 8.459-4.203-.208-.019-8.434 4.202.183M966.224 226.947l-4.159-.204m0 0-.017-8.405m.017 8.405-4.129-.205-.015-8.372 4.127.172m0 0 4.157.176M957.936 226.538l-4.11-.203-.013-8.338 4.108.169" stroke="#fff" stroke-width=".5" stroke-linecap="round" stroke-linejoin="round"/><path d="m953.826 226.335-4.103-.203-.012-8.3 4.102.165M949.723 226.132l-4.11-.203m0 0-.012-8.259m.012 8.259-3.812-.188-.01-8.218 3.81.147m0 0 4.11.162M941.801 225.741l-3.794-.188m0 0-.008-8.167 3.792.144m-3.784 8.023-3.819-.188-.006-8.116 3.817.142M934.188 225.365l-3.891-.193m0 0-.007-8.067m.007 8.067-4.017-.198-.004-8.015 4.014.146m0 0 3.892.144" stroke="#fff" stroke-width=".5" stroke-linecap="round" stroke-linejoin="round"/><path d="m926.28 224.974-5.188-.257-.002-7.942 5.186.184M921.092 224.717l-5.174-.255m0 0v-7.863m0 7.863-5.175-.256.002-7.778 5.173.171m0 0 5.172.176M910.743 224.206l-5.184-.257m0 0 .002-7.69m-.002 7.69-5.208-.257m5.21-7.433 5.184.169m-5.184-.169-5.207-.168m-.003 7.601.003-7.601m-.003 7.601-5.247-.259m5.25-7.342-5.243-.165m-.007 7.507.007-7.507m-.007 7.507-5.298-.262.007-7.405 4.837.144.461.016" stroke="#fff" stroke-width=".5" stroke-linecap="round" stroke-linejoin="round"/><path d="m889.806 223.171-5.364-.266.009-7.291 5.362.156M884.442 222.905l-5.446-.269m0 0 .01-7.174m-.01 7.174-5.547-.274.014-7.054 5.543.154m0 0 5.446.154M873.451 222.362l-5.662-.279m0 0 .014-6.929 5.66.152m-5.674 6.777-5.795-.286.015-6.789 5.794.144" stroke="#fff" stroke-width=".5" stroke-linecap="round" stroke-linejoin="round"/><path d="m861.994 221.797-4.805-.239.016-6.666 4.806.118M857.189 221.558l-4.723-.233m0 0 .019-6.545m-.019 6.545-4.67-.23.019-6.425 4.67.11m0 0 4.72.113M847.796 221.095l-4.651-.231m0 0 .02-6.299m-.02 6.299-4.664-.23.022-6.167 4.099.084.563.014m0 0 4.65.107M838.481 220.634l-4.135-.204.022-6.048 2.558.051 1.577.034M834.346 220.43l-3.944-.195m0 0 .023-5.929m-.023 5.929-3.811-.188.022-5.812 2.016.037 1.796.034m0 0 3.877.075h.066" stroke="#fff" stroke-width=".5" stroke-linecap="round" stroke-linejoin="round"/><path d="m826.591 220.047-3.734-.184.024-5.692 2.974.052.758.014m309.687-48.772-2.18-6.724-5.72-4.156h-7.07l-5.72 4.156-2.19 6.724 2.19 6.724 5.72 4.156h7.07l5.72-4.156 2.18-6.724Z" stroke="#fff" stroke-width=".5" stroke-linecap="round" stroke-linejoin="round"/><path clip-rule="evenodd" d="m1136.3 165.465-2.18-6.724-5.72-4.156h-7.07l-5.72 4.156-2.19 6.724 2.19 6.724 5.72 4.156h7.07l5.72-4.156 2.18-6.724Z" stroke="#fff" stroke-width=".5" stroke-linecap="round" stroke-linejoin="round" stroke-dasharray="17.52 8.76 0.02 8.76"/><path d="M1053.88 127.154c-.28 0-.56.098-.78.278-.22.18-.37.43-.43.708m11.95 22.857h21.92c.33-.001.64-.131.87-.363.24-.231.37-.545.37-.873" stroke="#fff" stroke-width=".5" stroke-linecap="round" stroke-linejoin="round"/><path d="M1052.65 128.387v9.836" stroke="#fff" stroke-width=".5" stroke-linecap="round" stroke-linejoin="round" stroke-dasharray="6.57 8.76"/><path d="M1087.78 149.761v-21.374c-.01-.327-.14-.64-.37-.871-.23-.232-.54-.362-.87-.362h-32.66m5.81 11.069V128.14" stroke="#fff" stroke-width=".5" stroke-linecap="round" stroke-linejoin="round"/><path d="M1059.44 128.141v10.082" stroke="#fff" stroke-width=".5" stroke-linecap="round" stroke-linejoin="round" stroke-dasharray="6.57 8.76"/><path d="M1059.69 138.223h-2.06" stroke="#fff" stroke-width=".5" stroke-linecap="round" stroke-linejoin="round"/><path d="M1057.38 138.223v-10.082" stroke="#fff" stroke-width=".5" stroke-linecap="round" stroke-linejoin="round" stroke-dasharray="6.57 8.76"/><path d="M1057.63 128.141v10.082h-2.06" stroke="#fff" stroke-width=".5" stroke-linecap="round" stroke-linejoin="round"/><path d="M1055.32 138.223v-10.082" stroke="#fff" stroke-width=".5" stroke-linecap="round" stroke-linejoin="round" stroke-dasharray="6.57 8.76"/><path d="M1055.57 128.141v10.082h-2.06" stroke="#fff" stroke-width=".5" stroke-linecap="round" stroke-linejoin="round"/><path d="M1053.27 138.223v-10.082" stroke="#fff" stroke-width=".5" stroke-linecap="round" stroke-linejoin="round" stroke-dasharray="6.57 8.76"/><path d="M1060.68 138.223h-.99m0-10.082h2.05m-8.23 10.082v-10.082h-1.27v10.082h1.27Z" stroke="#fff" stroke-width=".5" stroke-linecap="round" stroke-linejoin="round"/><path clip-rule="evenodd" d="m1058.82 133.183-3.95 2.006v-1.204H1051v-1.606h3.87v-1.205l3.95 2.009Z" stroke="#fff" stroke-width=".5" stroke-linecap="round" stroke-linejoin="round"/><path d="M1043.73 132.043h-.25c0 .139.11.25.25.25v-.25Zm0-1.797v-.25c-.14 0-.25.112-.25.25h.25Zm1.03.108-.13.217.13-.217Zm.28.308-.22.111.22-.111Zm0 .963.23.111-.23-.111Zm-.29.311.12.217-.12-.217Zm-.8-.086h-.25c0 .138.11.25.25.25v-.25Zm.91-1.083-.23.102v.001l.23-.103Zm-.21-.242-.13.214.13-.214Zm-.7-.086v-.25c-.14 0-.25.112-.25.25h.25Zm.34 1.604v-.25h-.56v.5h.56v-.25Zm-.56 0h.25v-1.797h-.5v1.797h.25Zm0-1.797v.25h.58v-.5h-.58v.25Zm.58 0v.25c.14 0 .24.029.32.075l.13-.217.12-.216c-.17-.098-.36-.142-.57-.142v.25Zm.45.108-.13.217c.08.045.14.11.19.202l.22-.111.23-.11c-.09-.177-.22-.317-.39-.414l-.12.216Zm.28.308-.22.111c.04.092.07.211.07.368h.5c0-.215-.04-.414-.12-.59l-.23.111Zm.1.479h-.25c0 .158-.03.28-.07.373l.22.111.23.111c.08-.177.12-.378.12-.595h-.25Zm-.1.484-.22-.111c-.05.091-.11.157-.19.204l.12.218.12.217c.18-.098.31-.239.4-.417l-.23-.111Zm-.29.311-.12-.218c-.08.046-.19.075-.34.075v.5c.21 0 .41-.042.58-.14l-.12-.217Zm-.8-.086v.25h.32v-.5h-.32v.25Zm.32 0v.25c.18 0 .35-.034.5-.12l-.13-.216-.13-.215c-.05.029-.12.051-.24.051v.25Zm.37-.086.13.216c.14-.084.25-.206.32-.357l-.23-.103-.23-.104c-.03.061-.06.102-.12.133l.13.215Zm.22-.244.23.103c.06-.146.09-.309.09-.482h-.5c0 .12-.02.209-.05.275l.23.104Zm.07-.379h.25c0-.171-.03-.333-.09-.477l-.23.103-.23.103c.03.065.05.153.05.271h.25Zm-.07-.374.23-.103c-.07-.149-.17-.27-.31-.354l-.13.215-.13.214c.05.029.08.069.11.13l.23-.102Zm-.21-.242.13-.215c-.15-.086-.31-.121-.48-.121v.5c.1 0 .17.022.22.05l.13-.214Zm-.35-.086v-.25h-.35v.5h.35v-.25Zm-.35 0h-.25v1.411h.5v-1.411h-.25Zm2.98-.193h.25c0-.138-.11-.25-.25-.25v.25Zm0 1.797v.25c.14 0 .25-.111.25-.25h-.25Zm-.21 0-.2.143c.04.067.12.107.2.107v-.25Zm-.98-1.411.21-.142c-.05-.067-.13-.108-.21-.108v.25Zm-.02 0v-.25c-.13 0-.25.112-.25.25h.25Zm0 1.411v.25c.14 0 .25-.111.25-.25h-.25Zm-.21 0h-.25c0 .139.11.25.25.25v-.25Zm0-1.797v-.25c-.14 0-.25.112-.25.25h.25Zm.21 0 .2-.142c-.04-.068-.12-.108-.2-.108v.25Zm.98 1.415-.21.143c.05.067.13.107.21.107v-.25Zm.02 0v.25c.14 0 .25-.112.25-.25h-.25Zm0-1.415v-.25c-.14 0-.25.112-.25.25h.25Zm.21 0h-.25v1.797h.5v-1.797h-.25Zm0 1.797v-.25h-.21v.5h.21v-.25Zm-.21 0 .21-.142-.98-1.411-.21.142-.2.143.98 1.411.2-.143Zm-.98-1.411v-.25h-.02v.5h.02v-.25Zm-.02 0h-.25v1.411h.5v-1.411h-.25Zm0 1.411v-.25h-.21v.5h.21v-.25Zm-.21 0h.25v-1.797h-.5v1.797h.25Zm0-1.797v.25h.21v-.5h-.21v.25Zm.21 0-.21.143.98 1.415.21-.143.21-.143-.99-1.414-.2.142Zm.98 1.415v.25h.02v-.5h-.02v.25Zm.02 0h.25v-1.415h-.5v1.415h.25Zm0-1.415v.25h.21v-.5h-.21v.25Z" fill="#fff"/><path d="m1063.06 126.932.62 12.525m-.2-12.525.61 12.525" stroke="#fff" stroke-width=".5" stroke-linecap="round" stroke-linejoin="round" stroke-dasharray="17.52 8.76 0.02 8.76"/><path d="M1061.5 128.141v6.208" stroke="#fff" stroke-width=".5" stroke-linecap="round" stroke-linejoin="round" stroke-dasharray="6.57 8.76"/><path d="M1061.74 133.183v-5.042h1.07m.68 12.551v9.069c0 .328.13.642.36.874.23.231.55.362.87.362m-5.03-22.856h-6.18m8.74 11.316h-8.37c-.32 0-.64-.13-.87-.361-.23-.232-.36-.545-.36-.873" stroke="#fff" stroke-width=".5" stroke-linecap="round" stroke-linejoin="round"/><path d="M1052.67 128.141c-.01.081-.02.164-.02.247" stroke="#fff" stroke-width=".5" stroke-linecap="round" stroke-linejoin="round" stroke-dasharray="6.57 8.76"/><path d="M1063.49 140.692c0-.327-.13-.641-.36-.873-.23-.231-.55-.362-.88-.362" stroke="#fff" stroke-width=".5" stroke-linecap="round" stroke-linejoin="round"/><path clip-rule="evenodd" d="M1103.6 210.034v5.585l-1.12.114-3.64.304-3.65.242-3.65.183-3.64.125-3.65.07-3.3.015-4.15-.048-4.13-.111-4.1-.178-4.09-.242-4.08-.31-4.06-.374-4.05-.438-4.04-.506-4.02-.57-4.03-.634-4.01-.701-3.63-.69-3.19-.652-3.1-.682-3.03-.715-2.95-.757-2.9-.798-2.84-.846-2.81-.897-2.77-.953-2.75-1.013-2.73-1.076-2.72-1.144-2.727-1.217-1.496-.697-2.127-1.027-2.025-1.019-1.931-1.017-1.843-1.02-1.758-1.034-1.682-1.05-1.61-1.075-1.545-1.105-1.486-1.142-1.433-1.186-1.384-1.235-1.342-1.291-1.306-1.356-1.276-1.423-.406-.473-.907-1.105-.829-1.102-.755-1.1-.682-1.11-.615-1.121-.55-1.143-.491-1.167-.433-1.198-.381-1.235-.054-.195-.311-1.281-.242-1.265-.178-1.28-.118-1.319-.063-1.388-.009-1.482v-.027l.009-1.482.063-1.388.118-1.32.178-1.279.242-1.265.311-1.28.054-.196.381-1.235.433-1.198.491-1.168.55-1.142.615-1.121.682-1.109.755-1.101.829-1.102.907-1.103.406-.475 1.276-1.424 1.306-1.353 1.342-1.293 1.384-1.235 1.433-1.186 1.486-1.142 1.545-1.105 1.61-1.075 1.682-1.05 1.758-1.033 1.843-1.022 1.931-1.016 2.025-1.019 2.127-1.027 1.496-.697 2.727-1.217 2.72-1.144 2.73-1.076 2.75-1.012 2.77-.954 2.81-.897 2.84-.846 2.9-.798 2.95-.757 3.03-.715 3.1-.682 3.19-.652 3.63-.688 4.01-.701 4.03-.636 4.02-.57 4.04-.506 4.05-.439 4.06-.374 4.08-.309 4.09-.242 4.1-.178 4.13-.111 4.15-.048 3.3.015 3.65.07 3.64.125 3.65.183 3.65.243 3.64.303 1.12.115v5.584l3.98.44 3.73.447 3.53.467 3.43.502 3.37.557 3.39.623 3.46.703 1.62.352 2.92.659 2.7.644 2.54.653 2.43.682 2.4.735 2.4.805 2.32.843 2.65 1.013 2.49 1.009 2.39 1.022 2.33 1.059 2.28 1.113 2.32 1.191 1.06.576 1.42.858 1.99 1.262 1.89 1.267 1.77 1.276 1.66 1.284 1.55 1.298 1.45 1.311 1.34 1.329.95 1.032.9 1.045.83 1.06.77 1.072.72 1.087.64 1.101.6 1.119.52 1.135.47 1.152.41 1.173.35 1.191.29 1.213.23 1.234.18 1.257.11 1.281.06 1.304v.266l-.06 1.305-.11 1.279-.18 1.257-.23 1.234-.29 1.213-.35 1.191-.41 1.173-.47 1.152-.52 1.135-.6 1.119-.64 1.101-.72 1.086-.77 1.073-.83 1.059-.9 1.046-.95 1.032-1.34 1.328-1.45 1.312-1.55 1.298-1.66 1.284-1.77 1.276-1.89 1.267-1.99 1.262-1.42.86-1.06.573-2.32 1.192-2.28 1.115-2.33 1.057-2.39 1.022-2.49 1.009-2.65 1.013-2.32.843-2.4.805-2.4.735-2.43.681-2.54.654-2.7.646-2.92.656-1.62.352-3.46.706-3.39.621-3.37.557-3.43.502-3.53.467-3.73.447-3.98.44Z" stroke="#fff" stroke-opacity=".3" stroke-width=".5" stroke-linecap="round" stroke-linejoin="round" stroke-dasharray="17.52 8.76 0.02 8.76"/><path clip-rule="evenodd" d="m977.901 182.357.005.105.012.103.023.102.029.098.039.096.046.093.054.09.062.083.068.08.074.072.794.708 1.433 1.186 1.486 1.142 1.545 1.105 1.611 1.074 1.681 1.051 1.758 1.034 1.843 1.02 1.931 1.017 2.025 1.019 2.127 1.027 1.496.697 2.727 1.216 2.72 1.144 2.73 1.076 2.75 1.014 2.69.922.1.03.1.022.11.012.1.004.11-.007.11-.015.1-.024.1-.034.1-.042.09-.049.09-.059.09-.065.08-.072.07-.08.06-.085.06-.091.05-.095.04-.098.03-.101.02-.105.02-.107V131.261l-.02-.107-.02-.105-.03-.101-.04-.098-.05-.095-.06-.09-.06-.086-.07-.08-.08-.072-.09-.065-.09-.059-.09-.049-.1-.042-.1-.034-.1-.024-.11-.015-.11-.007-.1.004-.11.011-.1.022-.1.031-2.69.922-2.75 1.014-2.73 1.076-2.72 1.144-2.727 1.216-1.496.697-2.127 1.027-2.025 1.019-1.931 1.017-1.843 1.02-1.758 1.034-1.681 1.051-1.611 1.074-1.545 1.105-1.486 1.142-1.433 1.186-.794.709-.074.071-.068.08-.062.083-.054.09-.046.093-.039.096-.029.1-.023.101-.012.102-.005.105v33.783Zm58.439-10.472-.11.005-.11.014-.1.023-.11.033-.1.04-.09.051-.09.057-.09.066-.08.073-.07.08-.06.084-.06.092-.05.094-.04.1-.04.103-.02.105-.01.107-.01.108v.518l-.02.108-.02.105-.03.102-.04.1-.05.096-.06.09-.07.086-.07.08-.08.072-.08.066-.1.058-.09.049-.1.04-.1.034-.11.022-.11.016-.1.005h-2.47l-.11-.005-.11-.016-.1-.022-.1-.034-.1-.04-.1-.049-.09-.058-.09-.066-.08-.072-.07-.08-.06-.086-.06-.09-.05-.096-.04-.1-.03-.102-.03-.105-.01-.108-.01-.107v-.519l-.02-.107-.02-.105-.03-.103-.04-.1-.05-.094-.06-.092-.06-.084-.08-.08-.08-.073-.08-.066-.09-.057-.1-.051-.1-.04-.1-.033-.11-.023-.1-.014-.11-.005h-12.76l-.11.005-.1.014-.11.023-.1.033-.1.04-.09.051-.1.057-.08.066-.08.073-.07.08-.07.084-.06.092-.05.094-.04.1-.03.103-.02.105-.02.107v27.947l.02.105.02.104.03.099.04.099.05.094.05.09.07.085.06.077.08.073.08.066.09.059.09.051.1.042.1.034 1.56.466h31.71l.11-.005.11-.014.1-.024.1-.032.1-.042.1-.049.09-.058.08-.066.09-.073.07-.079.07-.086.05-.09.05-.096.04-.099.04-.103.02-.105.01-.106.01-.109V173.12l-.01-.108-.01-.107-.02-.105-.04-.103-.04-.1-.05-.094-.05-.092-.07-.084-.07-.08-.09-.073-.08-.066-.09-.057-.1-.051-.1-.04-.1-.033-.1-.023-.11-.014-.11-.005h-12.75Zm37.03 0-.1.005-.11.014-.11.023-.1.033-.1.04-.1.051-.08.057-.09.066-.08.073-.07.08-.07.084-.06.092-.05.094-.04.1-.03.103-.03.105v.107l-.01.108v.411l-.01.107-.01.108-.02.105-.04.102-.04.1-.05.096-.05.09-.07.086-.07.08-.09.072-.08.066-.09.058-.1.049-.1.04-.09.034-.11.022-.11.016-.11.005h-2.46l-.11-.005-.11-.016-.11-.022-.09-.034-.1-.04-.1-.049-.09-.058-.09-.066-.08-.072-.07-.08-.07-.086-.06-.09-.05-.096-.04-.1-.03-.102-.02-.105-.01-.108-.01-.107v-.411l-.01-.108-.01-.107-.02-.105-.03-.103-.05-.1-.04-.094-.06-.092-.07-.084-.07-.08-.09-.073-.08-.066-.09-.057-.1-.051-.1-.04-.09-.033-.11-.023-.11-.014-.11-.005h-12.75l-.11.005-.1.014-.11.023-.1.033-.1.04-.1.051-.09.057-.08.066-.08.073-.08.08-.06.084-.06.092-.05.094-.04.1-.03.103-.03.105-.01.107-.01.108v28.147l.01.109.01.106.03.105.03.103.04.099.05.096.06.09.06.086.08.079.08.073.08.066.09.058.1.049.1.042.1.032.11.024.1.014.11.005h26.75l.1-.005.11-.014.11-.024.1-.032.1-.042.09-.049.1-.058.08-.066.08-.073.07-.079.07-.086.06-.09.05-.096.04-.099.03-.103.02-.105.01-.106.01-.109V173.12l-.01-.108-.01-.107-.02-.105-.03-.103-.04-.1-.05-.094-.06-.092-.07-.084-.07-.08-.08-.073-.08-.066-.1-.057-.09-.051-.1-.04-.1-.033-.11-.023-.11-.014-.1-.005h-6.59Zm52.51 23.785.01.108.01.107.02.105.04.103.04.1.05.095.05.091.07.085.07.079.09.073.08.066.09.058.1.05.1.041.1.032.1.024.11.013.11.005h8.56l.1-.005.11-.013.11-.024.1-.032.09-.041.1-.05.09-.058.09-.066.08-.073.07-.079.07-.085.06-.091.05-.095.04-.1.03-.103.02-.105.01-.107.01-.108v-8.667l-.01-.106-.01-.107-.02-.105-.03-.103-.04-.1-.05-.094-.06-.092-.07-.086-.07-.078-.08-.073-.09-.066-.09-.057-.1-.051-.09-.041-.1-.032-.11-.023-.11-.014-.1-.005h-8.56l-.11.005-.11.014-.1.023-.1.032-.1.041-.1.051-.09.057-.08.066-.09.073-.07.078-.07.086-.05.092-.05.094-.04.1-.04.103-.02.105-.01.107-.01.106v8.667Zm-66.91-70.533v-7.407l.01-.139.02-.136.04-.133.05-.127.07-.122.08-.113.09-.104.1-.091.12-.081.12-.066.12-.054.14-.037.13-.024.14-.009h7.41l.14.009.13.024.14.037.13.054.12.066.11.081.1.091.09.104.09.113.06.122.06.127.03.133.03.136.01.139v7.407l-.01.137-.03.137-.03.134-.06.127-.06.122-.09.113-.09.103-.1.092-.11.081-.12.066-.13.052-.14.039-.13.024-.14.007h-7.41l-.14-.007-.13-.024-.14-.039-.12-.052-.12-.066-.12-.081-.1-.092-.09-.103-.08-.113-.07-.122-.05-.127-.04-.134-.02-.137-.01-.137Zm11.52 0v-7.407l.01-.139.02-.136.04-.133.06-.127.06-.122.08-.113.09-.104.1-.091.12-.081.12-.066.12-.054.15-.037.13-.024.14-.009h13.58l.14.009.13.024.14.037.12.054.12.066.12.081.1.091.09.104.08.113.07.122.06.127.03.133.02.136.01.139v7.407l-.01.137-.02.137-.03.134-.06.127-.07.122-.08.113-.09.103-.1.092-.12.081-.12.066-.12.052-.14.039-.13.024-.14.007h-13.58l-.14-.007-.13-.024-.15-.039-.12-.052-.12-.066-.12-.081-.1-.092-.09-.103-.08-.113-.06-.122-.06-.127-.04-.134-.02-.137-.01-.137Zm-34.61 21.934v-2.47l.01-.137.02-.137.04-.132.06-.129.06-.122.08-.111.1-.104.1-.093.11-.079.12-.068.13-.052.13-.039.14-.024.14-.007h2.47l.14.007.13.024.14.039.12.052.12.068.12.079.1.093.09.104.08.111.07.122.05.129.04.132.02.137.01.137v2.47l-.01.137-.02.137-.04.134-.05.127-.07.122-.08.113-.09.103-.1.092-.12.081-.12.066-.12.052-.14.039-.13.024-.14.007h-2.47l-.14-.007-.14-.024-.13-.039-.13-.052-.12-.066-.11-.081-.1-.092-.1-.103-.08-.113-.06-.122-.06-.127-.04-.134-.02-.137-.01-.137Zm-15.47-18.477v-3.704l.01-.138.02-.136.04-.133.05-.129.07-.12.08-.114.09-.103.11-.093.11-.079.12-.066.13-.055.13-.037.14-.023.14-.009h6.58l.14.009.13.023.14.037.13.055.12.066.11.079.1.093.09.103.08.114.07.12.05.129.04.133.03.136v3.979l-.03.137-.04.134-.05.127-.07.122-.08.113-.09.103-.1.092-.11.081-.12.066-.13.052-.14.039-.13.024-.14.007h-6.58l-.14-.007-.14-.024-.13-.039-.13-.052-.12-.066-.11-.081-.11-.092-.09-.103-.08-.113-.07-.122-.05-.127-.04-.134-.02-.137-.01-.137Z" stroke="#fff" stroke-opacity=".3" stroke-width=".5" stroke-linecap="round" stroke-linejoin="round" stroke-dasharray="17.52 8.76 0.02 8.76"/></svg>