<svg width="1776" height="330" viewBox="0 0 1776 330" fill="none" xmlns="http://www.w3.org/2000/svg"><path d="M919.536 191.165c2.019 0 3.955-.802 5.383-2.23 1.428-1.427 2.229-3.364 2.229-5.383" stroke="#fff" stroke-width=".5" stroke-linecap="round" stroke-linejoin="round" stroke-dasharray="0.36 0.36"/><path d="M919.536 183.552h7.613m-68.884-10.293h4.185v-12.163h-5.835v-12.908h-5.998v25.071h.702m12.368 17.955h-2.321v3.146h7.283v21.801h-22.343v-33.304h8.152v-.368m.536-14.344.046-.078-.036-.02-.165.286.036.02.046-.078.182.105m-.249-.76-3.232 5.596.298.172 3.232-5.596-.298-.172Z" stroke="#fff" stroke-width=".5" stroke-linecap="round" stroke-linejoin="round"/><path d="M855.103 168.38c.014.008.026.019.036.032.011.013.018.028.022.044.004.015.005.032.003.048s-.007.032-.015.046l-.301.519c-.003.005-.005.01-.006.015 0 .006 0 .011.002.016.001.006.003.01.007.015.003.004.007.008.012.01.005.003.01.005.015.005.006.001.011.001.016-.001.005-.001.01-.004.014-.007.005-.003.008-.007.011-.012l.333-.577c.014-.023.024-.049.027-.076.004-.027.002-.054-.005-.081-.007-.026-.019-.051-.035-.072-.017-.022-.038-.04-.061-.053l-.184-.106m-3.466 5.104c-.014-.005-.024-.015-.031-.027-.006-.013-.007-.028-.003-.041.004-.014.013-.025.025-.032.012-.007.027-.01.041-.007.014.003.026.011.034.023.008.011.011.026.01.04l.28.163-.008.013-.278-.159c-.006.012-.016.022-.03.027-.013.006-.027.006-.04 0Zm0 0-.001.325h.017v-.322m-.017.007h6.537m-6.537 0v.373h.165v.04h-.371v-.413h.206Zm6.537 0v.373h-.165v.04h.371v-.413h-.206Zm-.165.41h-6.207m9.757 8.397c-.013.005-.028.005-.041 0-.013-.005-.024-.015-.03-.028l-.277.16-.009-.013.281-.164c-.002-.014.002-.028.01-.039.008-.012.02-.02.034-.023.014-.003.028-.001.04.007.012.007.021.018.025.032.005.013.003.028-.003.041-.006.012-.017.022-.03.027Zm0 0 .001.325h-.017v-.322m.017.007h-6.951m6.951 0v.372h-.165v.041h.37v-.413h-.205Zm-6.951 0v.372h.165v.041h-.373v-.413h.208Zm.165.41h6.621m.205.003v.864h2.2m.42.042c.005-.013.015-.024.027-.03.013-.006.027-.008.041-.004.013.004.025.013.032.026.007.012.01.026.007.04-.003.014-.011.026-.023.034-.011.008-.026.012-.04.01l-.163.28-.014-.008.16-.277c-.012-.006-.022-.017-.027-.03-.006-.013-.006-.028 0-.041Zm0 0-.325-.001v.017h.322m-.007-.017v7.779m-.41-.166v-7.446m-9.065-15.628.046-.079.035.021-.165.286-.035-.021.046-.078-.184-.105c-.029-.016-.062-.021-.094-.012-.031.009-.058.029-.075.057l-.301.519c-.005.01-.014.017-.025.02-.01.002-.021.001-.031-.004-.009-.006-.016-.015-.019-.025-.003-.011-.002-.022.004-.031l.333-.577c.014-.024.031-.045.053-.062.021-.017.046-.029.072-.036.027-.007.054-.009.081-.005.027.003.053.012.077.026l.182.106Zm3.291 8.145 3.438 5.955-.297.172-3.438-5.955.297-.172Zm-.141.527-.046-.078.036-.022.167.287-.036.021-.046-.079-.182.106c-.028.016-.049.043-.058.075-.008.031-.004.065.012.093l.299.521c.006.009.007.02.005.031-.003.011-.01.019-.02.025-.009.005-.021.007-.031.004-.011-.003-.02-.01-.025-.019l-.333-.577c-.014-.024-.023-.05-.027-.077-.004-.027-.002-.054.005-.08.007-.027.02-.051.037-.073.016-.021.037-.039.061-.052l.182-.106Zm.369-.213-.046-.08-.035.021.166.287.036-.02-.046-.08.182-.105c.014-.009.03-.014.046-.016s.033-.001.049.003.03.012.043.022c.013.01.024.022.032.036l.3.519c.005.01.014.017.025.02.01.002.021.001.031-.004.009-.006.016-.015.019-.025.003-.011.002-.022-.004-.032l-.332-.576c-.013-.024-.031-.045-.053-.062-.021-.017-.046-.029-.073-.036-.026-.007-.054-.009-.081-.005-.027.004-.053.014-.077.028l-.182.105Zm12.67 10.951-6.671-3.853-.172.297 6.671 3.853.172-.297Zm-.525.139.078.046.02-.036-.285-.165-.023.036.08.046-.105.182c-.008.014-.019.027-.032.037-.013.01-.028.017-.044.021-.015.005-.032.006-.048.003-.016-.002-.032-.007-.046-.015l-.519-.301c-.009-.006-.021-.007-.031-.004-.011.003-.02.01-.025.019-.006.01-.007.021-.004.031.003.011.01.02.019.025l.575.334c.024.014.05.023.077.027.027.004.054.002.081-.005.027-.007.051-.019.073-.036.022-.016.04-.037.053-.061l.106-.184Zm.212-.369.079.046-.021.036-.286-.165.021-.036.078.046.106-.184c.016-.028.02-.062.011-.094-.008-.031-.029-.058-.057-.074l-.519-.301c-.005-.003-.009-.007-.012-.011-.004-.004-.006-.009-.008-.014-.001-.006-.001-.011-.001-.016.001-.006.003-.011.005-.016.003-.004.007-.008.011-.012.004-.003.009-.005.014-.007.006-.001.011-.002.016-.001.006.001.011.002.015.005l.577.333c.024.014.045.032.062.053.017.022.029.046.036.073.007.026.009.053.005.08-.003.027-.012.053-.026.077l-.106.182Z" stroke="#fff" stroke-width=".5" stroke-linecap="round" stroke-linejoin="round"/><path d="M864.1 191.173h-.373v-.166h-.04v.372h.413v-.206Zm0 0c1.024.009 2.04-.186 2.988-.572.949-.386 1.811-.956 2.538-1.678.727-.721 1.304-1.579 1.698-2.525.394-.945.596-1.959.596-2.983m-7.823.825v6.95m-.409-.165v-6.619m-2.259-9.322c-.915 0-1.821.181-2.666.534-.845.352-1.612.868-2.256 1.518-.644.65-1.154 1.421-1.498 2.269-.345.848-.518 1.756-.51 2.671m3.565-8.817c.017-1.726-.652-3.389-1.86-4.622-1.208-1.233-2.856-1.937-4.582-1.956m12.105 16.88v-.167h.373v-.206h-.413v.373h.04ZM863.683 193.118h12.411m0 0v-11.253m0 11.253h43.442m-100.745 18.841h21.326v7.797l4.983.18m-26.309-7.977h-41.989v5.509m41.989-5.509v-9.376H777.21v-24.442h15.091c.081-1.513.732-2.939 1.822-3.992 1.089-1.052 2.537-1.654 4.052-1.683V157.503c-1.515-.029-2.963-.63-4.052-1.683-1.09-1.053-1.741-2.479-1.822-3.992H777.21v-24.443h41.581v-9.377m3.123 93.951v7.138l-.844-.03m-2.279-101.059h21.326v-7.794l4.983-.181m-26.309 7.975h-41.989v-5.506m45.112 5.506v-7.136l-.844.029m-20.686 16.484v-9.377M1109.86 107.967l.32-.103.53-.149.55-.14.47-.109.46-.093.45-.075.45-.061.46-.051.47-.038.48-.027.4-.017.09-.008.49-.012.19-.004h.43l.66.004.71.013.75.026.8.039.86.051.92.07.99.085 1.06.107 1.13.126 1.22.148 1.1.146 1.16.162 1.24.189 1.39.222 1.09.186.6.102 1.76.318 1.85.354 1.96.398 2.12.457 2.33.536 2.6.637 2.52.649.46.121 1.82.499 2.59.733 1.98.59 2.49.771 1.58.512 2.39.799.57.196.05.019 2.33.826 2.27.842 1.85.722 2.16.867.77.318.9.381 2.06.899 2.01.908 1.92.91 1.88.925 1.43.729.39.205 1.78.951 1.72.96 1.67.968.54.321 1.56.955 1.51.966 1.47.974.92.635.6.424 1.41 1.013 1.36 1.028 1.21.949 1.18.973.8.682.91.805 1.11 1.016 1.02.983.96.959.73.769.95 1.048.87 1.01.7.841.16.204.76.975.71.959.68.992.67 1.021.64 1.051.25.423.5.897.05.082h.43m-100.79 71.292.32.104.53.148.55.139.47.111.46.092.45.074.45.063.46.05.47.037.48.029.4.015.09.009.49.013.19.002h.43l.66-.003.71-.014.75-.025.8-.038.86-.054.92-.068.99-.087 1.06-.104 1.13-.126 1.22-.149 1.1-.145 1.16-.163 1.24-.189 1.39-.223 1.09-.185.6-.102 1.76-.319 1.85-.353 1.96-.398 2.12-.458 2.33-.536 2.6-.636 2.52-.65.46-.119 1.82-.498 2.59-.735 1.98-.591 2.49-.769 1.58-.512 2.39-.801.57-.195.05-.017 2.33-.827 2.27-.844 1.85-.72 2.16-.867.77-.318.9-.383 2.06-.898 2.01-.909 1.92-.908 1.88-.925 1.43-.73.39-.206 1.78-.951 1.72-.959 1.67-.967.54-.323 1.56-.954 1.51-.965 1.47-.976.92-.635.6-.423 1.41-1.014 1.36-1.028 1.21-.949 1.18-.973.8-.68.91-.807 1.11-1.015 1.02-.983.96-.958.73-.771.95-1.048.87-1.01.7-.84.16-.203.76-.976.71-.96.68-.992.67-1.02.64-1.051.25-.424.5-.897.05-.081h.43M919.536 183.248v-1.383 11.253M925.742 181.865h2.735M1297.34 144.461c-.05-.185-.06-.38-.03-.568.04-.189.12-.367.23-.521.12-.153.27-.277.44-.363.17-.086.36-.13.55-.13h17.24c.27 0 .53.086.74.246.22.159.37.384.45.64 4.14 13.843 4.14 28.596 0 42.439M1297.34 144.461c3.82 13.415 3.82 27.632 0 41.048-.05.184-.06.379-.03.568.04.189.12.367.23.52.12.153.27.278.44.364.17.085.36.13.55.13h17.24c.27 0 .53-.087.74-.246.22-.16.37-.385.45-.641" stroke="#fff" stroke-width=".5" stroke-linecap="round" stroke-linejoin="round"/><path clip-rule="evenodd" d="m844.248 263.97-5.607-.019-5.483-.072-5.365-.122-5.251-.174-5.14-.221-5.03-.27-4.921-.317-4.816-.364-4.709-.408-4.601-.451-4.5-.496-4.394-.536-4.292-.577-4.191-.617-4.09-.657-3.99-.692-3.894-.73-3.794-.766-3.7-.799-3.604-.836-3.513-.865-3.42-.899-3.329-.928-3.24-.96-3.152-.988-3.066-1.017-2.982-1.045-2.899-1.072-2.817-1.097-2.737-1.123-2.657-1.148-2.581-1.172-2.504-1.196-2.43-1.22-2.357-1.241-2.286-1.264-2.216-1.286-2.146-1.309-2.08-1.328-2.014-1.349-1.948-1.369-1.886-1.39-1.824-1.411-1.762-1.43-1.701-1.451-1.645-1.47-1.588-1.49-1.529-1.511-1.475-1.529-1.42-1.551-1.366-1.571-1.314-1.592-1.262-1.611-1.209-1.635-1.16-1.653-1.111-1.677-1.06-1.7-1.012-1.721-.965-1.746-.915-1.769-.868-1.795-.819-1.818-.774-1.844-.725-1.871-.679-1.897-.633-1.927-.583-1.953-.538-1.986-.49-2.014-.442-2.044-.393-2.077-.345-2.11-.295-2.143-.246-2.178-.196-2.215-.144-2.25-.094-2.288-.034-1.667.034-1.669.094-2.288.144-2.249.196-2.215.246-2.177.295-2.144.345-2.111.393-2.077.442-2.045.49-2.014.538-1.983.583-1.955.633-1.925.679-1.897.725-1.871.774-1.844.819-1.821.868-1.793.915-1.769.965-1.745 1.012-1.722 1.06-1.699 1.111-1.677 1.16-1.656 1.209-1.633 1.262-1.612 1.314-1.591 1.366-1.572 1.42-1.549 1.475-1.531 1.529-1.509 1.588-1.491 1.645-1.471 1.701-1.449 1.762-1.431 1.824-1.412L696.502 99l1.948-1.3711 2.014-1.349 2.08-1.3269 2.146-1.3098 2.216-1.2844 2.286-1.2639 2.357-1.2418 2.43-1.2197 2.504-1.1959 2.581-1.1738 2.657-1.1466 2.737-1.1227 2.817-1.0989 2.899-1.0717 2.982-1.0428 3.066-1.0173 3.152-.99 3.24-.9578 3.329-.9305 3.42-.8965 3.513-.8676 3.604-.8335 3.7-.7995 3.794-.7655 3.894-.7315 3.99-.6924 4.09-.6549 4.191-.6175 4.292-.5784 4.394-.5341 4.5-.4968 4.601-.4525 4.709-.4082 4.816-.3624 4.921-.3164 5.03-.2722 5.14-.2211 5.251-.1718 5.365-.1225 5.483-.0714 5.607-.0188h319.572l6.56.0051 6.38.0596 6.2.1088 6.04.1583 5.89.2075 5.73.2552 5.59.2994 5.43.3453 5.29.3878 5.15.4321 5.01.4712 4.88.5138 4.75.5528 4.62.5903 4.5.626 4.37.6635 4.26.7008 4.14.7315 4.02.7672 3.91.7996 3.81.8318 3.7.8608 3.59.8931 3.49.9203 3.39.9492 3.3.9781 3.2 1.0037 3.11 1.0309 3.02 1.0547 2.93 1.0819 2.84 1.1057 2.75 1.1279 2.67 1.1533 2.6 1.1738 2.52 1.1976 2.43 1.2197 2.37 1.2418 2.28 1.2588 2.22 1.2844 2.14 1.3013 2.08 1.3235 2.01 1.3439 1.94 1.3611 1.87 1.383 1.82 1.4 1.76 1.422 1.69 1.439 1.63 1.46 1.58 1.48 1.51 1.498 1.47 1.518 1.4 1.539 1.36 1.558 1.3 1.579 1.25 1.599 1.2 1.621 1.15 1.642 1.09 1.665 1.05 1.686 1 1.71.95 1.733.91 1.757.85 1.783.81 1.807.76 1.834.71 1.861.67 1.888.62 1.915.57 1.946.53 1.975.48 2.008.43 2.039.38 2.071.33 2.106.3 2.138.23 2.176.19 2.213.13 2.249.08 2.545.01.369-.01.369-.08 2.545-.13 2.249-.19 2.211-.23 2.176-.3 2.14-.33 2.106-.38 2.07-.43 2.04-.48 2.005-.53 1.977-.57 1.944-.62 1.918-.67 1.888-.71 1.861-.76 1.834-.81 1.806-.85 1.783-.91 1.757-.95 1.732-1 1.71-1.05 1.687-1.09 1.664-1.15 1.643-1.2 1.62-1.25 1.6-1.3 1.579-1.36 1.558-1.4 1.538-1.47 1.519-1.51 1.499-1.58 1.478-1.63 1.461-1.69 1.44-1.76 1.42-1.82 1.402-1.87 1.383-1.94 1.361-2.01 1.344-2.08 1.321-2.14 1.303-2.22 1.283-2.28 1.262-2.37 1.24-2.43 1.218-2.52 1.198-2.6 1.175-2.67 1.152-2.75 1.13-2.84 1.105-2.93 1.081-3.02 1.056-3.11 1.031-3.2 1.003-3.3.979-3.39.947-3.49.922-3.59.892-3.7.862-3.81.83-3.91.8-4.02.767-4.14.733-4.26.699-4.37.664-4.5.627-4.62.591-4.75.553-4.88.512-5.01.472-5.15.431-5.29.389-5.43.346-5.59.299-5.73.255-5.89.206-6.04.16-6.2.109-6.38.059-6.56.006H844.248Z" stroke="#fff" stroke-width=".5" stroke-linecap="round" stroke-linejoin="round"/><path d="m842.849 263.963-4.002-.021-5.474-.069-5.354-.123-5.227-.17-5.107-.221-4.993-.265-4.882-.314-4.774-.357-4.669-.401-4.566-.446-4.464-.486-4.363-.529-4.265-.569-4.164-.609-4.069-.646-3.972-.682-3.877-.721-3.783-.756-3.692-.791-3.596-.825-3.508-.857-3.419-.89-3.329-.92-3.242-.951-3.156-.982-3.072-1.008-2.989-1.038-2.906-1.065-2.825-1.09-2.748-1.118-2.669-1.143-2.59-1.167-2.518-1.191-2.443-1.216-2.37-1.237-2.299-1.262-2.229-1.283-2.16-1.305-2.094-1.327-2.026-1.347-1.964-1.368-1.9-1.389-1.835-1.411-1.778-1.429-1.716-1.451-1.655-1.469-1.601-1.492-1.543-1.511-1.487-1.531-1.432-1.553-1.378-1.572-1.325-1.594-1.273-1.614-1.221-1.637-1.171-1.656-1.121-1.681-1.07-1.703-1.022-1.725-1.078-1.946-1.018-1.973-.959-2.006-.9-2.034-.839-2.067-.782-2.1-.723-2.133-.665-2.167-.606-2.203-.546-2.24-.487-2.278-.428-2.317-.366-2.358-.306-2.4-.245-2.441-.18-2.487-.118-2.531-.049-2.113m283.225-51.981-.14.141-.1.15-.09.132-.092.198-.058.141-.058.214-.032.116-.034.415v36.737l.025.349.032.139.108.358.398.619.141.141.148.099.133.092.199.09.139.058.216.059.116.032.413.033 7.341-.016.297-.057.364-.208.133-.124.289-.447.289-.504.15-.257.191-.332.098-.098.09-.026h1.217l.124.034.066.067.075.124.165.272.248.439.298.514.124.173.307.264.149.083.107.034.125.041.098.008.572.016h12.891l.224-.024.373-.133.206-.141.115-.107.39-.621.298-.521.141-.239.09-.159.107-.098.075-.026h1.216l.133.043.066.058.108.19.355.604.315.555.141.19.33.264.233.1.107.041 6.073.024h7.546l.399-.065.147-.059.257-.174.116-.107.413-.653.283-.489.139-.248.084-.15.107-.098.083-.026h1.216l.125.034.066.067.075.124.156.272.257.439.298.514.124.173.306.264.148.083.109.034.124.041.091.008.522.016h13.179l.35-.024.14-.034.35-.107.63-.397.14-.141.1-.149.09-.131.09-.199.06-.142.05-.214.04-.116.03-.415v-36.737l-.02-.349-.04-.139-.11-.356-.39-.621-.14-.141-.15-.099-.14-.092-.19-.09-.14-.058-.22-.057-.12-.034-.41-.033h-12.873l-.837.016-.173.042-.281.124-.084.041-.141.133-.058.049-.057.075-.273.446-.289.505-.149.257-.15.257-.065.074-.124.05h-1.216l-.133-.034-.058-.067-.115-.19-.349-.604-.322-.555-.132-.188-.332-.266-.24-.098-.107-.043-6-.024h-7.488l-.397.067-.149.057-.249.174-.124.107-.388.621-.306.529-.133.24-.09.15-.109.098-.073.026h-1.465l-.141-.043-.058-.058-.124-.205-.34-.596-.313-.548-.158-.214-.373-.274-.19-.073-.09-.034-6-.024h-7.446l-.398.067-.148.057-.257.174-.116.107-.413.653-.282.489-.14.248-.083.15-.107.098-.084.026h-1.216l-.124-.034-.067-.067-.075-.124-.164-.272-.249-.439-.298-.514-.124-.173-.306-.264-.141-.083-.116-.032-.124-.043-.082-.008-.464-.016h-6.934l-.347.024-.141.034-.356.107-.62.397Zm86.588 102.553.11.191.35.604.32.554.13.191.34.265.24.099.1.041 5.99.025h7.46l.4-.066.14-.058.26-.173.12-.108.39-.62.3-.53.14-.239.09-.15.1-.099.09-.025h1.46l.13.041.06.057.13.208.34.595.32.546.15.216.37.273.2.074.09.033 6.01.025h7.47l.39-.066.15-.058.26-.173.12-.108.41-.655.28-.488.14-.246.08-.15.11-.099.08-.025h1.22l.12.032.07.066.08.125.16.273.25.439.3.512.12.174.31.265.14.084.11.032.13.041.06.008.42.017h7.08l.35-.025.14-.033.36-.107.62-.398.14-.139.1-.15.09-.133.09-.199.06-.139.05-.216.04-.116.03-.413V178.72l-.03-.347-.03-.142-.11-.355-.39-.621-.14-.14-.15-.1-.13-.09-.2-.092-.15-.058-.21-.058-.12-.032-.41-.034-7.41.009-.3.066-.37.207-.13.125-.36.554-.22.397-.15.256-.19.33-.1.101-.09.024h-1.22l-.12-.033-.07-.066-.08-.124-.16-.274-.25-.437-.3-.514-.12-.174-.31-.265-.15-.082-.1-.034-.13-.04-.1-.009-.57-.017h-12.92l-.23.026-.38.132-.2.14-.11.109-.39.619-.31.522-.14.24-.08.156-.12.101-.07.024h-1.22l-.13-.041-.06-.058-.11-.191-.35-.603-.32-.555-.14-.191-.33-.263-.23-.101-.11-.04-6.06-.026h-7.52l-.4.066-.15.058-.25.174-.12.109-.41.653-.29.488-.14.248-.08.148-.11.101-.08.024h-1.22l-.12-.033-.07-.066-.07-.124-.16-.274-.25-.437-.3-.514-.13-.174-.3-.265-.15-.082-.11-.034-.12-.04-.1-.009-.58-.017h-13.03l-.35.026-.14.032-.36.109-.62.396-.14.141-.1.148-.09.133-.09.199-.06.141-.06.215-.03.115-.03.414v36.739l.02.347.04.141.1.355.4.621.14.142.15.098.13.092.2.09.14.058.22.058.11.034.42.032h12.8l.83-.017.17-.041.28-.124.08-.041.14-.132.06-.05.06-.074.27-.448.29-.503.15-.257.15-.257.07-.075.12-.049h1.22l.13.032.06.066Zm-18.7-58.101v.107l.02.107.02.105.03.104.04.101.05.095.06.092.07.085.07.08.08.073.09.066.09.058.09.051.1.041.11.032.1.024.11.014.11.005h17.7l.11-.005.11-.014.11-.024.1-.032.1-.041.09-.051.1-.058.08-.066.08-.073.07-.08.07-.085.06-.092.05-.095.04-.101.03-.104.03-.105.01-.107.01-.107v-19.859l-.01-.109-.01-.107-.03-.106-.03-.104-.04-.1-.05-.095-.06-.092-.07-.085-.07-.08-.08-.073-.08-.067-.1-.057-.09-.051-.1-.041-.1-.033-.11-.023-.11-.014-.11-.005h-17.7l-.11.005-.11.014-.1.023-.11.033-.1.041-.09.051-.09.057-.09.067-.08.073-.07.08-.07.085-.06.092-.05.095-.04.1-.03.104-.02.106-.02.107V157.456Zm0-23.666v.108l.02.108.02.105.03.104.04.099.05.097.06.091.07.085.07.08.08.074.09.066.09.058.09.049.1.043.11.032.1.024.11.013.11.005h17.7l.11-.005.11-.013.11-.024.1-.032.1-.043.09-.049.1-.058.08-.066.08-.074.07-.08.07-.085.06-.091.05-.097.04-.099.03-.104.03-.105.01-.108.01-.108v-19.859l-.01-.107-.01-.108-.03-.107-.03-.102-.04-.1-.05-.097-.06-.09-.07-.087-.07-.08-.08-.073-.08-.065-.1-.059-.09-.05-.1-.041-.1-.034-.11-.022-.11-.015-.11-.003h-17.7l-.11.003-.11.015-.1.022-.11.034-.1.041-.09.05-.09.059-.09.065-.08.073-.07.08-.07.087-.06.09-.05.097-.04.1-.03.102-.02.107-.02.108v19.966Zm-21.518 58.583.005.109.014.107.024.105.032.104.041.099.051.097.058.092.066.085.072.08.081.073.085.066.092.058.096.049.1.043.104.032.105.024.107.014.107.005h17.708l.11-.005.11-.014.1-.024.1-.032.11-.043.09-.049.09-.058.09-.066.08-.073.07-.08.07-.085.05-.092.06-.097.04-.099.03-.104.02-.105.02-.107V172.407l-.02-.107-.02-.108-.03-.102-.04-.1-.06-.097-.05-.09-.07-.087-.07-.08-.08-.073-.09-.065-.09-.059-.09-.05-.11-.04-.1-.034-.1-.022-.11-.016-.11-.003h-17.708l-.107.003-.107.016-.105.022-.104.034-.1.04-.096.05-.092.059-.085.065-.081.073-.072.08-.066.087-.058.09-.051.097-.041.1-.032.102-.024.108-.014.107-.005.107v19.859Zm0 23.666.005.107.014.107.024.106.032.103.041.101.051.095.058.092.066.087.072.078.081.073.085.066.092.058.096.051.1.041.104.032.105.024.107.014.107.005h17.708l.11-.005.11-.014.1-.024.1-.032.11-.041.09-.051.09-.058.09-.066.08-.073.07-.078.07-.087.05-.092.06-.095.04-.101.03-.103.02-.106.02-.107V196.071l-.02-.107-.02-.106-.03-.103-.04-.101-.06-.095-.05-.092-.07-.085-.07-.08-.08-.073-.09-.066-.09-.058-.09-.051-.11-.041-.1-.032-.1-.024-.11-.014-.11-.005h-17.708l-.107.005-.107.014-.105.024-.104.032-.1.041-.096.051-.092.058-.085.066-.081.073-.072.08-.066.085-.058.092-.051.095-.041.101-.032.103-.024.106-.014.107-.005.109v19.859Zm133.218-75.464.01.108.01.107.02.107.04.102.04.1.05.097.06.09.06.087.07.08.09.073.08.065.09.06.1.049.1.041.1.032.11.024.11.015.1.004h14.81l.11-.004.11-.015.11-.024.1-.032.09-.041.1-.049.1-.06.08-.065.08-.073.07-.08.07-.087.06-.09.05-.097.04-.1.03-.102.03-.107.01-.107v-21.896l-.01-.107-.03-.105-.03-.104-.04-.1-.05-.096-.06-.091-.07-.086-.07-.079-.08-.074-.08-.066-.1-.058-.1-.051-.09-.041-.1-.032-.11-.024-.11-.013-.11-.006h-14.81l-.1.006-.11.013-.11.024-.1.032-.1.041-.1.051-.09.058-.08.066-.09.074-.07.079-.06.086-.06.091-.05.096-.04.1-.04.104-.02.105-.01.107-.01.109v21.679Zm0 54.776.01.109.01.108.02.105.04.104.04.1.05.095.06.092.06.085.07.08.09.073.08.067.09.058.1.049.1.042.1.033.11.024.11.013.1.005h8.61l.11-.005.1-.013.11-.024.1-.033.1-.042.1-.049.09-.058.08-.067.08-.073.08-.08.07-.085.05-.092.05-.095.04-.1.04-.104.02-.105.01-.108.01-.109v-8.713l-.01-.107-.01-.107-.02-.107-.04-.102-.04-.101-.05-.097-.05-.09-.07-.086-.08-.08-.08-.074-.08-.064-.09-.06-.1-.049-.1-.041-.1-.032-.11-.024-.1-.015-.11-.004h-8.61l-.1.004-.11.015-.11.024-.1.032-.1.041-.1.049-.09.06-.08.064-.09.074-.07.08-.06.086-.06.09-.05.097-.04.101-.04.102-.02.107-.01.107-.01.107v8.713Zm192.9-12.625.23-.936.43-1.953.25-1.308.48-2.921.17-1.141.2-1.829.28-3.525.06-.901.04-1.722.03-1.497-.03-1.507-.04-1.72-.05-.886-.29-3.542-.2-1.828-.21-1.399-.48-2.863-.21-1.116-.43-1.953-.23-.935-.93-3.467-.04-.099-.04-.095-.05-.092-.06-.087-.07-.083-.07-.077-.08-.071-.04-.032-.48-.225-.26-.024h-17.24l-.1.005-.11.016-.09.022-.1.029-.09.037-.1.046-.09.051-.08.058-.07.066-.08.072-.05.053-.06.083-.05.088-.05.09-.04.096-.02.095-.03.099-.01.1-.01.1v.102l.01.101.01.102.02.07.91 3.541.2.926.41 1.944.21 1.225.27 1.58.33 2.542.27 2.63.11 1.349.05 1.201.09 2.482-.09 4.7-.07 1.471-.15 1.673-.42 3.723-.36 2.202-.23 1.349-.41 1.968-.21.944-.91 3.574-.03.095-.01.094-.01.093-.01.094.01.09.01.092.01.087.03.086.03.085.04.08.05.079.04.074.06.072.05.068.06.063.07.058.07.054.08.048.08.044.08.036.08.032.1.024.09.019.09.01.1.003h17.26l.1-.007.11-.013.1-.024.1-.031.1-.037.09-.046.09-.054.05-.036.08-.068.08-.073.07-.08.06-.085.05-.089.05-.093.04-.099.02-.049.93-3.467Z" stroke="#fff" stroke-width=".5" stroke-linecap="round" stroke-linejoin="round"/><path d="m662.177 164.985.049-2.113.118-2.533.18-2.485.245-2.443.306-2.399.366-2.357.428-2.317.487-2.278.546-2.241.606-2.203.665-2.167.723-2.133.782-2.099.839-2.067.9-2.036.959-2.004 1.018-1.975 1.078-1.945 1.022-1.726 1.07-1.703 1.121-1.679 1.171-1.659 1.221-1.634 1.273-1.615 1.325-1.594 1.378-1.573 1.432-1.552 1.487-1.531 1.543-1.51 1.601-1.492 1.655-1.47 1.716-1.451 1.778-1.429 1.835-1.412 1.9-1.388 1.964-1.3677 2.026-1.3489 2.094-1.3269 2.16-1.3031 2.229-1.2843 2.299-1.2589 2.37-1.2401 2.443-1.2146 2.518-1.1908 2.59-1.1686 2.669-1.1415 2.748-1.1176 2.825-1.0921 2.906-1.0649 2.989-1.0377 3.072-1.0088 3.156-.9798 3.242-.9527 3.329-.9186 3.419-.8897 3.508-.859 3.596-.8234 3.692-.791 3.783-.7553 3.877-.7213 3.972-.6838 4.069-.6464 4.164-.6073 4.265-.5699 4.363-.5273 4.464-.4883 4.566-.444 4.669-.4014 4.774-.3573 4.882-.313 4.993-.267 5.107-.2212 5.227-.1701 5.354-.1208 5.474-.0714 4.002-.017m1.559 0h319.302l1.66-.0051M844.408 263.963h319.302l1.66.001m3.32-197.9555 1.46.0051 6.26.0561 6.1.1055 5.94.1531 5.79.2024 5.64.245 5.51.2926 5.38.3351 5.24.3793 5.11.4219 4.99.461 4.84.5018 4.74.5427 4.61.5784 4.49.6175 4.37.6549 4.25.689 4.15.7229 4.03.7587 3.93.7894 3.81.8233 3.72.854 3.61.8846 3.51.9135 3.41.9424 3.32.9696 3.23 1.0003 3.12 1.024 3.04 1.0513 2.95 1.0751 2.87 1.1024 2.78 1.1244 2.69 1.1483 2.62 1.1738 2.53 1.1924 2.46 1.2163 2.38 1.2385 2.31 1.2588 2.23 1.2826 2.17 1.2997 2.09 1.3218 2.03 1.3421 1.96 1.3609 1.9 1.381 1.84 1.402 1.76 1.421 1.71 1.439 1.65 1.459 1.58 1.48 1.54 1.499 1.48 1.519 1.42 1.538 1.37 1.56 1.31 1.578 1.27 1.601 1.21 1.621 1.15 1.644 1.11 1.663 1.06 1.688 1.01 1.711.96 1.734.92 1.757.86 1.783.82 1.808.85 2.04.8 2.073.73 2.106.68 2.142.62 2.177.57 2.213.5 2.253.44 2.293.38 2.332.32 2.377.26 2.417.2 2.463.13 2.511.07 2.181-.07 2.181-.13 2.509-.2 2.463-.26 2.419-.32 2.375-.38 2.334-.44 2.291-.5 2.252-.57 2.215-.62 2.178-.68 2.141-.73 2.106-.8 2.072-.85 2.042-.82 1.806-.86 1.783-.92 1.759-.96 1.733-1.01 1.71-1.06 1.688-1.11 1.665-1.15 1.643-1.21 1.621-1.27 1.601-1.31 1.579-1.37 1.558-1.42 1.54-1.48 1.519-1.54 1.498-1.58 1.479-1.65 1.459-1.71 1.441-1.76 1.42-1.84 1.4-1.9 1.382-1.96 1.362-2.03 1.341-2.09 1.322-2.17 1.301-2.23 1.281-2.31 1.259-2.38 1.238-2.46 1.216-2.53 1.196-2.62 1.171-2.69 1.15-2.78 1.124-2.87 1.101-2.95 1.077-3.04 1.051-3.12 1.024-3.23.999-3.32.971-3.41.942-3.51.914-3.61.884-3.72.854-3.81.822-3.93.791-4.03.757-4.15.725-4.25.689-4.37.655-4.49.615-4.61.58-4.74.541-4.84.504-4.99.461-5.11.422-5.24.377-5.38.336-5.51.292-5.64.247-5.79.201-5.94.154-6.1.106-6.26.056-1.46.007M767.701 116.212l-.002-3.314m0 104.173.002-3.313" stroke="#fff" stroke-width=".5" stroke-linecap="round" stroke-linejoin="round"/><path d="M1012.62 159.358h90.67m-90.67 16.88h74.47m123.56-25.527-.55-1.036-.78-1.354-.86-1.353-.82-1.184-1.08-1.452-1.08-1.38-1.1-1.318-1.14-1.268-1.16-1.226-1.35-1.322-1.4-1.29-1.48-1.269-1.57-1.258-1.68-1.263-1.82-1.275-1.97-1.305-2.15-1.354-2.4-1.421-2.68-1.521-1.89-1.034-.88-.464-2.79-1.443-2.78-1.361-2.5-1.162-2.52-1.114-2.57-1.073-2.62-1.041-2.71-1.018-2.83-1-2.97-.995-3.16-.999-3.39-1.015-3.7-1.048-3.66-.985-3.65-.924-3.63-.867-3.64-.81-4.04-.839-4.07-.772-4.08-.714-4.14-.652-4.19-.594-4.26-.537-4.34-.483-4.45-.426-4.56-.37-4.7-.315-4.87-.26-4.17-.174-4.43-.134-4.35-.079-4.29-.023-4.25.03-4.19.082-4.16.136-4.13.187-4.09.238-4.08.295-3.84.323v-2.8904l-197.083 9.7404v2.482m369.723 67.499-.55 1.034-.78 1.356-.86 1.351-.82 1.185-1.08 1.453-1.08 1.38-1.1 1.318-1.14 1.267-1.16 1.227-1.35 1.322-1.4 1.289-1.48 1.269-1.57 1.259-1.68 1.261-1.82 1.275-1.97 1.307-2.15 1.352-2.4 1.422-2.68 1.52-1.89 1.034-.88.466-2.79 1.442-2.78 1.36-2.5 1.163-2.52 1.114-2.57 1.074-2.62 1.041-2.71 1.015-2.83 1.002-2.97.996-3.16.998-3.39 1.014-3.7 1.05-3.66.985-3.65.923-3.63.866-3.64.812-4.04.838-4.07.774-4.08.711-4.14.654-4.19.593-4.26.538-4.34.481-4.45.425-4.56.371-4.7.317-4.87.26-4.17.174-4.43.132-4.35.078-4.29.024-4.25-.029-4.19-.081-4.16-.136-4.13-.187-4.09-.24-4.08-.291-3.84-.325v2.888l-197.086-9.74m-73.218-107.792 53.366-2.638v2.482m-53.366 104.329 53.366 2.639v-2.484m191.548-46.616h-62.055v5.628h-12.412v49.257m52.958-31.219h21.509m-21.509 23.665h95.979m-74.47-64.209h-74.467m74.467-18.039h21.52m-21.52-23.666h21.52v47.331m-170.457-37.401h31.03v-15.336m155.147 44.297h37.23m-223.407 30.947h62.059m18.617-77.699v49.566m68.261-50.457v125.902m74.47-127.472v126.56m-6.2-52.027v41.703m-89.779-47.331v57.503M863.683 110.636v82.482h6.206v29.004m-28.962-3.914v2.482m208.933-116.192v2.317m0-5.236v2.502m0 119.074v2.317m0 .416v2.501m18.62-127.249v2.501m0 .36v3.146m0 119.184v2.499m0-6.007v3.144m55.85-41.23h12.41v12.518h-12.41v-12.518Zm0-42.26h18.62v-25.484h-18.62v25.484ZM1364.92 164.985h-.17l-.06-2.161-.14-2.509-.19-2.463-.26-2.419-.32-2.375-.39-2.334-.43-2.291-.51-2.252-.56-2.215-.62-2.176-.67-2.142-.74-2.106-.79-2.073-.86-2.04-.81-1.808-.87-1.783-.91-1.757-.97-1.735-1.01-1.71-1.06-1.688-1.11-1.665-1.16-1.643-1.21-1.621-1.25-1.6-1.32-1.58-1.37-1.558-1.42-1.54-1.48-1.519-1.53-1.498-1.59-1.48-1.65-1.46-1.71-1.439-1.77-1.422-1.83-1.4-1.9-1.382-1.96-1.3605-2.03-1.3438-2.09-1.3218-2.17-1.3014-2.23-1.2809-2.31-1.2588-2.39-1.2384-2.45-1.2181-2.53-1.1941-2.62-1.1721-2.7-1.1483-2.78-1.1261-2.86-1.1023-2.95-1.0752-3.04-1.0529-3.14-1.0241-3.22-1.0003-3.31-.9696-3.41-.9424-3.52-.9152-3.61-.8846-3.71-.854-3.82-.8233-3.93-.791-4.03-.757-4.14-.7247-4.26-.6907-4.37-.6532-4.5-.6192-4.6-.5784-4.74-.5427-4.86-.5035-4.98-.461-5.1-.4219-5.24-.3793-5.38-.3368-5.5-.2926-5.65-.2467-5.79-.2007-5.94-.1548-6.09-.1038-6.24-.0578-1.46-.0051.13-.0085 1.46.0051 6.26.0578 6.1.1055 5.95.1531 5.79.2007 5.65.2467 5.51.2909 5.38.3351 5.24.3793 5.11.4202 4.99.461 4.85.5018 4.73.541 4.61.5801 4.49.6158 4.37.6532 4.25.689 4.15.7229 4.04.757 3.92.7911 3.81.8216 3.72.8523 3.6.8845 3.52.9135 3.41.9425 3.32.9713 3.22.9969 3.13 1.024 3.03 1.0513 2.95 1.0751 2.87 1.1007 2.78 1.1261 2.7 1.1483 2.61 1.1703 2.53 1.1942 2.46 1.2163 2.38 1.2384 2.31 1.2589 2.24 1.2809 2.16 1.3014 2.1 1.32 2.03 1.3422 1.96 1.3606 1.89 1.382 1.83 1.401 1.77 1.421 1.71 1.439 1.65 1.458 1.59 1.48 1.54 1.498 1.47 1.52 1.42 1.537 1.37 1.56 1.31 1.579 1.26 1.601 1.22 1.621 1.16 1.641 1.11 1.666 1.06 1.687 1 1.71.96 1.733.92 1.759.86 1.783.82 1.807.77 1.835.8 2.069.75 2.102.68 2.139.63 2.174.56 2.209.51 2.249.45 2.288.39 2.331.32 2.37.26 2.415.21 2.458.14 2.506.08 2.455Zm0 0-.08 2.454-.14 2.506-.21 2.458-.26 2.414-.32 2.372-.39 2.328-.45 2.288-.51 2.249-.56 2.212-.63 2.174-.68 2.136-.75 2.105-.8 2.068-.77 1.834-.82 1.808-.86 1.783-.92 1.757-.96 1.736-1 1.709-1.06 1.688-1.11 1.663-1.16 1.644-1.22 1.621-1.26 1.601-1.31 1.578-1.37 1.558-1.42 1.54-1.47 1.517-1.54 1.499-1.59 1.48-1.65 1.46-1.71 1.439-1.77 1.42-1.83 1.402-1.89 1.379-1.96 1.363-2.03 1.341-2.1 1.321-2.16 1.302-2.24 1.279-2.31 1.26-2.38 1.237-2.46 1.217-2.53 1.194-2.61 1.172-2.7 1.148-2.78 1.124-2.87 1.101-2.95 1.077-3.03 1.049-3.13 1.026-3.22.997-3.32.971-3.41.943-3.52.913-3.6.883-3.72.854-3.81.822-3.92.791-4.04.757-4.15.723-4.25.689-4.37.653-4.49.616-4.61.58-4.73.541-4.85.502-4.99.461-5.11.42-5.24.379-5.38.335-5.51.291-5.65.247-5.79.201-5.95.153-6.1.105-6.26.058-1.46.005m-5.05-197.9575-.04.0034h.04m1.66-.0068.07-.0017m0 197.9646-.07-.004m-1.66-.006h-.04l.04.005m1.66.007h.07" stroke="#fff" stroke-width=".5" stroke-linecap="round" stroke-linejoin="round"/><path d="m1364.75 164.985-.06 2.16-.14 2.509-.19 2.464-.26 2.419-.32 2.374-.39 2.333-.43 2.293-.51 2.252-.56 2.213-.62 2.178-.67 2.141-.74 2.106-.79 2.074-.86 2.04-.81 1.808-.87 1.783-.91 1.757-.97 1.733-1.01 1.712-1.06 1.687-1.11 1.664-1.16 1.643-1.21 1.621-1.25 1.601-1.32 1.58-1.37 1.559-1.42 1.539-1.48 1.519-1.53 1.499-1.59 1.478-1.65 1.46-1.71 1.441-1.77 1.42-1.83 1.402-1.9 1.381-1.96 1.363-2.03 1.34-2.09 1.322-2.17 1.301-2.23 1.281-2.31 1.261-2.39 1.238-2.45 1.217-2.53 1.195-2.62 1.172-2.7 1.149-2.78 1.126-2.86 1.1-2.95 1.077-3.04 1.052-3.14 1.025-3.22.999-3.31.971-3.41.943-3.52.915-3.61.884-3.71.854-3.82.824-3.93.791-4.03.757-4.14.724-4.26.689-4.37.655-4.5.618-4.6.58-4.74.543-4.86.501-4.98.463-5.1.422-5.24.379-5.38.337-5.5.291-5.65.247-5.79.2-5.94.155-6.09.106-6.24.058-1.46.005.13.008m-401.029-151.07v3.314l-.062.004V112.9l.037-.002m.025 104.175v-3.314l-.062-.003v3.314l.037.001m53.366-106.811v2.482m19.855-.982v-2.482m-19.855 107.948v2.484m19.855.98v-2.482" stroke="#fff" stroke-width=".5" stroke-linecap="round" stroke-linejoin="round"/><path clip-rule="evenodd" d="M1013.29 157.456v.107l.02.107.02.105.03.104.04.101.05.095.06.092.07.085.07.08.08.073.09.066.09.058.09.051.1.041.11.032.1.024.11.014.11.005h17.7l.11-.005.11-.014.11-.024.1-.032.1-.041.09-.051.1-.058.08-.066.08-.073.07-.08.07-.085.06-.092.05-.095.04-.101.03-.104.03-.105.01-.107.01-.107v-19.859l-.01-.109-.01-.107-.03-.106-.03-.104-.04-.1-.05-.095-.06-.092-.07-.085-.07-.08-.08-.073-.08-.067-.1-.057-.09-.051-.1-.041-.1-.033-.11-.023-.11-.014-.11-.005h-17.7l-.11.005-.11.014-.1.023-.11.033-.1.041-.09.051-.09.057-.09.067-.08.073-.07.08-.07.085-.06.092-.05.095-.04.1-.03.104-.02.106-.02.107V157.456Zm0-23.666v.108l.02.108.02.105.03.104.04.099.05.096.06.092.07.085.07.08.08.074.09.066.09.058.09.049.1.043.11.032.1.024.11.013.11.005h17.7l.11-.005.11-.013.11-.024.1-.032.1-.043.09-.049.1-.058.08-.066.08-.074.07-.08.07-.085.06-.092.05-.096.04-.099.03-.104.03-.105.01-.108.01-.108v-19.859l-.01-.107-.01-.108-.03-.107-.03-.102-.04-.1-.05-.097-.06-.09-.07-.087-.07-.08-.08-.073-.08-.065-.1-.059-.09-.05-.1-.041-.1-.034-.11-.022-.11-.015-.11-.003h-17.7l-.11.003-.11.015-.1.022-.11.034-.1.041-.09.05-.09.059-.09.065-.08.073-.07.08-.07.087-.06.09-.05.097-.04.1-.03.102-.02.107-.02.108v19.966Zm-21.517 58.583.005.109.013.107.024.105.033.104.04.099.051.097.058.092.067.085.071.08.082.073.085.066.092.058.095.049.1.043.104.032.106.024.107.014.107.005h17.707l.11-.005.11-.014.1-.024.11-.032.1-.043.09-.049.09-.058.09-.066.08-.073.07-.08.07-.085.05-.092.06-.097.04-.099.03-.104.02-.105.02-.107V172.407l-.02-.107-.02-.108-.03-.102-.04-.1-.06-.097-.05-.09-.07-.087-.07-.08-.08-.073-.09-.065-.09-.059-.09-.05-.1-.04-.11-.034-.1-.022-.11-.016-.11-.003h-17.707l-.107.003-.107.016-.106.022-.104.034-.1.04-.095.05-.092.059-.085.065-.082.073-.071.08-.067.087-.058.09-.051.097-.04.1-.033.102-.024.108-.013.107-.005.107v19.859Zm0 23.666.005.107.013.107.024.106.033.103.04.101.051.095.058.092.067.087.071.078.082.073.085.066.092.058.095.051.1.041.104.032.106.024.107.014.107.005h17.707l.11-.005.11-.014.1-.024.11-.032.1-.041.09-.051.09-.058.09-.066.08-.073.07-.078.07-.087.05-.092.06-.095.04-.101.03-.103.02-.106.02-.107V196.071l-.02-.107-.02-.106-.03-.103-.04-.101-.06-.095-.05-.092-.07-.085-.07-.08-.08-.073-.09-.066-.09-.058-.09-.051-.1-.041-.11-.032-.1-.024-.11-.014-.11-.005h-17.707l-.107.005-.107.014-.106.024-.104.032-.1.041-.095.051-.092.058-.085.066-.082.073-.071.08-.067.085-.058.092-.051.095-.04.101-.033.103-.024.106-.013.107-.005.109v19.859Zm133.217-20.688.01.109.01.107.02.106.04.104.04.1.05.095.06.092.06.085.07.08.09.073.08.067.09.058.1.049.1.042.1.033.11.024.11.013.1.005h8.61l.11-.005.1-.013.11-.024.1-.033.1-.042.1-.049.09-.058.08-.067.08-.073.08-.08.07-.085.05-.092.05-.095.04-.1.04-.104.02-.106.01-.107.01-.109v-8.713l-.01-.107-.01-.107-.02-.107-.04-.102-.04-.101-.05-.097-.05-.09-.07-.087-.08-.079-.08-.074-.08-.064-.09-.06-.1-.049-.1-.041-.1-.032-.11-.024-.1-.015-.11-.004h-8.61l-.1.004-.11.015-.11.024-.1.032-.1.041-.1.049-.09.06-.08.064-.09.074-.07.079-.06.087-.06.09-.05.097-.04.101-.04.102-.02.107-.01.107-.01.107v8.713ZM816.629 113.79l-.014-3.309 3.203-.158v3.31l-3.189.157Z" stroke="#fff" stroke-width=".5" stroke-linecap="round" stroke-linejoin="round" stroke-dasharray="17.52 8.76 0.02 8.76"/><path clip-rule="evenodd" d="m816.615 110.481.015 3.309-3.744.185-.014-3.31 3.743-.184Z" stroke="#fff" stroke-width=".5" stroke-linecap="round" stroke-linejoin="round" stroke-dasharray="17.52 8.76 0.02 8.76"/><path clip-rule="evenodd" d="m812.873 110.664.015 3.311-3.168.156-.015-3.31 3.168-.157Z" stroke="#fff" stroke-width=".5" stroke-linecap="round" stroke-linejoin="round" stroke-dasharray="17.52 8.76 0.02 8.76"/><path clip-rule="evenodd" d="m809.705 110.821.015 3.31-2.893.143-.016-3.31 2.894-.143Z" stroke="#fff" stroke-width=".5" stroke-linecap="round" stroke-linejoin="round" stroke-dasharray="17.52 8.76 0.02 8.76"/><path clip-rule="evenodd" d="m806.811 110.964.016 3.31-2.681.133-.016-3.31 2.681-.133Z" stroke="#fff" stroke-width=".5" stroke-linecap="round" stroke-linejoin="round" stroke-dasharray="17.52 8.76 0.02 8.76"/><path clip-rule="evenodd" d="m804.13 111.097.016 3.31-2.516.126-.017-3.311 2.517-.125Z" stroke="#fff" stroke-width=".5" stroke-linecap="round" stroke-linejoin="round" stroke-dasharray="17.52 8.76 0.02 8.76"/><path clip-rule="evenodd" d="m801.613 111.222.017 3.309-2.397.119-.017-3.31 2.397-.118Z" stroke="#fff" stroke-width=".5" stroke-linecap="round" stroke-linejoin="round" stroke-dasharray="17.52 8.76 0.02 8.76"/><path clip-rule="evenodd" d="m799.218 111.34.017 3.31-2.312.114-.017-3.31 2.312-.114Z" stroke="#fff" stroke-width=".5" stroke-linecap="round" stroke-linejoin="round" stroke-dasharray="17.52 8.76 0.02 8.76"/><path clip-rule="evenodd" d="m796.908 111.454.017 3.31-2.254.113-.017-3.311 2.254-.112ZM794.653 111.566l.017 3.31-2.218.109-.019-3.31 2.22-.109Z" stroke="#fff" stroke-width=".5" stroke-linecap="round" stroke-linejoin="round" stroke-dasharray="17.52 8.76 0.02 8.76"/><path clip-rule="evenodd" d="m792.435 111.675.017 3.31-1.997.101-.019-3.312 1.999-.099Z" stroke="#fff" stroke-width=".5" stroke-linecap="round" stroke-linejoin="round" stroke-dasharray="17.52 8.76 0.02 8.76"/><path clip-rule="evenodd" d="m790.437 111.774.018 3.312-1.823.09-.021-3.312 1.826-.09Z" stroke="#fff" stroke-width=".5" stroke-linecap="round" stroke-linejoin="round" stroke-dasharray="17.52 8.76 0.02 8.76"/><path clip-rule="evenodd" d="m788.613 111.864.019 3.312-1.674.082-.019-3.311 1.674-.083Z" stroke="#fff" stroke-width=".5" stroke-linecap="round" stroke-linejoin="round" stroke-dasharray="17.52 8.76 0.02 8.76"/><path clip-rule="evenodd" d="m786.941 111.947.018 3.311-1.546.076-.019-3.31 1.547-.077Z" stroke="#fff" stroke-width=".5" stroke-linecap="round" stroke-linejoin="round" stroke-dasharray="17.52 8.76 0.02 8.76"/><path clip-rule="evenodd" d="m785.396 112.024.019 3.31-1.434.072-.019-3.313 1.434-.069Z" stroke="#fff" stroke-width=".5" stroke-linecap="round" stroke-linejoin="round" stroke-dasharray="17.52 8.76 0.02 8.76"/><path clip-rule="evenodd" d="m783.964 112.094.018 3.312-1.338.066-.019-3.312 1.339-.066Z" stroke="#fff" stroke-width=".5" stroke-linecap="round" stroke-linejoin="round" stroke-dasharray="17.52 8.76 0.02 8.76"/><path clip-rule="evenodd" d="m782.627 112.16.018 3.312-1.257.061-.018-3.31 1.257-.063Z" stroke="#fff" stroke-width=".5" stroke-linecap="round" stroke-linejoin="round" stroke-dasharray="17.52 8.76 0.02 8.76"/><path clip-rule="evenodd" d="m781.371 112.223.019 3.31-1.189.06-.019-3.312 1.189-.058Z" stroke="#fff" stroke-width=".5" stroke-linecap="round" stroke-linejoin="round" stroke-dasharray="17.52 8.76 0.02 8.76"/><path clip-rule="evenodd" d="m780.185 112.281.019 3.312-1.129.056-.019-3.312 1.129-.056Z" stroke="#fff" stroke-width=".5" stroke-linecap="round" stroke-linejoin="round" stroke-dasharray="17.52 8.76 0.02 8.76"/><path clip-rule="evenodd" d="m779.059 112.337.019 3.312-1.078.053-.019-3.313 1.078-.052Z" stroke="#fff" stroke-width=".5" stroke-linecap="round" stroke-linejoin="round" stroke-dasharray="17.52 8.76 0.02 8.76"/><path clip-rule="evenodd" d="m777.984 112.39.019 3.312-1.034.051-.019-3.312 1.034-.051Z" stroke="#fff" stroke-width=".5" stroke-linecap="round" stroke-linejoin="round" stroke-dasharray="17.52 8.76 0.02 8.76"/><path clip-rule="evenodd" d="m776.953 112.44.017 3.313-1.059.052-.017-3.312 1.059-.053Z" stroke="#fff" stroke-width=".5" stroke-linecap="round" stroke-linejoin="round" stroke-dasharray="17.52 8.76 0.02 8.76"/><path clip-rule="evenodd" d="m775.897 112.493.017 3.312-1.068.053-.017-3.312 1.068-.053Z" stroke="#fff" stroke-width=".5" stroke-linecap="round" stroke-linejoin="round" stroke-dasharray="17.52 8.76 0.02 8.76"/><path clip-rule="evenodd" d="m774.832 112.546.017 3.312-1.08.053-.017-3.312 1.08-.053Z" stroke="#fff" stroke-width=".5" stroke-linecap="round" stroke-linejoin="round" stroke-dasharray="17.52 8.76 0.02 8.76"/><path clip-rule="evenodd" d="m773.755 112.599.019 3.312-1.104.054-.019-3.312 1.104-.054Z" stroke="#fff" stroke-width=".5" stroke-linecap="round" stroke-linejoin="round" stroke-dasharray="17.52 8.76 0.02 8.76"/><path clip-rule="evenodd" d="m772.656 112.653.017 3.312-1.141.056-.015-3.312 1.139-.056Z" stroke="#fff" stroke-width=".5" stroke-linecap="round" stroke-linejoin="round" stroke-dasharray="17.52 8.76 0.02 8.76"/><path clip-rule="evenodd" d="m771.52 112.709.017 3.312-1.199.06-.017-3.312 1.199-.06Z" stroke="#fff" stroke-width=".5" stroke-linecap="round" stroke-linejoin="round" stroke-dasharray="17.52 8.76 0.02 8.76"/><path clip-rule="evenodd" d="m770.326 112.769.015 3.312-1.284.065-.015-3.314 1.284-.063Z" stroke="#fff" stroke-width=".5" stroke-linecap="round" stroke-linejoin="round" stroke-dasharray="17.52 8.76 0.02 8.76"/><path clip-rule="evenodd" d="m769.045 112.832.017 3.312-1.405.07-.017-3.313 1.405-.069Z" stroke="#fff" stroke-width=".5" stroke-linecap="round" stroke-linejoin="round" stroke-dasharray="17.52 8.76 0.02 8.76"/><path clip-rule="evenodd" d="m767.643 112.9.009 3.315-.126.005-.009-3.313.126-.007Zm48.986 103.278 3.189.158v3.311l-3.203-.158.014-3.311Z" stroke="#fff" stroke-width=".5" stroke-linecap="round" stroke-linejoin="round" stroke-dasharray="17.52 8.76 0.02 8.76"/><path clip-rule="evenodd" d="m816.615 219.489-3.743-.186.014-3.308 3.744.183-.015 3.311Z" stroke="#fff" stroke-width=".5" stroke-linecap="round" stroke-linejoin="round" stroke-dasharray="17.52 8.76 0.02 8.76"/><path clip-rule="evenodd" d="m812.873 219.303-3.168-.156.015-3.309 3.168.156-.015 3.309Z" stroke="#fff" stroke-width=".5" stroke-linecap="round" stroke-linejoin="round" stroke-dasharray="17.52 8.76 0.02 8.76"/><path clip-rule="evenodd" d="m809.705 219.147-2.894-.143.016-3.311 2.893.145-.015 3.309Z" stroke="#fff" stroke-width=".5" stroke-linecap="round" stroke-linejoin="round" stroke-dasharray="17.52 8.76 0.02 8.76"/><path d="m804.13 218.871 2.681.133.016-3.311-2.681-.132m-.016 3.31.016-3.31m-.016 3.31-2.517-.124.017-3.31 2.516.124" stroke="#fff" stroke-width=".5" stroke-linecap="round" stroke-linejoin="round" stroke-dasharray="17.52 8.76 0.02 8.76"/><path clip-rule="evenodd" d="m801.613 218.747-2.397-.117.017-3.311 2.397.118-.017 3.31Z" stroke="#fff" stroke-width=".5" stroke-linecap="round" stroke-linejoin="round" stroke-dasharray="17.52 8.76 0.02 8.76"/><path clip-rule="evenodd" d="m799.218 218.629-2.312-.115.017-3.311 2.312.116-.017 3.31Z" stroke="#fff" stroke-width=".5" stroke-linecap="round" stroke-linejoin="round" stroke-dasharray="17.52 8.76 0.02 8.76"/><path clip-rule="evenodd" d="m796.908 218.514-2.254-.111.017-3.31 2.254.11-.017 3.311ZM794.653 218.403l-2.22-.109.019-3.312 2.218.111-.017 3.31Z" stroke="#fff" stroke-width=".5" stroke-linecap="round" stroke-linejoin="round" stroke-dasharray="17.52 8.76 0.02 8.76"/><path clip-rule="evenodd" d="m792.435 218.294-1.999-.1.019-3.31 1.997.098-.017 3.312Z" stroke="#fff" stroke-width=".5" stroke-linecap="round" stroke-linejoin="round" stroke-dasharray="17.52 8.76 0.02 8.76"/><path clip-rule="evenodd" d="m790.437 218.196-1.826-.09.021-3.312 1.823.09-.018 3.312Z" stroke="#fff" stroke-width=".5" stroke-linecap="round" stroke-linejoin="round" stroke-dasharray="17.52 8.76 0.02 8.76"/><path clip-rule="evenodd" d="m788.613 218.106-1.674-.084.019-3.312 1.674.083-.019 3.313Z" stroke="#fff" stroke-width=".5" stroke-linecap="round" stroke-linejoin="round" stroke-dasharray="17.52 8.76 0.02 8.76"/><path clip-rule="evenodd" d="m786.941 218.022-1.547-.076.019-3.312 1.546.076-.018 3.312Z" stroke="#fff" stroke-width=".5" stroke-linecap="round" stroke-linejoin="round" stroke-dasharray="17.52 8.76 0.02 8.76"/><path clip-rule="evenodd" d="m785.396 217.946-1.434-.072.019-3.31 1.434.071-.019 3.311Z" stroke="#fff" stroke-width=".5" stroke-linecap="round" stroke-linejoin="round" stroke-dasharray="17.52 8.76 0.02 8.76"/><path clip-rule="evenodd" d="m783.964 217.874-1.339-.064.019-3.312 1.338.066-.018 3.31Z" stroke="#fff" stroke-width=".5" stroke-linecap="round" stroke-linejoin="round" stroke-dasharray="17.52 8.76 0.02 8.76"/><path clip-rule="evenodd" d="m782.627 217.81-1.257-.063.018-3.312 1.257.063-.018 3.312Z" stroke="#fff" stroke-width=".5" stroke-linecap="round" stroke-linejoin="round" stroke-dasharray="17.52 8.76 0.02 8.76"/><path clip-rule="evenodd" d="m781.371 217.747-1.189-.058.019-3.312 1.189.058-.019 3.312Z" stroke="#fff" stroke-width=".5" stroke-linecap="round" stroke-linejoin="round" stroke-dasharray="17.52 8.76 0.02 8.76"/><path clip-rule="evenodd" d="m780.185 217.689-1.129-.056.019-3.312 1.129.056-.019 3.312Z" stroke="#fff" stroke-width=".5" stroke-linecap="round" stroke-linejoin="round" stroke-dasharray="17.52 8.76 0.02 8.76"/><path clip-rule="evenodd" d="m779.059 217.633-1.078-.053.019-3.312 1.078.053-.019 3.312Z" stroke="#fff" stroke-width=".5" stroke-linecap="round" stroke-linejoin="round" stroke-dasharray="17.52 8.76 0.02 8.76"/><path clip-rule="evenodd" d="m777.984 217.58-1.034-.051.019-3.312 1.034.051-.019 3.312Z" stroke="#fff" stroke-width=".5" stroke-linecap="round" stroke-linejoin="round" stroke-dasharray="17.52 8.76 0.02 8.76"/><path clip-rule="evenodd" d="m776.953 217.529-1.059-.053.017-3.312 1.059.053-.017 3.312Z" stroke="#fff" stroke-width=".5" stroke-linecap="round" stroke-linejoin="round" stroke-dasharray="17.52 8.76 0.02 8.76"/><path clip-rule="evenodd" d="m775.897 217.476-1.068-.053.017-3.312 1.068.053-.017 3.312Z" stroke="#fff" stroke-width=".5" stroke-linecap="round" stroke-linejoin="round" stroke-dasharray="17.52 8.76 0.02 8.76"/><path clip-rule="evenodd" d="m774.832 217.424-1.08-.053.017-3.312 1.08.052-.017 3.313Z" stroke="#fff" stroke-width=".5" stroke-linecap="round" stroke-linejoin="round" stroke-dasharray="17.52 8.76 0.02 8.76"/><path clip-rule="evenodd" d="m773.755 217.371-1.104-.055.019-3.314 1.104.057-.019 3.312Z" stroke="#fff" stroke-width=".5" stroke-linecap="round" stroke-linejoin="round" stroke-dasharray="17.52 8.76 0.02 8.76"/><path clip-rule="evenodd" d="m772.656 217.316-1.139-.056.015-3.314 1.141.058-.017 3.312Z" stroke="#fff" stroke-width=".5" stroke-linecap="round" stroke-linejoin="round" stroke-dasharray="17.52 8.76 0.02 8.76"/><path clip-rule="evenodd" d="m771.52 217.26-1.199-.059.017-3.313 1.199.058-.017 3.314Z" stroke="#fff" stroke-width=".5" stroke-linecap="round" stroke-linejoin="round" stroke-dasharray="17.52 8.76 0.02 8.76"/><path clip-rule="evenodd" d="m770.326 217.201-1.284-.063.015-3.314 1.284.065-.015 3.312Z" stroke="#fff" stroke-width=".5" stroke-linecap="round" stroke-linejoin="round" stroke-dasharray="17.52 8.76 0.02 8.76"/><path clip-rule="evenodd" d="m769.045 217.138-1.405-.07.017-3.314 1.405.07-.017 3.314Z" stroke="#fff" stroke-width=".5" stroke-linecap="round" stroke-linejoin="round" stroke-dasharray="17.52 8.76 0.02 8.76"/><path d="m1110.63 226.026-.74-4.896m-.8.216.82-.107m-.7.954.82-.107m.6-118.143-.74 4.896m-.8-.218.82.108m-.7-.953.82.107M968.025 216.866h-21.598c-.329-.001-.644-.132-.876-.365-.233-.233-.364-.548-.364-.877v-17.956c.001-.328.132-.644.364-.876.232-.232.548-.363.876-.364h21.598m-6.31 9.515h1.096m0-8.275h-1.902" stroke="#fff" stroke-width=".5" stroke-linecap="round" stroke-linejoin="round"/><path d="M963.059 205.943v-8.275" stroke="#fff" stroke-width=".5" stroke-linecap="round" stroke-linejoin="round" stroke-dasharray="6.57 8.76"/><path d="M966.618 205.943h-1.904v-8.275h1.904" stroke="#fff" stroke-width=".5" stroke-linecap="round" stroke-linejoin="round"/><path d="M966.866 205.943v-8.275" stroke="#fff" stroke-width=".5" stroke-linecap="round" stroke-linejoin="round" stroke-dasharray="6.57 8.76"/><path d="M968.522 205.943h-1.904v-8.275h1.904" stroke="#fff" stroke-width=".5" stroke-linecap="round" stroke-linejoin="round"/><path d="M968.77 205.943v-8.275" stroke="#fff" stroke-width=".5" stroke-linecap="round" stroke-linejoin="round" stroke-dasharray="6.57 8.76"/><path d="M964.714 205.943h-1.903v-8.275h1.903m3.808 8.275v-8.275h1.034v8.275h-1.034Z" stroke="#fff" stroke-width=".5" stroke-linecap="round" stroke-linejoin="round"/><path d="M964.963 205.943v-8.275" stroke="#fff" stroke-width=".5" stroke-linecap="round" stroke-linejoin="round" stroke-dasharray="6.57 8.76"/><path d="M969.265 205.943v9.681" stroke="#fff" stroke-width=".5" stroke-linecap="round" stroke-linejoin="round"/><path d="M969.265 197.668v8.275" stroke="#fff" stroke-width=".5" stroke-linecap="round" stroke-linejoin="round" stroke-dasharray="6.57 8.76"/><path d="M968.025 216.865c.329 0 .644-.131.877-.364.232-.233.363-.548.363-.877m0-17.956c-.001-.328-.131-.644-.364-.876-.232-.233-.547-.363-.876-.364" stroke="#fff" stroke-width=".5" stroke-linecap="round" stroke-linejoin="round"/><path d="m959.444 196.428 2.094 10.729m-1.68-10.729 2.094 10.729" stroke="#fff" stroke-width=".5" stroke-linecap="round" stroke-linejoin="round" stroke-dasharray="17.52 8.76 0.02 8.76"/><path clip-rule="evenodd" d="m962.605 201.805 4.137 2.018v-1.21h4.054v-1.614h-4.054v-1.211l-4.137 2.017Z" stroke="#fff" stroke-width=".5" stroke-linecap="round" stroke-linejoin="round"/><path d="M972.397 200.651h-.25c0 .138.112.25.25.25v-.25Zm0-1.797v-.25c-.138 0-.25.112-.25.25h.25Zm1.026.108-.125.216.001.001.124-.217Zm.285.308-.224.111.224-.111Zm0 .962.224.112v-.001l-.224-.111Zm-.292.311.123.218.001-.001-.124-.217Zm-.802-.085h-.25c0 .138.112.25.25.25v-.25Zm.912-1.084-.228.103.228-.103Zm-.212-.242-.129.214.001.001.128-.215Zm-.7-.085v-.25c-.138 0-.25.112-.25.25h.25Zm.337 1.604v-.25h-.554v.5h.554v-.25Zm-.554 0h.25v-1.797h-.5v1.797h.25Zm0-1.797v.25h.579v-.5h-.579v.25Zm.579 0v.25c.139 0 .243.029.322.074l.125-.216.126-.216c-.17-.099-.364-.142-.573-.142v.25Zm.447.108-.124.217c.079.045.14.11.185.202l.224-.111.225-.111c-.087-.176-.216-.317-.385-.414l-.125.217Zm.285.308-.224.111c.046.091.074.211.074.368h.5c0-.215-.039-.415-.126-.59l-.224.111Zm.1.479h-.25c0 .158-.029.279-.075.373l.225.11.224.111c.087-.177.126-.378.126-.594h-.25Zm-.1.483-.224-.111c-.046.091-.108.158-.191.205l.123.217.124.217c.172-.097.303-.238.392-.416l-.224-.112Zm-.292.311-.123-.218c-.081.047-.192.076-.342.076v.5c.215 0 .415-.042.588-.14l-.123-.218Zm-.802-.085v.25h.323v-.5h-.323v.25Zm.323 0v.25c.18 0 .35-.035.496-.12l-.126-.216-.127-.216c-.049.029-.125.052-.243.052v.25Zm.37-.086.126.216c.144-.085.251-.206.32-.358l-.228-.103-.228-.103c-.027.06-.065.102-.117.132l.127.216Zm.218-.245.228.103c.066-.145.094-.308.094-.481h-.5c0 .12-.02.209-.05.275l.228.103Zm.072-.378h.25c0-.172-.028-.333-.093-.478l-.228.103-.228.103c.03.065.049.153.049.272h.25Zm-.071-.375.228-.102c-.067-.15-.172-.271-.312-.355l-.128.215-.128.215c.047.028.084.069.112.13l.228-.103Zm-.212-.242.129-.214c-.143-.086-.308-.121-.481-.121v.5c.107 0 .177.022.223.049l.129-.214Zm-.352-.085v-.25h-.348v.5h.348v-.25Zm-.348 0h-.25v1.411h.5v-1.411h-.25Zm2.984-.193h.25c0-.138-.112-.25-.25-.25v.25Zm0 1.797v.25c.138 0 .25-.112.25-.25h-.25Zm-.211 0-.205.143c.046.067.123.107.205.107v-.25Zm-.979-1.411.205-.142c-.047-.068-.123-.108-.205-.108v.25Zm-.018 0v-.25c-.138 0-.25.112-.25.25h.25Zm0 1.411v.25c.138 0 .25-.112.25-.25h-.25Zm-.217 0h-.25c0 .138.112.25.25.25v-.25Zm0-1.797v-.25c-.138 0-.25.112-.25.25h.25Zm.21 0 .206-.143c-.047-.067-.124-.107-.206-.107v.25Zm.983 1.414-.205.143c.046.067.123.107.205.107v-.25Zm.018 0v.25c.138 0 .25-.111.25-.25h-.25Zm0-1.414v-.25c-.138 0-.25.112-.25.25h.25Zm.214 0h-.25v1.797h.5v-1.797h-.25Zm0 1.797v-.25h-.211v.5h.211v-.25Zm-.211 0 .205-.142-.979-1.411-.205.142-.206.143.98 1.411.205-.143Zm-.979-1.411v-.25h-.018v.5h.018v-.25Zm-.018 0h-.25v1.411h.5v-1.411h-.25Zm0 1.411v-.25h-.217v.5h.217v-.25Zm-.217 0h.25v-1.797h-.5v1.797h.25Zm0-1.797v.25h.21v-.5h-.21v.25Zm.21 0-.205.143.983 1.414.205-.143.205-.142-.982-1.415-.206.143Zm.983 1.414v.25h.018v-.5h-.018v.25Zm.018 0h.25v-1.414h-.5v1.414h.25Zm0-1.414v.25h.214v-.5h-.214v.25Z" fill="#fff"/><path d="M960.101 197.668h.808v4.139" stroke="#fff" stroke-width=".5" stroke-linecap="round" stroke-linejoin="round"/><path d="M961.157 203.08v-5.412" stroke="#fff" stroke-width=".5" stroke-linecap="round" stroke-linejoin="round" stroke-dasharray="6.57 8.76"/><path d="M1053.43 127.46v-13.255" stroke="#fff" stroke-width=".5" stroke-linecap="round" stroke-linejoin="round"/><path d="M1053.43 135.941v-10.136" stroke="#fff" stroke-width=".5" stroke-linecap="round" stroke-linejoin="round" stroke-dasharray="6.57 8.76"/><path d="M1053.43 114.205c0-.33.13-.646.37-.879.23-.232.55-.363.87-.363h30.77c.33 0 .64.131.88.364.23.233.36.548.36.878v23.143m-26.17-11.544h-2.07" stroke="#fff" stroke-width=".5" stroke-linecap="round" stroke-linejoin="round"/><path d="M1058.19 125.805v10.136" stroke="#fff" stroke-width=".5" stroke-linecap="round" stroke-linejoin="round" stroke-dasharray="6.57 8.76"/><path d="M1056.37 125.805h2.07v10.136h-2.07" stroke="#fff" stroke-width=".5" stroke-linecap="round" stroke-linejoin="round"/><path d="M1056.12 125.805v10.136" stroke="#fff" stroke-width=".5" stroke-linecap="round" stroke-linejoin="round" stroke-dasharray="6.57 8.76"/><path d="M1054.3 125.805h2.07v10.136h-2.07" stroke="#fff" stroke-width=".5" stroke-linecap="round" stroke-linejoin="round"/><path d="M1054.05 125.805v10.136" stroke="#fff" stroke-width=".5" stroke-linecap="round" stroke-linejoin="round" stroke-dasharray="6.57 8.76"/><path d="M1053.43 137.348c0 .329.13.645.37.877.23.233.55.363.87.363m6.91-12.783h-1.07m-6.21 0v10.136h-1.28v-10.136h1.28Z" stroke="#fff" stroke-width=".5" stroke-linecap="round" stroke-linejoin="round"/><path clip-rule="evenodd" d="m1059.47 130.874-3.8 2.017v-1.211h-3.89v-1.614h3.89v-1.211l3.8 2.019Z" stroke="#fff" stroke-width=".5" stroke-linecap="round" stroke-linejoin="round"/><path d="M1044.47 129.718h-.25c0 .138.11.25.25.25v-.25Zm0-1.797v-.25c-.14 0-.25.112-.25.25h.25Zm1.02.108-.12.216.12-.216Zm.29.308-.23.11v.001l.23-.111Zm0 .962.22.111-.22-.111Zm-.29.311.12.218v-.001l-.12-.217Zm-.81-.085h-.25c0 .138.12.25.25.25v-.25Zm.92-1.084-.23.103.23-.103Zm-.22-.242-.13.214h.01l.12-.214Zm-.7-.085v-.25c-.13 0-.25.112-.25.25h.25Zm.34 1.604v-.25h-.55v.5h.55v-.25Zm-.55 0h.25v-1.797h-.5v1.797h.25Zm0-1.797v.25h.58v-.5h-.58v.25Zm.58 0v.25c.14 0 .24.028.32.074l.12-.216.13-.217c-.17-.098-.37-.141-.57-.141v.25Zm.44.108-.12.216c.08.046.14.111.18.202l.23-.11.22-.111c-.08-.176-.21-.317-.38-.414l-.13.217Zm.29.308-.23.111c.05.091.08.211.08.368h.5c0-.216-.04-.415-.13-.59l-.22.111Zm.1.479h-.25c0 .158-.03.279-.08.373l.23.11.22.111c.09-.177.13-.378.13-.594h-.25Zm-.1.483-.23-.111c-.04.091-.1.157-.19.204l.13.218.12.217c.17-.098.3-.239.39-.417l-.22-.111Zm-.29.311-.13-.218c-.08.046-.19.076-.34.076v.5c.22 0 .42-.043.59-.14l-.12-.218Zm-.81-.085v.25h.33v-.5h-.33v.25Zm.33 0v.25c.18 0 .35-.035.49-.121l-.12-.215-.13-.216c-.05.029-.13.052-.24.052v.25Zm.37-.086.12.215c.15-.084.25-.205.32-.357l-.23-.103-.22-.103c-.03.06-.07.102-.12.132l.13.216Zm.21-.245.23.103c.07-.146.1-.308.1-.481h-.5c0 .119-.02.208-.05.275l.22.103Zm.08-.378h.25c0-.172-.03-.334-.1-.478l-.22.103-.23.103c.03.065.05.153.05.272h.25Zm-.07-.375.22-.103c-.06-.149-.17-.27-.31-.354l-.13.215-.12.214c.04.029.08.069.11.131l.23-.103Zm-.22-.242.13-.214c-.14-.086-.31-.121-.48-.121v.5c.11 0 .18.021.22.049l.13-.214Zm-.35-.085v-.25h-.35v.5h.35v-.25Zm-.35 0h-.25v1.411h.5v-1.411h-.25Zm2.99-.193h.25c0-.138-.11-.25-.25-.25v.25Zm0 1.797v.25c.14 0 .25-.112.25-.25h-.25Zm-.21 0-.21.142c.05.068.12.108.21.108v-.25Zm-.98-1.411.2-.143c-.04-.067-.12-.107-.2-.107v.25Zm-.02 0v-.25c-.14 0-.25.112-.25.25h.25Zm0 1.411v.25c.14 0 .25-.112.25-.25h-.25Zm-.22 0h-.25c0 .138.11.25.25.25v-.25Zm0-1.797v-.25c-.14 0-.25.112-.25.25h.25Zm.21 0 .21-.143c-.05-.067-.13-.107-.21-.107v.25Zm.99 1.414-.21.143c.05.067.12.107.21.107v-.25Zm.01 0v.25c.14 0 .25-.112.25-.25h-.25Zm0-1.414v-.25c-.13 0-.25.112-.25.25h.25Zm.22 0h-.25v1.797h.5v-1.797h-.25Zm0 1.797v-.25h-.21v.5h.21v-.25Zm-.21 0 .2-.143-.98-1.411-.2.143-.21.142.98 1.411.21-.142Zm-.98-1.411v-.25h-.02v.5h.02v-.25Zm-.02 0h-.25v1.411h.5v-1.411h-.25Zm0 1.411v-.25h-.22v.5h.22v-.25Zm-.22 0h.25v-1.797h-.5v1.797h.25Zm0-1.797v.25h.21v-.5h-.21v.25Zm.21 0-.2.142.98 1.415.21-.143.2-.143-.98-1.414-.21.143Zm.99 1.414v.25h.01v-.5h-.01v.25Zm.01 0h.25v-1.414h-.5v1.414h.25Zm0-1.414v.25h.22v-.5h-.22v.25Z" fill="#fff"/><path d="m1062.25 124.59-2.66 12.592m2.25-12.592-2.67 12.592" stroke="#fff" stroke-width=".5" stroke-linecap="round" stroke-linejoin="round" stroke-dasharray="17.52 8.76 0.02 8.76"/><path d="M1058.44 135.941h1m1.07-5.896v-4.24" stroke="#fff" stroke-width=".5" stroke-linecap="round" stroke-linejoin="round"/><path d="M1060.26 125.805v5.414" stroke="#fff" stroke-width=".5" stroke-linecap="round" stroke-linejoin="round" stroke-dasharray="6.57 8.76"/><path d="M1073.27 149.445h10.76V127.46h-10.76m-.41 10.137v1.711" stroke="#fff" stroke-width=".5" stroke-linecap="round" stroke-linejoin="round"/><path d="M1072.86 127.46v10.137m0 1.711v10.137" stroke="#fff" stroke-width=".5" stroke-linecap="round" stroke-linejoin="round" stroke-dasharray="6.57 8.76"/><path d="M1064.65 137.597h2.06V127.46h-2.06" stroke="#fff" stroke-width=".5" stroke-linecap="round" stroke-linejoin="round"/><path d="M1066.47 127.46v10.137" stroke="#fff" stroke-width=".5" stroke-linecap="round" stroke-linejoin="round" stroke-dasharray="6.57 8.76"/><path d="M1067.86 149.445h-2.07v-10.137h2.07" stroke="#fff" stroke-width=".5" stroke-linecap="round" stroke-linejoin="round"/><path d="M1068.1 149.445v-10.137" stroke="#fff" stroke-width=".5" stroke-linecap="round" stroke-linejoin="round" stroke-dasharray="6.57 8.76"/><path d="M1069.92 149.445h-2.06v-10.137h2.06" stroke="#fff" stroke-width=".5" stroke-linecap="round" stroke-linejoin="round"/><path d="M1070.17 149.445v-10.137" stroke="#fff" stroke-width=".5" stroke-linecap="round" stroke-linejoin="round" stroke-dasharray="6.57 8.76"/><path d="M1071.99 149.445h-2.07v-10.137h2.07" stroke="#fff" stroke-width=".5" stroke-linecap="round" stroke-linejoin="round"/><path d="M1072.24 149.445v-10.137" stroke="#fff" stroke-width=".5" stroke-linecap="round" stroke-linejoin="round" stroke-dasharray="6.57 8.76"/><path d="M1070.85 137.597h2.42V127.46h-2.42m1.14 21.985v-10.137h1.28v10.137h-1.28Z" stroke="#fff" stroke-width=".5" stroke-linecap="round" stroke-linejoin="round"/><path d="M1070.6 137.597V127.46" stroke="#fff" stroke-width=".5" stroke-linecap="round" stroke-linejoin="round" stroke-dasharray="6.57 8.76"/><path d="M1068.78 137.597h2.07V127.46h-2.07" stroke="#fff" stroke-width=".5" stroke-linecap="round" stroke-linejoin="round"/><path d="M1068.53 137.597V127.46" stroke="#fff" stroke-width=".5" stroke-linecap="round" stroke-linejoin="round" stroke-dasharray="6.57 8.76"/><path d="M1066.71 137.597h2.07V127.46h-2.07m-13.33 21.985v-10.137" stroke="#fff" stroke-width=".5" stroke-linecap="round" stroke-linejoin="round"/><path d="M1053.62 139.308v10.137" stroke="#fff" stroke-width=".5" stroke-linecap="round" stroke-linejoin="round" stroke-dasharray="6.57 8.76"/><path d="M1053.38 149.445h2.06m0-10.137h-2.06" stroke="#fff" stroke-width=".5" stroke-linecap="round" stroke-linejoin="round"/><path d="M1055.69 149.445v-10.137" stroke="#fff" stroke-width=".5" stroke-linecap="round" stroke-linejoin="round" stroke-dasharray="6.57 8.76"/><path d="M1061.65 149.445v-10.137" stroke="#fff" stroke-width=".5" stroke-linecap="round" stroke-linejoin="round"/><path d="M1061.9 139.308v10.137" stroke="#fff" stroke-width=".5" stroke-linecap="round" stroke-linejoin="round" stroke-dasharray="6.57 8.76"/><path d="M1061.65 149.445h2.07m0-10.137h-2.07" stroke="#fff" stroke-width=".5" stroke-linecap="round" stroke-linejoin="round"/><path d="M1063.97 149.445v-10.137m2.06 0v10.137" stroke="#fff" stroke-width=".5" stroke-linecap="round" stroke-linejoin="round" stroke-dasharray="6.57 8.76"/><path d="M1065.79 149.445h-2.07v-10.137h2.07m-4.14 10.137h-2.07v-10.137h2.07" stroke="#fff" stroke-width=".5" stroke-linecap="round" stroke-linejoin="round"/><path d="M1057.76 139.308v10.137" stroke="#fff" stroke-width=".5" stroke-linecap="round" stroke-linejoin="round" stroke-dasharray="6.57 8.76"/><path d="M1057.51 149.445h-2.07v-10.137h2.07m-6.2 10.137v-10.137" stroke="#fff" stroke-width=".5" stroke-linecap="round" stroke-linejoin="round"/><path d="M1051.55 139.308v10.137" stroke="#fff" stroke-width=".5" stroke-linecap="round" stroke-linejoin="round" stroke-dasharray="6.57 8.76"/><path d="M1051.31 149.445h2.07m0-10.137h-2.07m6.26 5.069-3.81 2.018v-1.211h-3.88v-1.615h3.88v-1.209l3.81 2.017Z" stroke="#fff" stroke-width=".5" stroke-linecap="round" stroke-linejoin="round"/><path d="M1043.74 141.424v-.25c-.14 0-.25.112-.25.25h.25Zm.22 0h.25c0-.138-.11-.25-.25-.25v.25Zm-.09 1.519-.21-.129v.001l.21.128Zm-.24.227.12.222v-.001l-.12-.221Zm-.74 0-.11.221v.001l.11-.222Zm-.24-.227-.22.128v.001l.22-.129Zm-.09-1.519v-.25c-.14 0-.25.112-.25.25h.25Zm.22 0h.25c0-.138-.11-.25-.25-.25v.25Zm.06 1.407-.22.123.22-.123Zm.16.16-.12.219.01.002.11-.221Zm.52 0 .12.221v-.001l-.12-.22Zm.16-.16-.21-.123.21.123Zm.06-1.407v.25h.22v-.5h-.22v.25Zm.22 0h-.25v1.19h.5v-1.19h-.25Zm0 1.19h-.25c0 .082-.02.146-.05.2l.21.129.22.129c.08-.139.12-.294.12-.458h-.25Zm-.09.329-.21-.128c-.03.054-.08.099-.15.134l.12.221.12.221c.14-.075.26-.182.34-.32l-.22-.128Zm-.24.227-.12-.221c-.06.033-.14.054-.25.054v.5c.17 0 .34-.034.49-.111l-.12-.222Zm-.37.083v-.25c-.11 0-.19-.021-.25-.054l-.12.221-.11.222c.14.077.31.111.48.111v-.25Zm-.37-.083.12-.221c-.07-.035-.11-.08-.15-.135l-.21.129-.22.129c.09.137.2.244.35.319l.11-.221Zm-.24-.227.21-.128c-.03-.054-.05-.119-.05-.201h-.5c0 .163.04.318.12.457l.22-.128Zm-.09-.329h.25v-1.19h-.5v1.19h.25Zm0-1.19v.25h.22v-.5h-.22v.25Zm.22 0h-.25v1.172h.5v-1.172h-.25Zm0 1.172h-.25c0 .126.03.247.09.358l.22-.123.22-.123c-.02-.027-.03-.062-.03-.112h-.25Zm.06.235-.22.123c.06.11.15.196.26.256l.12-.219.12-.219c-.03-.018-.05-.039-.06-.065l-.22.124Zm.16.16-.11.221c.11.062.24.087.37.087v-.5c-.07 0-.11-.013-.14-.028l-.12.22Zm.26.058v.25c.13 0 .26-.025.38-.087l-.12-.221-.12-.22c-.03.015-.07.028-.14.028v.25Zm.26-.058.12.22c.11-.061.2-.147.26-.258l-.22-.122-.21-.123c-.02.025-.04.046-.07.064l.12.219Zm.16-.16.22.123c.06-.111.09-.232.09-.358h-.5c0 .05-.01.085-.02.112l.21.123Zm.06-.235h.25v-1.172h-.5v1.172h.25Zm.65.625h-.25c0 .138.12.25.25.25v-.25Zm0-1.797v-.25c-.13 0-.25.112-.25.25h.25Zm.96.076-.13.218.01.001.12-.219Zm.2.205-.23.112.23-.112Zm0 .576-.23-.111v.001l.23.11Zm-.2.207.12.218v-.001l-.12-.217Zm-.78.077h-.25c0 .138.11.25.25.25v-.25Zm0-.193v-.25c-.14 0-.25.112-.25.25h.25Zm.66-.05-.12-.217.12.217Zm.13-.135-.23-.107v.001l.23.106Zm0-.387-.23.105v.002l.23-.107Zm-.13-.134-.12.219v.001l.12-.22Zm-.62-.049v-.25c-.14 0-.25.112-.25.25h.25Zm0 1.604v.25c.14 0 .25-.112.25-.25h-.25Zm-.22 0h.25v-1.797h-.5v1.797h.25Zm0-1.797v.25h.61v-.5h-.61v.25Zm.61 0v.25c.11 0 .18.021.22.044l.13-.218.12-.217c-.14-.079-.3-.109-.47-.109v.25Zm.35.076-.12.219c.05.027.07.06.09.098l.23-.112.22-.113c-.07-.133-.17-.237-.3-.31l-.12.218Zm.2.205-.23.112c.03.048.04.105.04.176h.5c0-.141-.03-.276-.09-.401l-.22.113Zm.06.288h-.25c0 .07-.01.128-.04.177l.23.111.22.112c.06-.124.09-.259.09-.4h-.25Zm-.06.288-.23-.11c-.02.039-.05.072-.1.101l.13.216.12.217c.13-.074.24-.179.3-.313l-.22-.111Zm-.2.207-.12-.217c-.05.023-.11.044-.22.044v.5c.16 0 .32-.031.46-.109l-.12-.218Zm-.34.077v-.25h-.44v.5h.44v-.25Zm-.44 0h.25v-.193h-.5v.193h.25Zm0-.193v.25h.43v-.5h-.43v.25Zm.43 0v.25c.12 0 .25-.021.35-.083l-.12-.217-.12-.217c-.01.004-.04.017-.11.017v.25Zm.23-.05.12.217c.1-.057.18-.14.23-.247l-.22-.105-.23-.106c0 .006-.01.014-.02.024l.12.217Zm.13-.135.22.106c.05-.095.07-.197.07-.3h-.5c0 .04-.01.068-.02.087l.23.107Zm.04-.194h.25c0-.104-.02-.206-.07-.3l-.22.107-.23.107c.01.018.02.045.02.086h.25Zm-.04-.193.22-.106c-.05-.109-.13-.192-.23-.247l-.12.219-.12.22c.02.008.02.014.02.019l.23-.105Zm-.13-.134.12-.218c-.11-.061-.23-.081-.36-.081v.5c.08 0 .11.013.12.018l.12-.219Zm-.24-.049v-.25h-.38v.5h.38v-.25Zm-.38 0h-.25v1.604h.5v-1.604h-.25Zm0 1.604v-.25h-.22v.5h.22v-.25Z" fill="#fff"/><path d="M1062.58 137.597h2.07V127.46h-1.38" stroke="#fff" stroke-width=".5" stroke-linecap="round" stroke-linejoin="round"/><path d="M1064.4 127.46v10.137m-4.57 1.711v10.137" stroke="#fff" stroke-width=".5" stroke-linecap="round" stroke-linejoin="round" stroke-dasharray="6.57 8.76"/><path d="M1059.58 149.445h-2.07v-10.137h2.07m3-1.711h-1.19" stroke="#fff" stroke-width=".5" stroke-linecap="round" stroke-linejoin="round"/><path d="M1062.33 132.526v5.071" stroke="#fff" stroke-width=".5" stroke-linecap="round" stroke-linejoin="round" stroke-dasharray="6.57 8.76"/><path d="M1062.58 131.185v6.412m-7.91.991h30.77c.33 0 .64-.131.88-.363.23-.233.36-.548.36-.877m-13.41-12.107h.83m-.83 0v2.217h.83v-2.217m-.83 0v.829h.83v-.829m4.35 0h.82m-.82 0v2.217h.82v-2.217m-.82 0v.829h.82v-.829m-25.84 10.701v1.406m19.84 13.57h.83v-1.473h-.83v1.473Zm5.18 0h.82v-1.473h-.82v1.473Zm5.58-2.715h3.06v.829h-3.06v-.829Zm0-9.337h3.06v-.827h-3.06v.827Zm0-10.164h3.06v-.829h-3.06v.829Z" stroke="#fff" stroke-width=".5" stroke-linecap="round" stroke-linejoin="round"/><path clip-rule="evenodd" d="m824.285 113.412-4.465.221-.002-3.31 192.802-9.53v8.97l.08-.014 3.61-.665 3.74-.641 3.83-.609 4.25-.616 4.23-.548 4.21-.479 4.22-.414 4.22-.35 4.23-.286 4.25-.223 4.27-.163 4.32-.102 4.35-.044 4.41.013 4.45.072 4.53.126 2.88.107 4.25.202 4.17.25 4.12.303 4.07.356 4.02.408 3.97.468 2.03.268v4.451l3.58.45 3.81.546 3.81.615 3.82.682 3.84.753 3.88.829 3.48.798 3.36.823 3.28.859 3.19.898 3.14.946 3.08.999 3.06 1.061 3.06 1.128 3.05 1.201 3.08 1.282-.06-.027-.03-.018v-.009l.06.007.09.024.14.044.2.071.25.099.32.133.39.166.45.21.54.25.62.297.69.349.8.403.89.463.99.522 1.09.589 1.2.656 1.31.729 1.43.806 2.02 1.163 1.89 1.152 1.81 1.155 1.72 1.165 1.65 1.188 1.6 1.221 1.54 1.268 1.5 1.32 1.48 1.388 1.03 1.02 1.03 1.077.97 1.092.91 1.106.85 1.121.81 1.138.73 1.152.69 1.168.62 1.184.56 1.2.52 1.216.44 1.232.39 1.247.33 1.264.28 1.279.2 1.296.16 1.313.09 1.329.03 1.264-.03 1.262-.09 1.33-.16 1.312-.2 1.296-.28 1.281-.33 1.264-.39 1.247-.44 1.232-.52 1.214-.56 1.201-.62 1.184-.69 1.167-.73 1.153-.81 1.137-.85 1.123-.91 1.105-.97 1.092-1.03 1.075-1.03 1.023-1.48 1.386-1.5 1.322-1.54 1.266-1.6 1.223-1.65 1.187-1.72 1.165-1.81 1.154-1.89 1.153-2.02 1.164-1.43.804-1.31.73-1.2.657-1.09.588-.99.523-.89.461-.8.403-.69.349-.62.299-.54.25-.45.207-.39.169-.32.131-.25.1-.2.07-.14.046-.09.024-.06.005v-.009l.03-.018.06-.026-3.08 1.283-3.05 1.201-3.06 1.128-3.06 1.059-3.08 1.001-3.14.945-3.19.899-3.28.857-3.36.825-3.48.796-3.88.83-3.84.754-3.82.682-3.81.612-3.81.547-3.58.452v4.45l-2.03.269-3.97.466-4.02.41-4.07.356-4.12.301-4.17.251-4.25.203-2.88.107-4.53.126-4.45.07-4.41.013-4.35-.042-4.32-.102-4.27-.164-4.25-.224-4.23-.286-4.22-.349-4.22-.415-4.21-.479-4.23-.547-4.25-.615-3.83-.609-3.74-.643-3.61-.664-.08-.015v8.972l-192.802-9.53.002-3.31 4.455.221-.007-5.908-.046-17.723-.001-.039-.006-.044-.015-.099-.019-.107-.091-.563-.096-.41-.078-.26-.201-.57-.039-.1-.246-.543-.29-.521-.275-.418-.187-.252-.102-.121-.497-.552-.951-1.052-.305-.374-.126-.163-.471-.621-.372-.563-.592-.972-.162-.285-.417-.815-.245-.551-.404-1.023-.133-.376-.248-.86-.157-.57-.087-.426-.03-.146-.131-.629-.016-.096-.013-.134-.022-.216-.157-1.267-.289-2.35-.332-2.664-.049-.615-.026-.667-.081-2.06-.133-3.244-.026-.63.018-.763.057-1.065.043-.951.082-2.037.091-2.109.028-.294.054-.417.265-2.126.307-2.484.199-1.647.01-.058.02-.095.01-.044.084-.381.206-.919.124-.449.008-.03.085-.295.138-.434.407-1.1.064-.155.131-.274.036-.076.298-.637.199-.377.139-.252.196-.361.202-.342.257-.389.388-.58.34-.454.489-.613.673-.762.327-.347.505-.563.313-.413.282-.441.167-.296.257-.514.213-.519.01-.025.168-.536.126-.544.082-.555.041-.571.005-.278.037-22.975Z" stroke="#fff" stroke-opacity=".3" stroke-width=".5" stroke-linecap="round" stroke-linejoin="round" stroke-dasharray="17.52 8.76 0.02 8.76"/><path clip-rule="evenodd" d="m767.643 217.068-.126-.005.009-3.314.125.005-.008 3.314Zm287.857-67.866v-21.49l.01-.138.03-.138.03-.134.06-.128.06-.123.09-.112.09-.105.1-.092.11-.08.13-.068.12-.053.14-.039.13-.024.14-.007h28.7l.14.007.13.024.14.039.13.053.12.068.12.08.1.092.09.105.08.112.07.123.05.128.04.134.02.138.01.138v21.49l-.01.138-.02.137-.04.135-.05.127-.07.123-.08.112-.09.104-.1.093-.12.08-.12.068-.13.053-.14.039-.13.024-.14.007h-28.7l-.14-.007-.13-.024-.14-.039-.12-.053-.13-.068-.11-.08-.1-.093-.09-.104-.09-.112-.06-.123-.06-.127-.03-.135-.03-.137-.01-.138Zm-78.871 1.219v-9.102l.009-.162.023-.16.04-.158.054-.153.07-.146.083-.14.097-.131.109-.119.121-.11.131-.096.139-.083.146-.07.154-.054.158-.041.16-.024.161-.007h9.93l.163.007.16.024.158.041.152.054.148.07.139.083.129.096.121.11.109.119.097.131.083.14.07.146.054.153.041.158.022.16.009.162v9.102l-.009.162-.022.162-.041.156-.054.153-.07.148-.083.138-.097.131-.109.121-.121.109-.129.097-.139.083-.148.07-.152.054-.158.039-.16.024-.163.009h-9.93l-.161-.009-.16-.024-.158-.039-.154-.054-.146-.07-.139-.083-.131-.097-.121-.109-.109-.121-.097-.131-.083-.138-.07-.148-.054-.153-.04-.156-.023-.162-.009-.162Zm-15.72 0v-9.102l.007-.162.024-.16.039-.158.056-.153.068-.146.085-.14.095-.131.111-.119.119-.11.131-.096.139-.083.147-.07.153-.054.158-.041.16-.024.161-.007h9.93l.163.007.16.024.158.041.152.054.148.07.139.083.131.096.119.11.109.119.097.131.083.14.07.146.055.153.041.158.022.16.008.162v9.102l-.008.162-.022.162-.041.156-.055.153-.07.148-.083.138-.097.131-.109.121-.119.109-.131.097-.139.083-.148.07-.152.054-.158.039-.16.024-.163.009h-9.93l-.161-.009-.16-.024-.158-.039-.153-.054-.147-.07-.139-.083-.131-.097-.119-.109-.111-.121-.095-.131-.085-.138-.068-.148-.056-.153-.039-.156-.024-.162-.007-.162Zm2.895 12.495v-6.702l.007-.14.026-.136.037-.134.055-.129.066-.121.08-.114.093-.104.104-.094.114-.079.121-.067.129-.054.133-.038.138-.024.139-.008h8.274l.14.008.136.024.134.038.128.054.122.067.114.079.104.094.092.104.082.114.066.121.054.129.038.134.024.136.007.14v6.702l-.007.14-.024.136-.038.134-.054.128-.066.122-.082.114-.092.104-.104.092-.114.082-.122.066-.128.054-.134.038-.136.024-.14.006h-8.274l-.139-.006-.138-.024-.133-.038-.129-.054-.121-.066-.114-.082-.104-.092-.093-.104-.08-.114-.066-.122-.055-.128-.037-.134-.026-.136-.007-.14Zm-12.411 0v-6.702l.007-.14.024-.136.039-.134.052-.129.068-.121.08-.114.092-.104.106-.094.112-.079.123-.067.129-.054.132-.038.138-.024.138-.008h8.276l.138.008.138.024.132.038.13.054.122.067.112.079.106.094.092.104.08.114.068.121.052.129.039.134.024.136.007.14v6.702l-.007.14-.024.136-.039.134-.052.128-.068.122-.08.114-.092.104-.106.092-.112.082-.122.066-.13.054-.132.038-.138.024-.138.006h-8.276l-.138-.006-.138-.024-.132-.038-.129-.054-.123-.066-.112-.082-.106-.092-.092-.104-.08-.114-.068-.122-.052-.128-.039-.134-.024-.136-.007-.14Zm12.411 5.212v-1.24l.007-.139.026-.138.037-.133.055-.129.066-.122.08-.113.093-.103.104-.094.114-.08.121-.068.129-.053.133-.039.138-.022.139-.008h8.274l.14.008.136.022.134.039.128.053.122.068.114.08.104.094.092.103.082.113.066.122.054.129.038.133.024.138.007.139v1.24l-.007.14-.024.138-.038.132-.054.13-.066.12-.082.114-.092.104-.104.094-.114.08-.122.068-.128.053-.134.039-.136.022-.14.008h-8.274l-.139-.008-.138-.022-.133-.039-.129-.053-.121-.068-.114-.08-.104-.094-.093-.104-.08-.114-.066-.12-.055-.13-.037-.132-.026-.138-.007-.14Zm-12.411 0v-1.24l.007-.139.024-.138.039-.133.052-.129.068-.122.08-.113.092-.103.106-.094.112-.08.123-.068.129-.053.132-.039.138-.022.138-.008h8.276l.138.008.138.022.132.039.13.053.122.068.112.08.106.094.092.103.08.113.068.122.052.129.039.133.024.138.007.139v1.24l-.007.14-.024.138-.039.132-.052.13-.068.12-.08.114-.092.104-.106.094-.112.08-.122.068-.13.053-.132.039-.138.022-.138.008h-8.276l-.138-.008-.138-.022-.132-.039-.129-.053-.123-.068-.112-.08-.106-.094-.092-.104-.08-.114-.068-.12-.052-.13-.039-.132-.024-.138-.007-.14Zm117.907-44.433v-10.013l.01-.137.03-.138.03-.135.06-.127.06-.123.09-.114.09-.103.1-.092.11-.082.13-.066.12-.053.14-.039.14-.024.13-.007h13.66l.14.007.13.024.14.039.13.053.12.066.12.082.1.092.09.103.08.114.07.123.05.127.04.135.02.138.01.137v10.013l-.01.14-.02.136-.04.134-.05.128-.07.122-.08.114-.09.104-.1.092-.12.081-.12.067-.13.054-.14.038-.13.023-.14.007h-13.66l-.13-.007-.14-.023-.14-.038-.12-.054-.13-.067-.11-.081-.1-.092-.09-.104-.09-.114-.06-.122-.06-.128-.03-.134-.03-.136-.01-.14Zm-129.905 83.489v-9.516l.007-.139.024-.136.039-.135.052-.127.068-.123.08-.114.092-.103.106-.092.112-.082.122-.066.13-.055.132-.037.138-.024.14-.007h1.653l.14.007.138.024.132.037.129.055.121.066.114.082.104.092.094.103.08.114.066.123.054.127.038.135.025.136.007.139v9.516l-.007.14-.025.136-.038.134-.054.128-.066.123-.08.113-.094.104-.104.092-.114.082-.121.066-.129.055-.132.037-.138.024-.14.008h-1.653l-.14-.008-.138-.024-.132-.037-.13-.055-.122-.066-.112-.082-.106-.092-.092-.104-.08-.113-.068-.123-.052-.128-.039-.134-.024-.136-.007-.14Zm0 9.101v-5.377l.007-.139.024-.138.039-.133.052-.129.068-.121.08-.114.092-.104.106-.093.112-.08.122-.068.13-.053.132-.039.138-.022.14-.009h1.653l.14.009.138.022.132.039.129.053.121.068.114.08.104.093.094.104.08.114.066.121.054.129.038.133.025.138.007.139v5.377l-.007.14-.025.138-.038.132-.054.13-.066.122-.08.112-.094.104-.104.094-.114.08-.121.068-.129.053-.132.039-.138.022-.14.008h-1.653l-.14-.008-.138-.022-.132-.039-.13-.053-.122-.068-.112-.08-.106-.094-.092-.104-.08-.112-.068-.122-.052-.13-.039-.132-.024-.138-.007-.14Zm4.799 5.463-.237-.017-.229-.051-.221-.082-.208-.114-.189-.141-.167-.167-.142-.189-.113-.207-.081-.221-.051-.232-.017-.234.017-.235.051-.232.081-.221.113-.207.142-.189.167-.167.189-.141.208-.114.221-.082.229-.051.237-.017h10.094l.216.014.213.043.204.069.196.096.18.12.162.143.142.164.121.18.096.194.069.204.043.213.013.216-.013.216-.043.212-.069.204-.096.194-.121.181-.142.163-.162.143-.18.119-.196.097-.204.07-.213.04-.216.016h-10.094Zm13.405-1.242v-.827l.006-.139.024-.138.039-.133.053-.129.068-.121.08-.114.092-.104.105-.093.113-.08.122-.068.13-.053.132-.039.138-.022.139-.009h3.722l.14.009.138.022.132.039.13.053.122.068.112.08.106.093.092.104.08.114.068.121.053.129.039.133.023.138.007.139v.827l-.007.139-.023.138-.039.133-.053.129-.068.121-.08.114-.092.104-.106.093-.112.08-.122.068-.13.053-.132.037-.138.024-.14.009h-3.722l-.139-.009-.138-.024-.132-.037-.13-.053-.122-.068-.113-.08-.105-.093-.092-.104-.08-.114-.068-.121-.053-.129-.039-.133-.024-.138-.006-.139ZM858.093 134.7v-16.135l.009-.14.024-.136.037-.134.054-.128.067-.122.08-.114.093-.104.104-.092.114-.082.121-.066.129-.054.134-.038.137-.024.139-.007h2.276l.138.007.138.024.132.038.13.054.122.066.113.082.105.092.092.104.08.114.068.122.053.128.039.134.024.136.006.14V134.7l-.006.139-.024.138-.039.133-.053.129-.068.121-.08.114-.092.104-.105.093-.113.08-.122.068-.13.053-.132.037-.138.024-.138.009h-2.276l-.139-.009-.137-.024-.134-.037-.129-.053-.121-.068-.114-.08-.104-.093-.093-.104-.08-.114-.067-.121-.054-.129-.037-.133-.024-.138-.009-.139Zm204.587 18.377.01-.138.03-.138.03-.134.06-.128.06-.122.09-.114.09-.104.1-.092.11-.08.13-.068.12-.052.14-.04.13-.023.15-.007h2.48l.14.007.13.023.14.04.12.052.13.068.11.08.11.092.09.104.08.114.07.122.05.128.04.134.02.138.01.138-.01.139-.02.138-.04.133-.05.129-.07.123-.08.112-.09.104-.11.093-.11.08-.13.068-.12.053-.14.039-.13.022-.14.009h-2.48l-.15-.009-.13-.022-.14-.039-.12-.053-.13-.068-.11-.08-.1-.093-.09-.104-.09-.112-.06-.123-.06-.129-.03-.133-.03-.138-.01-.139Zm6.62 0 .01-.138.03-.138.03-.134.06-.128.06-.122.09-.114.09-.104.1-.092.11-.08.13-.068.12-.052.14-.04.14-.023.13-.007h14.48l.15.007.13.023.14.04.12.052.13.068.11.08.1.092.09.104.09.114.06.122.06.128.03.134.03.138.01.138-.01.139-.03.138-.03.133-.06.129-.06.123-.09.112-.09.104-.1.093-.11.08-.13.068-.12.053-.14.039-.13.022-.15.009h-14.48l-.13-.009-.14-.022-.14-.039-.12-.053-.13-.068-.11-.08-.1-.093-.09-.104-.09-.112-.06-.123-.06-.129-.03-.133-.03-.138-.01-.139Zm-157.997-1.125v-4.965l.008-.138.024-.138.037-.134.055-.128.066-.122.08-.114.094-.104.103-.092.114-.08.121-.068.129-.052.133-.04.138-.023.139-.007h11.585l.138.007.138.023.132.04.13.052.122.068.112.08.106.092.092.104.08.114.068.122.052.128.04.134.023.138.007.138v4.965l-.007.14-.023.136-.04.134-.052.128-.068.123-.08.114-.092.103-.106.092-.112.082-.122.066-.13.055-.132.037-.138.024-.138.007h-11.585l-.139-.007-.138-.024-.133-.037-.129-.055-.121-.066-.114-.082-.103-.092-.094-.103-.08-.114-.066-.123-.055-.128-.037-.134-.024-.136-.008-.14Zm8.646 47.372v-4.138l.009-.139.024-.136.037-.135.055-.129.066-.121.08-.114.093-.103.104-.092.114-.082.121-.066.129-.055.133-.037.138-.024.139-.008h4.137l.14.008.136.024.134.037.13.055.12.066.114.082.104.092.092.103.082.114.066.121.054.129.038.135.024.136.006.139v4.138l-.006.139-.024.136-.038.135-.054.129-.066.121-.082.114-.092.103-.104.092-.114.082-.12.066-.13.055-.134.037-.136.024-.14.008h-4.137l-.139-.008-.138-.024-.133-.037-.129-.055-.121-.066-.114-.082-.104-.092-.093-.103-.08-.114-.066-.121-.055-.129-.037-.135-.024-.136-.009-.139Zm-15.1-83.573-.235-.017-.232-.049-.221-.084-.207-.112-.189-.141-.167-.167-.141-.19-.114-.206-.082-.221-.051-.232-.017-.236.017-.235.051-.231.082-.221.114-.206.141-.191.167-.167.189-.141.207-.112.221-.083.232-.05.235-.017h10.757l.215.014.212.042.206.07.194.095.181.121.161.143.143.162.121.18.095.194.07.206.042.211.014.216-.014.216-.042.212-.07.206-.095.194-.121.181-.143.161-.161.143-.181.121-.194.095-.206.07-.212.042-.215.014h-10.757Zm-46.647 29.707v-5.793l.007-.139.024-.138.039-.133.053-.129.068-.122.08-.113.092-.103.103-.094.114-.08.123-.068.129-.053.133-.039.138-.022.137-.009h2.276l.14.009.136.022.134.039.13.053.12.068.114.08.104.094.092.103.082.113.066.122.054.129.038.133.024.138.008.139v5.793l-.008.137-.024.138-.038.133-.054.129-.066.123-.082.112-.092.104-.104.093-.114.08-.12.068-.13.053-.134.039-.136.024-.14.007h-2.276l-.137-.007-.138-.024-.133-.039-.129-.053-.123-.068-.114-.08-.103-.093-.092-.104-.08-.112-.068-.123-.053-.129-.039-.133-.024-.138-.007-.137Zm0 13.238v-3.311l.007-.137.024-.138.039-.133.053-.129.068-.123.08-.112.092-.104.103-.093.114-.08.123-.068.129-.053.133-.039.138-.024.137-.007h2.276l.14.007.136.024.134.039.13.053.12.068.114.08.104.093.092.104.082.112.066.123.054.129.038.133.024.138.008.137v3.311l-.008.139-.024.136-.038.135-.054.129-.066.121-.082.114-.092.104-.104.093-.114.08-.12.066-.13.055-.134.037-.136.024-.14.009h-2.276l-.137-.009-.138-.024-.133-.037-.129-.055-.123-.066-.114-.08-.103-.093-.092-.104-.08-.114-.068-.121-.053-.129-.039-.135-.024-.136-.007-.139Zm232.818-48.322v-1.655l.01-.14.03-.138.03-.132.06-.13.06-.121.09-.114.09-.103.1-.094.11-.08.13-.068.12-.051.14-.039.13-.024.15-.008h1.65l.14.008.13.024.14.037.13.053.12.068.12.08.1.094.09.102.08.115.07.121.06.13.03.132.02.138.01.14v1.655l-.01.137-.02.138-.03.135-.06.127-.07.123-.08.114-.09.103-.1.092-.12.08-.12.068-.13.053-.14.039-.13.024-.14.007h-1.65l-.15-.007-.13-.024-.14-.039-.12-.053-.13-.068-.11-.08-.1-.092-.09-.103-.09-.114-.06-.123-.06-.127-.03-.135-.03-.138-.01-.137Zm44.45 54.611-2.2-6.76-5.75-4.178h-7.11l-5.75 4.178-2.19 6.76 2.19 6.76 5.75 4.178h7.11l5.75-4.178 2.2-6.76Z" stroke="#fff" stroke-opacity=".3" stroke-width=".5" stroke-linecap="round" stroke-linejoin="round" stroke-dasharray="17.52 8.76 0.02 8.76"/></svg>