<svg width="1776" height="330" viewBox="0 0 1776 330" fill="none" xmlns="http://www.w3.org/2000/svg"><path d="M1134.72 184.833h11.7v2.109h-9.43" stroke="#fff" stroke-width=".5" stroke-linecap="round" stroke-linejoin="round"/><path d="M1134.89 185.008h11.36v1.761h-9.26" stroke="#fff" stroke-width=".5" stroke-linecap="round" stroke-linejoin="round"/><path d="M1134.89 185.172h11.19v1.43h-9.09m-4.58-1.9h1.65m0 0-.41-.413m.41.413-.41.413m-2.41-.413h-1.65m0 0 .41-.413m-.41.413.41.413M1128.93 184.833h-5.22l-13.53-5.909-5.46-13.718 5.77-13.591 13.66-5.603h3v-.826" stroke="#fff" stroke-width=".5" stroke-linecap="round" stroke-linejoin="round"/><path d="M1128.76 185.008h-5.05l-13.66-5.963-5.5-13.841 5.82-13.713 13.78-5.652h2.82v-.48h-.45v-5.461h-.53" stroke="#fff" stroke-width=".5" stroke-linecap="round" stroke-linejoin="round"/><path d="M1128.93 185.173h-5.21l-13.78-6.004-5.56-13.958 5.87-13.834 13.9-5.703h2.66v-.15h-.46v-5.462h-.36" stroke="#fff" stroke-width=".5" stroke-linecap="round" stroke-linejoin="round"/><path d="M1134.72 184.832v.34m-5.79-.34v.34m-1.78-39.986h-.46v-5.464h-.7m-.53 0h-.91m.91.175h-.91M1125.46 140.062h-.91M1124.55 132.819h.91m.53 0h.7v-2.995m-2.14 2.822h.91" stroke="#fff" stroke-width=".5" stroke-linecap="round" stroke-linejoin="round"/><path d="M1125.99 132.646h.53v-2.822M1124.55 132.712h.91m13.79 10.572h-.31M1139.42 143.119h-.48M1137.89 143.284h.22M1137.73 143.119h.38M1146.09 144.276h-6.84v-.992m-1.36 0v2.232" stroke="#fff" stroke-width=".5" stroke-linecap="round" stroke-linejoin="round"/><path d="M1146.26 144.112h-6.84v-.993m-4 2.728h10.84m-10.84-.496h2.31v-2.232m8.69.826h-6.84v-.991h-2.02v2.232h-2.31m0 .826h11.17" stroke="#fff" stroke-width=".5" stroke-linecap="round" stroke-linejoin="round"/><path d="m1137.89 145.516-2.31.001v.165h10.51v-1.406M1101.42 121.675l.01-.075.08-.469.08-.469.09-.478.1-.5.11-.501.07-.301.07-.303.14-.489.14-.509.16-.555.08-.22.24-.705m-1.37 93.111.01.075.08.469.08.47.09.477.1.502.11.499.07.303.07.301.14.489.14.51.16.555.08.219.24.705" stroke="#fff" stroke-width=".5" stroke-linecap="round" stroke-linejoin="round"/><path d="M874.642 179.174h.02l.413-.184M856.966 160.908l4.495 1.77m-4.809-1.763.002.002M875.055 178.985l-.413.188m1.834-.023.116.083-1.471.778m1.462-.798-.251.253m-.306.16-.204.09m-.323.124-.378.127m.84-.736.245.009.227-.102m-1.358-27.241-.411-.184h-.022l.413.189M851.836 171.279l-1.003-.807m6.133-.493 4.495-1.77 2.846-1.244m.367.833-13.783 4.573-.967-.658m6.73-1.742-.002.001M875.121 150.877l1.471.777m-1.471-.734 1.462.754m-.148.079-.228-.106-.246.009m.189-.335-.14-.068M855.744 169.785c.829 0 1.639-.259 2.326-.745.686-.486 1.218-1.176 1.526-1.982m-1.401-6.021v.065m.475-4.105.001-.002m-2.981 1.319-1.034-.44 1.034.116v.044l-1.024-.135m2.323.135-1.034-.446 1.034.119v.043l-1.024-.138m3.536 16.161 9.922-4.306m-9.922 4.306-1.034.122 1.034-.455 9.922-4.508 1.034-.386-1.034.921m-9.922 4.306v-.044m9.922-4.262v-.049m-11.138-11.665-1.033-.452 1.033.122v.043l-1.023-.141m2.239.122-1.034-.455 1.034.122v.044l-1.023-.143m-1.489 16.165 9.507-4.056m-9.507 4.056-1.034.119 1.034-.446 9.507-4.256 1.034-.383-1.034.91m-9.507 4.056v-.043m9.507-4.013v-.049m-10.806 3.823 9.342-3.944m-9.342 3.944-1.034.115 1.034-.438 9.342-4.146 1.034-.38-1.034.905m-9.342 3.944v-.045m9.342-3.899v-.049m-6.747 4.559 9.675-4.168m-9.675 4.168-1.033.122 1.033-.452 9.675-4.371 1.033-.384-1.033.917m-9.675 4.168v-.043m9.675-4.125v-.05m-2.928-.341 1.03-.878m-1.03.878-4.265 2.167m-6.101 1.916 1.024-.135m0 0 5.042-1.766m5.764-2.012 1.03-.883m-1.03.883-4.336 2.223m-6.197 1.977 1.026-.138m0 0 5.131-1.822m5.84-2.069 1.03-.889m-1.03.889-4.41 2.28m-6.288 2.036 1.023-.141m0 0 5.228-1.878m5.91-2.125 1.03-.894m-1.03.894-4.482 2.336m-6.463 2.118 1.023-.143m0 0 5.404-1.96m.127-9.31 1.034.379-1.034-.905v.05l1.03.877m.434-.568 1.034.382-1.034-.911v.05l1.03.882m.434-.571 1.033.384-1.033-.916v.049l1.03.889m-10.754 7.328-.319-.073m11.506-8.365v.049m-11.506-.367.321-.073m-4.792.778v.023" stroke="#fff" stroke-width=".1" stroke-linecap="round" stroke-linejoin="round"/><path d="m876.581 179.23-.003.01m-.056.085-.014.014m-.107.083-.047.031m-.106.062-.061.033m-.032.017-.033.015m-.26.119-.04.017m-.267.102-.099.036m-.095.034-.104.035m1.166-.516.065-.05m.078-.09.01-.022m-1.95 0 .038-.068v-.005.002m-.952.554.01-.041m.019-.037.022-.036m.025-.034.235-.238m.065-.054.132-.102m.138-.096.24-.139m.419 1.042.104-.025v.042l5.924-1.64m-6.194 1.65-.167.012m-.166.002-.332-.036m-.083-.015-.082-.021m-.08-.023-.117-.048m-.036-.022-.061-.06m23.619-18.872-5.121-3.349m-16.975-6.626-.129-.042m0 0v-.043l4.342 1.138 2.317.754m-6.659-1.849-.287-.055m17.386 22.437 5.126-3.352m-20.766-18.299.003.012m-2.545-.104-.289-.306m-.02-.037-.014-.04m.005-.083.023-.035m.03-.029.036-.022m.037-.021.078-.032m.08-.024.247-.051m.081-.012.334-.013m-.148 1.04-.143-.085m-.139-.095-.133-.102m23.256 9.325 1.057.993m-1.057 8.022 1.057-.995m-23.79-17.315.038.07v.003m-.066-.144v.457m0 27.29v-.457m.044-27.147v.302m0 26.855v.303M850.828 172.384l25.133 6.847m-24.689-6.939 25.204 6.858m-11.663-11.417 32.546 2.219" stroke="#fff" stroke-width=".4" stroke-linecap="round" stroke-linejoin="round"/><path d="M855.744 169.785h2.832m-.381.065v-.065M875.961 151.656l-25.133 6.847m46.531 2.434-32.546 2.217" stroke="#fff" stroke-width=".1" stroke-linecap="round" stroke-linejoin="round"/><path d="m864.674 167.798 1.9-2.355-1.902-2.354m-13.781-4.573-.967.658v12.539" stroke="#fff" stroke-width=".4" stroke-linecap="round" stroke-linejoin="round"/><path d="m864.307 166.965 1.358-1.52-1.357-1.521m-13.475-3.509v10.057m14.199-8.49-4.265-2.167m-.035-.015-5.042-1.766m10.806 3.779-4.336-2.224m-.038-.017-5.133-1.822m10.971 3.891-4.41-2.28m-.037-.015-5.227-1.88m12.167 4.897-1.03-.894-4.482-2.336m-.036-.015-5.404-1.96m-3.811 1.156 9.342 4.144m0-.525-9.342-3.944m1.299.045 9.507 4.258m0-.529-9.507-4.056m1.297.046 9.674 4.371m0-.532-9.674-4.169m1.215.024 9.922 4.508 1.034.386m-1.034-.921-9.922-4.306" stroke="#fff" stroke-width=".1" stroke-linecap="round" stroke-linejoin="round"/><path d="m876.592 151.654-25.32 6.941" stroke="#fff" stroke-width=".4" stroke-linecap="round" stroke-linejoin="round"/><path d="m870.457 162.341-1.034-.921m-10.847-.318h-2.832c.678 0 1.346.174 1.945.506.599.333 1.112.814 1.492 1.402.38.588.617 1.264.689 1.97.072.706-.022 1.42-.274 2.079M855.744 161.102c-1.1 0-2.155.458-2.933 1.272-.778.814-1.215 1.918-1.215 3.07 0 1.151.437 2.256 1.215 3.07.778.814 1.833 1.271 2.933 1.271" stroke="#fff" stroke-width=".1" stroke-linecap="round" stroke-linejoin="round"/><path d="M897.323 160.975c-6.612-4.835-14.172-8.259-22.202-10.055m22.202 18.993-3.294 2.257-1.785 1.07-2.881 1.58M897.323 169.913c.72-.501 1.308-1.169 1.713-1.947.406-.778.618-1.644.618-2.522 0-.879-.212-1.744-.618-2.522-.405-.779-.993-1.447-1.713-1.947" stroke="#fff" stroke-width=".5" stroke-linecap="round" stroke-linejoin="round"/><path d="m864.883 167.699 32.44 2.214m0-8.938-7.545.515-4.459.304-4.381.299-1.489.1-5.511.378-3.233.219" stroke="#fff" stroke-width=".1" stroke-linecap="round" stroke-linejoin="round"/><path d="M875.121 179.967c8.03-1.796 15.59-5.22 22.202-10.054m35.151-24.265-29.786-5.382-30.673-1.956-8.878.173-3.014.524-6.211 4.442-3.691 6.774-2.48 15.22 2.48 15.221 3.691 6.774 6.211 4.442 3.014.524 8.878.173 30.673-1.956 29.786-5.382v-39.591Z" stroke="#fff" stroke-width=".5" stroke-linecap="round" stroke-linejoin="round"/><path d="m886.152 162.756 1.45-.559 1.253-.267m0 0 1.254.267 1.063.761.71 1.141.25 1.345-.25 1.344-.71 1.141-1.063.761-1.254.267m0-7.027h15.7l1.254.267 1.063.761.71 1.141.25 1.345-.25 1.344-.71 1.141-1.063.761-1.254.267h-15.7m0 0-1.253-.267-1.45-.559m15.108.621v-6.616" stroke="#fff" stroke-width=".1" stroke-linecap="round" stroke-linejoin="round"/><path d="M871.959 162.756h14.621l.959.206.812.581.544.872.191 1.029-.191 1.028-.544.872-.812.583-.959.204h-14.621l-1.173-.172m1.173-5.203 1.119.163.282.043.921.452.266.129.605.665.188.207.21.775.069.254-.21.778-.069.25-.61.67-.183.202-.935.459-.252.124-1.139.165m-.262-5.336-.248.038-1.151.168-.183.088-1.003.493-.107.117-.687.755-.034.126-.245.903.034.122.245.906.099.109.695.763m1.186.583-1.021-.501" stroke="#fff" stroke-width=".1" stroke-linecap="round" stroke-linejoin="round"/><path clip-rule="evenodd" d="M1102.79 210.219v5.611l-1.13.114-3.66.306-3.66.243-3.67.184-3.66.126-3.67.069-3.31.016-4.17-.048-4.14-.112-4.13-.179-4.11-.243-4.09-.311-4.09-.375-4.06-.441-4.06-.508-4.04-.573-4.04-.637-4.04-.704-3.65-.694-3.2-.654-3.11-.685-3.04-.719-2.97-.76-2.91-.802-2.86-.85-2.82-.901-2.78-.957-2.76-1.019-2.75-1.081-2.733-1.149-2.739-1.222-1.502-.7-2.137-1.032-2.035-1.024-1.94-1.021-1.851-1.025-1.766-1.039-1.69-1.055-1.618-1.08-1.552-1.11-1.492-1.147-1.44-1.192-1.391-1.241-1.348-1.297-1.312-1.362-1.282-1.429-.408-.476-.911-1.11-.833-1.107-.758-1.105-.685-1.115-.619-1.127-.552-1.147-.493-1.173-.435-1.204-.383-1.241-.054-.195-.313-1.287-.243-1.272-.179-1.285-.119-1.326-.063-1.393-.008-1.49v-.027l.008-1.489.063-1.394.119-1.326.179-1.285.243-1.271.313-1.285.054-.198.383-1.241.435-1.203.493-1.173.552-1.147.619-1.127.685-1.114.758-1.107.833-1.106.911-1.108.408-.478 1.282-1.43 1.312-1.36 1.348-1.298 1.391-1.241 1.44-1.192 1.492-1.147 1.552-1.11 1.618-1.08 1.69-1.055 1.766-1.037 1.851-1.027 1.94-1.022 2.035-1.023 2.137-1.032 1.502-.7 2.739-1.223 2.733-1.149 2.75-1.081 2.76-1.016 2.78-.959 2.82-.901 2.86-.85 2.91-.802 2.97-.76 3.04-.719 3.11-.685 3.2-.655 3.65-.692 4.04-.703 4.04-.639 4.04-.573 4.06-.509 4.06-.44 4.09-.376 4.09-.311 4.11-.243 4.13-.178 4.14-.112 4.17-.048 3.31.015 3.67.07 3.66.126 3.67.183 3.66.245 3.66.304 1.13.116v5.61l3.99.442 3.75.448 3.55.47 3.44.504 3.39.56 3.4.625 3.48.707 1.63.354 2.93.661 2.71.648 2.56.656 2.44.685 2.41.738 2.41.809 2.33.847 2.66 1.018 2.5 1.013 2.4 1.027 2.34 1.064 2.3 1.118 2.32 1.197 1.07.578 1.43.862 2 1.268 1.89 1.273 1.78 1.282 1.67 1.29 1.56 1.304 1.45 1.317 1.35 1.335.96 1.037.9 1.05.84 1.064.77 1.078.72 1.091.65 1.107.59 1.124.53 1.14.47 1.158.42 1.178.34 1.197.29 1.219.24 1.239.18 1.263.11 1.287.06 1.31v.267l-.06 1.311-.11 1.285-.18 1.263-.24 1.239-.29 1.219-.34 1.197-.42 1.178-.47 1.157-.53 1.141-.59 1.124-.65 1.106-.72 1.092-.77 1.077-.84 1.064-.9 1.051-.96 1.037-1.35 1.334-1.45 1.318-1.56 1.303-1.67 1.291-1.78 1.281-1.89 1.274-2 1.268-1.43.863-1.07.577-2.32 1.196-2.3 1.121-2.34 1.062-2.4 1.027-2.5 1.013-2.66 1.018-2.33.847-2.41.809-2.41.738-2.44.685-2.56.656-2.71.649-2.93.66-1.63.353-3.48.709-3.4.624-3.39.559-3.44.505-3.55.469-3.75.449-3.99.442Z" stroke="#fff" stroke-width=".5" stroke-linecap="round" stroke-linejoin="round"/><path clip-rule="evenodd" d="m976.503 182.414.005.106.012.103.024.102.028.099.04.097.045.093.055.09.063.084.068.08.074.073.798.71 1.44 1.192 1.492 1.147 1.552 1.11 1.618 1.08 1.69 1.055 1.766 1.039 1.851 1.025 1.94 1.022 2.035 1.023 2.137 1.032 1.502.7 2.739 1.222 2.733 1.15 2.75 1.081 2.76 1.018 2.69.926.11.031.1.022.11.012.11.003.1-.007.11-.015.1-.024.11-.034.09-.042.1-.049.09-.06.08-.064.08-.074.07-.079.07-.085.05-.092.05-.095.04-.099.04-.102.02-.105.01-.108.01-.105v-68.514l-.01-.107-.01-.107-.02-.106-.04-.102-.04-.098-.05-.095-.05-.091-.07-.086-.07-.08-.08-.073-.08-.065-.09-.059-.1-.05-.09-.042-.11-.034-.1-.024-.11-.015-.1-.007-.11.003-.11.012-.1.022-.11.031-2.69.926-2.76 1.019-2.75 1.081-2.733 1.149-2.739 1.222-1.502.701-2.137 1.031-2.035 1.024-1.94 1.021-1.851 1.025-1.766 1.039-1.69 1.056-1.618 1.079-1.552 1.11-1.492 1.148-1.44 1.191-.798.712-.074.072-.068.08-.063.083-.055.09-.045.094-.04.096-.028.101-.024.102-.012.102-.005.105v33.94Zm58.707-10.52-.11.005-.11.013-.1.024-.1.032-.11.041-.09.051-.09.058-.09.066-.08.073-.07.08-.07.085-.05.092-.06.095-.04.101-.03.103-.02.106-.02.107v.522l-.01.107-.01.108-.02.106-.04.102-.04.1-.05.097-.06.09-.06.087-.07.08-.08.073-.09.066-.09.058-.1.049-.1.041-.1.034-.11.022-.1.015-.11.005h-2.48l-.11-.005-.11-.015-.1-.022-.11-.034-.1-.041-.09-.049-.09-.058-.09-.066-.08-.073-.07-.08-.07-.087-.06-.09-.05-.097-.04-.1-.03-.102-.02-.106-.02-.108v-.521l-.01-.108-.01-.107-.02-.106-.04-.103-.04-.101-.05-.095-.06-.092-.06-.085-.07-.08-.08-.073-.09-.066-.09-.058-.1-.051-.1-.041-.1-.032-.11-.024-.1-.013-.11-.005h-12.82l-.11.005-.1.013-.11.024-.1.032-.1.041-.1.051-.09.058-.08.066-.09.073-.07.08-.06.085-.06.092-.05.095-.04.101-.04.103-.02.106-.01.107-.01.108v27.863l.01.106.01.105.02.104.03.1.04.099.05.095.06.09.06.085.07.078.08.073.08.067.09.059.09.051.1.043.1.034 1.57.467h31.86l.1-.005.11-.014.11-.023.1-.033.1-.042.1-.049.09-.058.08-.067.08-.073.08-.08.06-.086.06-.09.05-.097.04-.099.03-.104.03-.105.01-.107.01-.109v-28.278l-.01-.108-.01-.107-.03-.106-.03-.103-.04-.101-.05-.095-.06-.092-.06-.085-.08-.08-.08-.073-.08-.066-.09-.058-.1-.051-.1-.041-.1-.032-.11-.024-.11-.013-.1-.005h-12.82Zm37.21 0-.11.005-.11.013-.11.024-.09.032-.1.041-.1.051-.09.058-.09.066-.08.073-.07.08-.07.085-.06.092-.05.095-.04.101-.03.103-.03.106v.107l-.01.108v.414l-.01.107-.01.108-.02.106-.04.102-.04.1-.05.097-.06.09-.06.087-.08.08-.08.073-.08.066-.09.058-.1.049-.1.041-.1.034-.11.022-.11.015-.1.005h-2.48l-.11-.005-.11-.015-.11-.022-.09-.034-.1-.041-.1-.049-.1-.058-.08-.066-.08-.073-.07-.08-.07-.087-.06-.09-.05-.097-.04-.1-.03-.102-.03-.106-.01-.108v-.521l-.01-.108-.01-.107-.02-.106-.04-.103-.04-.101-.05-.095-.06-.092-.06-.085-.08-.08-.08-.073-.08-.066-.09-.058-.1-.051-.1-.041-.1-.032-.11-.024-.11-.013-.1-.005h-12.82l-.11.005-.1.013-.11.024-.1.032-.1.041-.1.051-.09.058-.08.066-.09.073-.07.08-.07.085-.05.092-.06.095-.04.101-.03.103-.02.106-.01.107-.01.108v28.278l.01.109.01.107.02.105.03.104.04.099.06.097.05.09.07.086.07.08.09.073.08.067.09.058.1.049.1.042.1.033.11.023.1.014.11.005h26.87l.11-.005.11-.014.1-.023.1-.033.1-.042.1-.049.09-.058.09-.067.08-.073.07-.08.07-.086.06-.09.05-.097.04-.099.03-.104.03-.105v-.107l.01-.109v-28.278l-.01-.108v-.107l-.03-.106-.03-.103-.04-.101-.05-.095-.06-.092-.07-.085-.07-.08-.08-.073-.09-.066-.09-.058-.1-.051-.1-.041-.1-.032-.1-.024-.11-.013-.11-.005h-6.61Zm52.75 23.895.01.109.01.107.02.105.03.104.05.1.05.095.05.092.07.085.07.08.09.073.08.066.09.058.1.051.1.041.1.032.11.024.1.014.11.005h8.6l.11-.005.11-.014.1-.024.1-.032.1-.041.1-.051.09-.058.08-.066.09-.073.07-.08.07-.085.06-.092.04-.095.05-.1.03-.104.02-.105.01-.107.01-.109v-8.707l-.01-.107-.01-.107-.02-.105-.03-.104-.05-.1-.04-.096-.06-.091-.07-.087-.07-.078-.09-.073-.08-.067-.09-.058-.1-.051-.1-.04-.1-.033-.1-.023-.11-.014-.11-.005h-8.6l-.11.005-.1.014-.11.023-.1.033-.1.04-.1.051-.09.058-.08.067-.09.073-.07.078-.07.087-.05.091-.05.096-.05.1-.03.104-.02.105-.01.107-.01.107v8.707Z" stroke="#fff" stroke-width=".5" stroke-linecap="round" stroke-linejoin="round"/><path d="m1102.78 115.069-1.47-.138-1.53-.132-1.55-.123-1.54-.113-1.58-.102-1.57-.092-1.6-.082-1.62-.071-1.64-.06-1.66-.051-1.69-.037-1.73-.027-1.76-.016-1.81-.003-1.19.007-1.82.022-1.77.032-1.76.044-1.73.055-1.72.066-1.68.075-1.68.088-1.67.097-1.65.107-1.65.118-1.64.129-1.64.137-1.64.15-1.64.16-1.63.171-1.65.182-1.64.194-1.66.206-1.65.219-1.67.23-1.68.243-1.69.256-1.7.269-1.72.284-1.73.299-1.74.313-1.77.33-1.78.345-.78.156-1.71.349-1.66.353-1.62.359-1.59.365-1.56.373-1.54.382-1.52.393-1.51.403-1.49.416-1.48.43-1.48.444-1.47.462-1.47.478-1.47.498-1.48.52-1.49.541-1.5.566-1.51.593-1.53.62-1.54.646-1.556.68-1.586.714-1.615.753-.347.164-1.786.865-1.649.826-1.535.795-1.425.769-1.349.755-1.285.751-1.229.751-1.184.757-1.142.766-1.11.782-1.079.799-1.056.825-1.037.853-1.02.887-1.01.927-1.003.974-.999 1.027-1.001 1.088-1.008 1.159-.028.032-.814.99-.744.977-.682.972-.629.979-.576.995-.531 1.02-.486 1.054-.447 1.101-.408 1.161-.37 1.238-.295 1.208-.244 1.255-.182 1.258-.124 1.319-.068 1.414-.012 1.607.007 1.378.066 1.546.122 1.349.181 1.27.239 1.244.31 1.274.001.005.376 1.253.415 1.174.452 1.11.493 1.063.534 1.023.581.994.629.978.683.969.743.969.808.981.166.195 1.027 1.168 1.02 1.098 1.018 1.034 1.022.979 1.028.931 1.039.891 1.055.855 1.073.824 1.097.801 1.123.78 1.16.765 1.198.757 1.246.749 1.3.752 1.365.754 1.428.762 1.517.779 1.62.804 1.752.841.378.179 1.65.763 1.622.722 1.597.689 1.57.652 1.54.621 1.53.59 1.51.562 1.5.539 1.49.515 1.49.495 1.48.476 1.49.459 1.49.442 1.49.427 1.51.413 1.52.401 1.54.389 1.55.379 1.59.371 1.6.362 1.64.355 1.67.349 1.71.345.61.119 1.8.345 1.79.328 1.77.313 1.75.297 1.74.284 1.73.269 1.71.253 1.69.241 1.7.228 1.68.214 1.67.204 1.67.191 1.66.178 1.66.167 1.66.156 1.65.145 1.66.134 1.66.122 1.66.114 1.68.102 1.69.09 1.69.082 1.72.07 1.72.059 1.76.048 1.78.037 1.8.024 1.83.013h.7l1.8-.006 1.75-.021 1.72-.032 1.68-.043 1.64-.054 1.61-.063 1.59-.075 1.57-.083 1.55-.095 1.54-.104 1.53-.114 1.52-.124 1.51-.134 1.04-.099m26.03-18.127h-4.3v-12.51h12.4v3.133m-124.03-64.839v47.592h74.42v43.142m0-97.53v26.275m-18.6-28.64v7.306m0 87.647v7.306m-37.21-97.73v7.408m0 78.385v7.41m18.6-96.171v6.49m0 86.157v6.491" stroke="#fff" stroke-width=".5" stroke-linecap="round" stroke-linejoin="round"/><path clip-rule="evenodd" d="m1135.64 165.444-2.19-6.756-5.75-4.175h-7.1l-5.75 4.175-2.19 6.756 2.19 6.755 5.75 4.175h7.1l5.75-4.175 2.19-6.755Z" stroke="#fff" stroke-width=".5" stroke-linecap="round" stroke-linejoin="round"/><path d="M1146.42 131.753v67.316m-134.15-46.742v-5.808c0-.219-.06-.434-.17-.624-.11-.189-.27-.346-.46-.454-.19-.109-.41-.165-.63-.163-.22.002-.43.062-.62.173" stroke="#fff" stroke-width=".5" stroke-linecap="round" stroke-linejoin="round" stroke-dasharray="17.52 8.76 0.02 8.76"/><path d="M1146.26 145.847v-1.735m-10.84 1.239v.496m11 .165v-2.067m-11.17 1.241v.826M1125.54 136.272v3.621h.37v-3.621m-.37 0h.37m-.37 0v-3.623h.37v3.623" stroke="#fff" stroke-opacity=".3" stroke-width=".5" stroke-linecap="round" stroke-linejoin="round" stroke-dasharray="1 1"/><path d="M1125.54 143.195h.37v-3.472h-.37v3.476m0-10.38h.37v-3.473h-.37v3.473Z" stroke="#fff" stroke-opacity=".3" stroke-width=".5" stroke-linecap="round" stroke-linejoin="round" stroke-dasharray="1 1"/><path d="m1176.74 155.224.26.568-.01-.048-.3-.671-.21-.432-.43-.859-.47-.858-.43-.721-.5-.797-.12-.18-.64-.925-.65-.889-.67-.857-.68-.823-.56-.628-.76-.822-.83-.843-.9-.875-.9-.825-.93-.805-.95-.784-.4-.313-1.03-.782-1.1-.792-1.17-.809-.05-.032-1.27-.826-1.3-.806-1.34-.792-1.37-.774-1.41-.755-.14-.071-1.38-.695-1.45-.697-1.59-.724-1.74-.752-.65-.27-1.45-.59-1.8-.695-1.81-.668-1.83-.636-.5-.17-1.93-.629-1.99-.612-2.04-.595-.81-.224-2.11-.568-2.18-.549-2.24-.532-.81-.184-2.32-.505-2.36-.479-2.41-.454-2.45-.43-.1-.017-2.47-.398-2.53-.374-2.59-.348-2.66-.326-2.71-.298-2.72-.265-.43-.039M1176.74 175.664l.26-.568-.01.048-.3.671-.21.432-.43.858-.47.859-.43.72-.5.798-.12.182-.64.923-.65.889-.67.856-.68.823-.56.629-.76.821-.83.843-.9.876-.9.824-.93.806-.95.784-.4.312-1.03.782-1.1.792-1.17.81-.05.032-1.27.826-1.3.806-1.34.792-1.37.773-1.41.755-.14.072-1.38.697-1.45.695-1.59.724-1.74.751-.65.271-1.45.591-1.8.694-1.81.668-1.83.635-.5.17-1.93.629-1.99.612-2.04.595-.81.225-2.11.568-2.18.549-2.24.532-.81.183-2.32.505-2.36.479-2.41.454-2.45.43-.1.017-2.47.398-2.53.374-2.59.349-2.66.326-2.71.298-2.72.265-.43.039" stroke="#fff" stroke-opacity=".3" stroke-width=".5" stroke-linecap="round" stroke-linejoin="round" stroke-dasharray="1 1"/><path d="M855.453 170.343v-.569m.595.011v.378m-1.19.353.002-.086v-.745m-.585.995-.008-1.18m1.186-8.386v-.569m.595.18v.377m-2.47 9.763.07-.345.026-.415v-.899m-.466 1.752-.13-2.187m-1.186-1.714v2.725l.297 1.034.296-1.034v-1.651m1.782-6.743.008-1.18m.583.163.002.832m-1.782.914.13-2.188m.37.094.096 1.659m-1.782 2.149.297-3.759.296 2.684m6.186 11.136h-.002m6.003-10.802-13.781-4.573" stroke="#fff" stroke-opacity=".3" stroke-width=".1" stroke-linecap="round" stroke-linejoin="round"/><path d="m864.308 163.924-2.847-1.246M850.833 160.416l1.003-.808" stroke="#fff" stroke-width=".1" stroke-linecap="round" stroke-linejoin="round"/><path clip-rule="evenodd" d="m991.36 165.444.029-1.056.093-1.049.16-1.033.226-1.015.289-.993.35-.972.23-.573.483-1.061.544-1.025.603-.982.656-.94.705-.903.748-.867.782-.835.811-.809 1.217-1.128 1.294-1.107 1.37-1.091 1.45-1.075 1.55-1.062 1.65-1.049 1.75-1.039.84-.474.43-.238 1.8-.945 1.85-.916 1.92-.891 2.03-.877 2.98-1.2 3.02-1.124 3.04-1.061 3.05-1.003 3.08-.953 3.09-.905 3.1-.86 3.11-.812 1.56-.386 1.58-.379 2.85-.646 3.56-.743 3.57-.678 3.59-.612 3.58-.551 3.6-.486 3.6-.427 3.62-.365 3.61-.308 3.62-.252 3.67-.2 3.63-.146 3.59-.09 3.56-.038 3.53.017 3.49.07 3.47.124 2.21.105 3.41.208 3.76.289 3.71.348 3.65.408 3.59.466 3.54.523 2.23.366 2.22.399 2.21.434 2.21.476 2.19.518 2.19.566 2.17.617 2.16.672 2.14.726 2.13.788 2.09.849 2.07.914 2.05.979 2.01 1.048 1.97 1.115.97.578.8.501 1.33.87 1.29.91 1.27.952 1.23.996 1.19 1.04 1.14 1.085 1.11 1.129 1.05 1.172 1 1.218.95 1.258.89 1.3.13.204.74 1.212.67 1.215.6 1.223.54 1.229.45 1.237.39 1.248.32 1.256.24 1.238.18 1.249.12 1.265.05 1.28v.68l-.05 1.28-.12 1.264-.18 1.25-.24 1.237-.32 1.257-.39 1.247-.45 1.238-.54 1.229-.6 1.222-.67 1.216-.74 1.212-.13.204-.89 1.3-.95 1.258-1 1.217-1.05 1.173-1.11 1.129-1.14 1.084-1.19 1.041-1.23.996-1.27.952-1.29.911-1.33.868-.8.502-.97.578-1.97 1.115-2.01 1.047-2.05.979-2.07.915-2.09.85-2.13.787-2.14.727-2.16.67-2.17.617-2.19.566-2.19.519-2.21.476-2.21.435-2.22.398-2.23.365-3.54.524-3.59.465-3.65.408-3.71.349-3.76.289-3.41.207-2.21.107-3.47.123-3.49.069-3.53.017-3.56-.037-3.59-.09-3.63-.145-3.67-.202-3.62-.251-3.61-.308-3.62-.366-3.6-.426-3.6-.486-3.58-.55-3.59-.613-3.57-.678-3.56-.743-2.85-.646-1.58-.379-1.56-.386-3.11-.813-3.1-.86-3.09-.904-3.08-.954-3.05-1.003-3.04-1.061-3.02-1.123-2.98-1.2-2.03-.877-1.92-.891-1.85-.916-1.8-.946-.43-.238-.84-.474-1.75-1.037-1.65-1.05-1.55-1.063-1.45-1.074-1.37-1.09-1.294-1.108-1.217-1.129-.811-.809-.782-.835-.748-.866-.705-.903-.656-.94-.603-.983-.544-1.023-.483-1.062-.23-.573-.35-.973-.289-.992-.226-1.015-.16-1.034-.093-1.049-.029-1.055Z" stroke="#fff" stroke-opacity=".3" stroke-width=".5" stroke-linecap="round" stroke-linejoin="round" stroke-dasharray="1 1"/><path d="m1010.39 145.451-2.49 1.479-1.58 1.008-1.48 1.013-1.38 1.024-1.74 1.382c-.2.16-.35.379-.42.626s-.06.51.02.753c.09.243.24.454.45.603.21.149.46.229.72.229h8.53c.33 0 .65-.131.88-.363.23-.233.37-.549.37-.878m-17.062 14.191c-.192 0-.382.045-.554.131-.172.087-.322.212-.437.366-.116.154-.194.332-.228.522-.034.189-.024.384.029.569l.5 1.717.308.855.192.481.428.941.471.888.525.855 1.192 1.707c.115.163.267.297.444.39.177.092.374.14.574.14h11.908c.33-.001.64-.131.87-.364.24-.233.37-.548.37-.877m-16.706-8.321h15.466c.33 0 .64.131.87.364.24.233.37.548.37.877v7.07m.47 9.54c0 .219-.06.434-.17.623-.11.189-.27.346-.46.455-.19.108-.41.164-.63.162-.22-.002-.43-.061-.62-.173l-2.49-1.479-1.58-1.006-1.48-1.015-1.38-1.023-1.75-1.393c-.21-.16-.35-.379-.42-.626-.08-.247-.07-.51.02-.753.08-.243.24-.453.45-.603.21-.149.46-.229.72-.229h8.54c.33 0 .65.131.88.363.23.233.37.549.37.878v5.808m-18.252-21.576.5-1.717.308-.855.192-.481.428-.942.471-.887.525-.854 1.192-1.708c.115-.164.267-.298.444-.39.177-.093.374-.141.574-.141h11.908c.33.001.64.132.87.365.24.232.37.548.37.876v7.08c0 .329-.13.645-.37.877-.23.233-.54.364-.87.364h-15.352c-.192 0-.382-.045-.554-.131-.172-.086-.322-.211-.437-.365-.116-.154-.194-.333-.228-.522-.034-.19-.024-.385.029-.569Zm19.482 15.768v7.714c0 .237.07.468.2.668.13.199.31.358.52.457l1.98.918 1.97.854 2.93 1.174 2.96 1.105 2.99 1.044 2.19.719c.19.061.39.077.58.047.19-.031.38-.107.54-.221.15-.115.28-.266.37-.441.09-.174.14-.367.14-.563V178.55c0-.329-.13-.645-.36-.878-.24-.232-.55-.363-.88-.363h-14.88c-.33 0-.65.131-.88.363-.23.233-.37.549-.37.878Zm16.13-2.482c.33 0 .64-.131.87-.363.24-.232.37-.547.37-.876v-1.902c0-.33-.13-.645-.36-.878-.24-.233-.55-.363-.88-.363h-14.88c-.33 0-.65.13-.88.363-.23.233-.37.548-.37.878v1.902c0 .329.14.644.37.876.23.232.55.363.88.363h14.88Zm-10.24-7.077c.33 0 .65-.13.88-.363.23-.232.36-.547.36-.876v-4.632c0-.329-.13-.645-.36-.878-.23-.232-.55-.363-.88-.363h-4.7c-.33 0-.64.131-.87.363-.24.233-.37.549-.37.878v4.632c0 .329.13.644.37.876.23.233.54.363.87.363h4.7Zm-4.19-14.388c-.33.001-.64.132-.88.365-.23.232-.36.548-.36.876v2.324c0 .329.13.644.36.876.24.232.55.363.88.363h3.53c.33 0 .64-.13.88-.363.23-.232.36-.547.36-.876v-2.324c0-.329-.13-.644-.36-.877-.24-.233-.55-.364-.88-.364h-3.53Zm17.12 13.363V162.039l.03-.138.03-.132.06-.13.07-.12.08-.114.09-.104.1-.093.12-.08.12-.068.13-.053.13-.039.14-.022.14-.009h2.89l.14.009.14.022.13.039.13.053.12.068.11.08.11.093.09.104.08.114.07.12.05.13.04.132.02.138.01.139v5.788l-.01.138-.02.138-.04.134-.05.127-.07.123-.08.114-.09.103-.11.092-.11.08-.12.068-.13.053-.13.039-.14.024-.14.007h-2.89l-.14-.007-.14-.024-.13-.039-.13-.053-.12-.068-.12-.08-.1-.092-.09-.103-.08-.114-.07-.123-.06-.127-.03-.134-.03-.138v-.138Zm1.03 9.343c-.33 0-.65.131-.88.363-.23.233-.36.549-.36.878v14.643c0 .268.08.529.25.744.16.215.38.372.64.447l3.16.925 3.06.85 3.08.804 1.53.381 1.56.37 2.57.583c.18.042.37.041.55-.001.18-.041.35-.123.5-.239.14-.117.26-.264.34-.432.08-.168.12-.352.12-.538V178.55c0-.329-.13-.644-.36-.877-.23-.233-.55-.364-.88-.364h-14.88Zm17.36 1.241v19.319c0 .289.1.568.29.79.18.222.44.373.72.427l3.54.672 3.53.605 3.55.542 4.33.588c.18.024.35.01.52-.041.17-.051.33-.138.46-.254.13-.117.24-.26.31-.421.08-.161.12-.336.12-.513V178.55c0-.329-.13-.644-.37-.877-.23-.233-.54-.364-.87-.364h-14.89c-.33 0-.64.131-.87.364-.24.233-.37.548-.37.877Zm19.85-1.241h14.83c.33 0 .65.131.88.364.23.233.36.548.36.877v23.217c0 .168-.03.335-.1.49-.07.154-.17.294-.29.41-.12.115-.26.205-.42.263-.16.058-.33.083-.5.074l-5.13-.28-3.59-.25-3.57-.304-2.6-.264c-.3-.031-.59-.174-.79-.402-.21-.227-.32-.523-.32-.83V178.55c0-.329.13-.645.36-.878.23-.232.55-.363.88-.363Zm10.21-10.213v-3.308l.01-.138.02-.137.04-.135.05-.127.07-.123.08-.112.09-.103.1-.094.12-.08.12-.068.13-.053.14-.039.13-.023.14-.007h2.89l.14.007.14.023.14.039.12.053.12.068.12.08.1.094.09.103.08.112.07.123.06.127.03.135.03.137v3.585l-.03.138-.03.133-.06.129-.07.122-.08.112-.09.104-.1.094-.12.079-.12.068-.12.053-.14.039-.14.024-.14.007h-2.89l-.14-.007-.13-.024-.14-.039-.13-.053-.12-.068-.12-.079-.1-.094-.09-.104-.08-.112-.07-.122-.05-.129-.04-.133-.02-.138-.01-.139Zm-47.42 4.59c-.33 0-.65.13-.88.363-.23.233-.36.548-.36.878v1.902c0 .329.13.644.36.876.23.232.55.363.88.363h14.88c.33 0 .65-.131.88-.363.23-.233.36-.548.36-.876v-1.902c0-.329-.13-.645-.36-.877-.23-.233-.55-.364-.88-.364h-14.88Zm17.36 1.241v1.902c0 .328.13.643.37.876.23.232.54.363.87.363h14.89c.33 0 .64-.131.87-.363.23-.233.37-.548.37-.876v-1.902c0-.329-.13-.645-.37-.877-.23-.233-.54-.364-.87-.364h-14.89c-.33 0-.64.131-.87.364-.24.232-.37.548-.37.877Zm18.61 0v1.902c0 .329.13.644.36.876.23.232.55.363.88.363h14.88c.33 0 .64-.131.88-.363.23-.232.36-.547.36-.876v-1.902c0-.33-.13-.645-.36-.878-.23-.233-.55-.363-.88-.363h-14.88c-.33 0-.65.13-.88.363-.23.233-.36.548-.36.878Zm19.02 30.139v-2.62l.03-.138.03-.132.06-.129.06-.123.09-.112.09-.104.1-.093.11-.08.13-.068.12-.053.14-.039.13-.022.14-.008h14.06l.14.008.13.022.14.039.13.053.12.068.12.08.1.093.09.104.08.112.07.123.06.129.03.132.02.138.01.14v2.48l-.01.137-.02.138-.03.134-.06.128-.07.122-.08.114-.09.104-.1.092-.12.081-.12.067-.13.052-.14.039-.13.024-.14.007h-14.06l-.14-.007-.13-.024-.14-.039-.12-.052-.13-.067-.11-.081-.1-.092-.09-.104-.09-.114-.06-.122-.06-.128-.03-.134-.03-.138v-.137Zm36.83-7.278.01.109.01.107.02.106.03.103.05.101.05.095.05.092.07.085.07.08.09.073.08.066.09.058.1.051.1.041.1.032.11.024.1.013.11.005h8.6l.11-.005.11-.013.1-.024.1-.032.1-.041.1-.051.09-.058.08-.066.09-.073.07-.08.07-.085.06-.092.04-.095.05-.101.03-.103.02-.106.01-.107.01-.109v-8.706l-.01-.107-.01-.108-.02-.105-.03-.104-.05-.1-.04-.095-.06-.092-.07-.087-.07-.078-.09-.073-.08-.066-.09-.058-.1-.051-.1-.041-.1-.032-.1-.024-.11-.014-.11-.005h-8.6l-.11.005-.1.014-.11.024-.1.032-.1.041-.1.051-.09.058-.08.066-.09.073-.07.078-.07.087-.05.092-.05.095-.05.1-.03.104-.02.105-.01.108-.01.107v8.706Zm10.47-30.344-2.19-6.756-5.75-4.175h-7.1l-5.75 4.175-2.19 6.756 2.19 6.755 5.75 4.175h7.1l5.75-4.175 2.19-6.755Zm-18.45-34.811v-.413l.01-.139.02-.136.04-.134.05-.13.07-.12.08-.114.09-.104.1-.093.12-.08.12-.068.13-.053.14-.037.13-.024.14-.009h.41l.15.009.13.024.14.037.12.053.13.068.11.08.1.093.09.104.09.114.06.12.06.13.03.134.03.136.01.139v.413l-.01.14-.03.136-.03.134-.06.129-.06.121-.09.114-.09.103-.1.092-.11.082-.13.066-.12.055-.14.037-.13.024-.15.008h-.41l-.14-.008-.13-.024-.14-.037-.13-.055-.12-.066-.12-.082-.1-.092-.09-.103-.08-.114-.07-.121-.05-.129-.04-.134-.02-.136-.01-.14Zm-9.26 0v-.413l.01-.139.02-.136.04-.134.05-.13.07-.12.08-.114.1-.104.09-.093.12-.08.12-.068.13-.053.14-.037.13-.024.14-.009h.41l.14.009.14.024.14.037.12.053.13.068.11.08.1.093.09.104.08.114.07.12.06.13.03.134.03.136V130.773l-.03.136-.03.134-.06.129-.07.121-.08.114-.09.103-.1.092-.11.082-.13.066-.12.055-.14.037-.14.024-.14.008h-.41l-.14-.008-.13-.024-.14-.037-.13-.055-.12-.066-.12-.082-.09-.092-.1-.103-.08-.114-.07-.121-.05-.129-.04-.134-.02-.136-.01-.14Zm-12.61-.124v-1.241l.01-.137.02-.138.04-.133.06-.129.06-.122.08-.112.1-.104.09-.094.12-.08.12-.068.13-.052.14-.039.13-.024.14-.007h4.14l.14.007.13.024.14.039.12.052.13.068.11.08.1.094.09.104.09.112.06.122.06.129.03.133.03.138.01.137v1.241l-.01.14-.03.136-.03.134-.06.129-.06.121-.09.114-.09.103-.1.094-.11.08-.13.068-.12.052-.14.038-.13.024-.14.008h-4.14l-.14-.008-.13-.024-.14-.038-.13-.052-.12-.068-.12-.08-.09-.094-.1-.103-.08-.114-.06-.121-.06-.129-.04-.134-.02-.136-.01-.14Zm-6.08 0v-1.241l.01-.137.03-.138.03-.133.06-.129.06-.122.09-.112.09-.104.1-.094.11-.08.13-.068.12-.052.14-.039.13-.024.14-.007h.42l.14.007.13.024.14.039.13.052.12.068.12.08.09.094.1.104.08.112.06.122.06.129.04.133.02.138.01.137v1.241l-.01.14-.02.136-.04.134-.06.129-.06.121-.08.114-.1.103-.09.094-.12.08-.12.068-.13.052-.14.038-.13.024-.14.008h-.42l-.14-.008-.13-.024-.14-.038-.12-.052-.13-.068-.11-.08-.1-.094-.09-.103-.09-.114-.06-.121-.06-.129-.03-.134-.03-.136-.01-.14Zm-35.96 10.667v-2.067l.01-.139.02-.138.03-.133.06-.129.07-.121.08-.114.09-.103.1-.094.11-.08.13-.068.12-.052.14-.039.14-.022.14-.009h2.89l.14.009.13.022.14.039.13.052.12.068.12.08.1.094.09.103.08.114.07.121.05.129.04.133.02.138.01.139v2.067l-.01.139-.02.136-.04.135-.05.127-.07.123-.08.113-.09.104-.1.092-.12.082-.12.066-.13.053-.14.039-.13.023-.14.007h-2.89l-.14-.007-.14-.023-.14-.039-.12-.053-.13-.066-.11-.082-.1-.092-.09-.104-.08-.113-.07-.123-.06-.127-.03-.135-.02-.136-.01-.139Zm.2-5.705v-1.654l.01-.139.03-.138.03-.132.06-.13.06-.12.09-.114.09-.104.1-.093.11-.08.13-.068.12-.053.14-.039.13-.022.14-.009h2.48l.14.009.14.022.14.039.12.053.12.068.12.08.1.093.09.104.08.114.07.12.06.13.03.132.03.138v1.931l-.03.138-.03.134-.06.127-.07.123-.08.112-.09.105-.1.092-.12.08-.12.068-.12.053-.14.039-.14.024-.14.006h-2.48l-.14-.006-.13-.024-.14-.039-.12-.053-.13-.068-.11-.08-.1-.092-.09-.105-.09-.112-.06-.123-.06-.127-.03-.134-.03-.138-.01-.138Z" stroke="#fff" stroke-opacity=".3" stroke-width=".5" stroke-linecap="round" stroke-linejoin="round" stroke-dasharray="17.52 8.76 0.02 8.76"/></svg>