<svg width="1776" height="330" viewBox="0 0 1776 330" fill="none" xmlns="http://www.w3.org/2000/svg"><path d="M1088.4 192.131h4.22" stroke="#fff" stroke-width=".5" stroke-linecap="round" stroke-linejoin="round"/><path d="m1155.08 193.642-.15-.385" stroke="#fff" stroke-width=".5" stroke-linecap="round" stroke-linejoin="round" stroke-dasharray="0.21 0.08 0 0.08"/><path d="m1133.65 183.757-.42.414m.42-.414-.42-.416m.42.416h-1.66m-2.72 0 .41.414m-.41-.414.41-.416m-.41.416h1.66M1109.72 141.093h-6.63m10.25-10.361h.35v-14.13l-1.75-.213-.03.329-.01 8.626h.38v5.388h.52" stroke="#fff" stroke-width=".5" stroke-linecap="round" stroke-linejoin="round"/><path d="M1113.34 130.557h.18v-13.8l-1.42-.173-.02.144v8.442h.37v5.387h.35" stroke="#fff" stroke-width=".5" stroke-linecap="round" stroke-linejoin="round"/><path d="M1113.34 130.392h.02v-13.488l-1.11-.135-.01 8.234h.38v5.389h.18M1160.66 132.67l-1.19-.576.07-.148 1.2.577m-72.34 80.418h.66v.165h-.66m14.69-71.072v.402h8.24v1.728l2.11 3.513-8.99 11.651h-4.23v1.036h3.96l.5-.17.3-.44 3.79-7.268 6.44-5.066.02-.005" stroke="#fff" stroke-width=".5" stroke-linecap="round" stroke-linejoin="round"/><path d="m1115.23 147.412-.24-.99h-1.3v-9.059h-1.41v3.73h-9.19v.402" stroke="#fff" stroke-width=".5" stroke-linecap="round" stroke-linejoin="round"/><path d="M1103.26 142.034v.228h8.25v1.854l2.16 3.621-9.08 11.765h-4.2v.688h3.79l.4-.134.23-.348 3.79-7.287 6.43-5.105-.18-.721h-1.33v-9.058h-1.07v3.73h-9.19v.228" stroke="#fff" stroke-width=".5" stroke-linecap="round" stroke-linejoin="round"/><path d="M1103.43 142.034v.053h8.25v1.981l2.2 3.667.95-.516-.11-.45h-1.37v-9.058h-.72v3.73h-9.2v.054m-2.86 18.52h3.61c.1 0 .2-.033.29-.094.08-.061.14-.147.17-.245h-4.07v.339ZM1100.33 191.136v-.249h-12.26v-7.895h10.15v-3.398h10.86v3.398h3.56v7.895h-5.68v1.244h7.22l.41-.112.3-.304.12-.414v-7.937l.22-.931-6.45-5.066-3.8-7.276-.3-.44-.5-.17h-3.96v1.036h3.24v7.46h-5.86v3.398h-7.88v-10.858h3.7v-1.036h-3.7v-.58h-1.41" stroke="#fff" stroke-width=".5" stroke-linecap="round" stroke-linejoin="round"/><path d="M1100.16 191.136v-.075h-12.27v-8.243h10.16v-3.399h11.21v3.399h3.56v8.243h-5.68v.895h7.04l.32-.087.24-.241.09-.327v-7.958l.2-.814-6.43-5.106-3.79-7.286-.23-.348-.4-.134h-3.79v.688h3.24v7.808h-5.86v3.398h-8.22v-11.206h3.7v-.688h-3.7v-.58h-1.24" stroke="#fff" stroke-width=".5" stroke-linecap="round" stroke-linejoin="round"/><path d="M1100.02 191.226h-12.29v-8.575h10.15v-.935h-8.5v-11.538h3.7v-.356h-3.7v-.582h-1.07m9.63 10.013h11.48v3.398h3.56v8.575h-5.68v.564h6.88c.13 0 .25-.051.34-.143.09-.092.14-.216.14-.346v-7.978l.18-.706c-2.48-1.246-4.66-2.997-6.41-5.139-1.76-2.142-3.04-4.628-3.78-7.297-.03-.103-.09-.193-.17-.258-.09-.065-.19-.1-.3-.101h-3.62v.356h3.24v8.138h-5.86v.937ZM1106.58 216.492l-1.75-2.227-16.43.637v-22.771h11.93v-.249" stroke="#fff" stroke-width=".5" stroke-linecap="round" stroke-linejoin="round"/><path d="m1106.41 216.564-1.66-2.118-16.53.628v-23.119h11.94v-.073" stroke="#fff" stroke-width=".5" stroke-linecap="round" stroke-linejoin="round"/><path d="m1106.69 219.365-.44-2.733-1.57-2.013-16.62.619V191.79h11.96M1107.03 110.534l-.7 4.381h-.93v1.011h-1.44v-1.011h-3.56v9.02h3.56v.405h1.41v1.004h-6.45v-.515h-.02v-9.914h-10.34v9.914h4.57v.515h-4.06v16.577h3.49v-.828h3.89v1.343h-7.89v16.892h4.86v1.036h-3.7v.579h-2.86" stroke="#fff" stroke-width=".5" stroke-linecap="round" stroke-linejoin="round"/><path d="m1106.85 110.507-.67 4.235h-.96v1.01h-1.08v-1.01h-3.92v9.367h3.57v.405h1.41v.656h-6.1v-.514h-.03v-9.914h-10.68v10.261l4.57.002v.165h-4.06v16.925h3.83v-.828h3.55v.995h-7.89v17.24h4.86v.688h-3.7v.58h-2.69" stroke="#fff" stroke-width=".5" stroke-linecap="round" stroke-linejoin="round"/><path d="m1106.69 110.482-.65 4.094h-.98v1.011h-.76v-1.011h-4.24v9.698h3.56v.407h1.41v.322h-5.77v-.512h-.02v-9.915h-11.02v10.594h.51v16.925h-.51v17.572h4.86v.356h-3.7v.581h-2.52" stroke="#fff" stroke-width=".5" stroke-linecap="round" stroke-linejoin="round"/><path clip-rule="evenodd" d="M1096.11 142.095h-3.21Zm0 0v-.663Zm-3.21 0v-.663Zm3.21-.663h-3.21ZM1096.45 141.577v.373Zm0 0h7.06Zm0 .373h7.06Zm7.06-.373v.373Zm-.42 0v.373Zm0 0h7.05Zm0 .373h7.05Zm7.05-.373v.373Zm2.75-4.214h.37Zm0 0v-7.055Zm.37 0v-7.055Zm-.37-7.055h.37Zm0 .424h.37Zm0 0v-7.055Zm.37 0v-7.055Zm-.37-7.055h.37Z" stroke="#fff" stroke-width=".5" stroke-linecap="round" stroke-linejoin="round"/><path d="M1086.86 168.901h1.08m-1.08.174h1.08M1086.86 169.24h1.08M1100.19 159.986v.39h.16v.012h-.16v-.002l-.01-.003v-.337h.01" stroke="#fff" stroke-width=".5" stroke-linecap="round" stroke-linejoin="round"/><path d="M1100.19 159.986h-.18V160.339l-.01.01-.02.003h-.13v.183h.52v-.159h-.17v-.012h.17v.002l.01.003v.171l-.01.005v.001h-.52v-.001l-.01-.005v-.195l.01-.005v-.001h.13l.01-.002.01-.004V159.976l.01-.002h.18l.01.002v.122h-.01m-6.74-.112v.39h-.17v.012h.17v-.002l.01-.003v-.338h-.01" stroke="#fff" stroke-width=".5" stroke-linecap="round" stroke-linejoin="round"/><path d="M1093.45 159.986h.18V160.339l.01.01.01.003h.13v.183h-.51v-.159h.16v-.012h-.16l-.01.002V160.545l.01.001h.51l.01-.001v-.005l.01-.005v-.183l-.01-.007v-.005l-.01-.001h-.13v-.002l-.01-.004V159.981l-.01-.005v-.002h-.18l-.01.002-.01.005v.117h.02" stroke="#fff" stroke-width=".5" stroke-linecap="round" stroke-linejoin="round"/><path d="M1093.79 160.028v-.011h-.11l-.01.011v.3l.01.002h.11v-.012m-.11-.012h6.28m-6.03-.278v-.017h.42v.017m-.13-.017v-.017h-.17v.017m0 .357v.104l.16.138c.03.026.07.04.11.04h.56c.03 0 .05-.004.07-.012.02-.009.04-.021.05-.037.02-.015.03-.034.04-.054.01-.02.01-.042.01-.064v-.081h-.04v.081m-.69-.787h.56l.09.022.06.062.02.083v.082h-.04v-.082l-.02-.063-.04-.046-.07-.015h-.49l-.09.022-.06.06-.02.083v.075h-.17v-.104l.16-.138.11-.041Z" stroke="#fff" stroke-width=".5" stroke-linecap="round" stroke-linejoin="round"/><path d="M1095.01 160.483c0 .033-.01.065-.04.088-.02.024-.05.037-.09.037h-.49c-.03 0-.05-.004-.07-.013-.02-.008-.04-.02-.05-.036-.02-.015-.03-.033-.04-.053 0-.02-.01-.042-.01-.064v-.074h-.17m.17-.033v.017h-.17v-.017m-.12-.017v.017h.42v-.017m5.5-.29v-.012h.11l.01.012v.3l-.01.002h-.11v-.012m.11 0v-.29" stroke="#fff" stroke-width=".5" stroke-linecap="round" stroke-linejoin="round"/><path d="M1099.96 160.318h-6.28v-.29h6.28m-6.28.012h6.28m.02-.01v-.194m-.09.097h.19m-.07.373h.03v-.266h-.03m-6.38.266h-.04v-.266h.04" stroke="#fff" stroke-width=".5" stroke-linecap="round" stroke-linejoin="round"/><path d="M1093.68 160.136h.62v.099h-.62m.49-.256v.373m-.06-.373v.373m5.82-.046v-.266" stroke="#fff" stroke-width=".5" stroke-linecap="round" stroke-linejoin="round"/><path d="M1099.89 153.737h.01v-.113l-.01-.011h-.29l-.01.001v.123h.01m.01-.113v6.283m.3-5.739h.01v-.165h-.01m-.36 0h-.1l-.14.157c-.03.03-.04.069-.04.109v.562c0 .022 0 .043.01.064.01.02.02.038.04.054.01.015.03.028.05.036.02.009.04.013.06.013h.09v-.043h-.09m.79-.686v.562l-.02.083-.06.06-.08.024h-.09v-.043h.09l.06-.017.04-.044.02-.063v-.498l-.02-.081-.06-.062-.09-.022h-.07v-.165h.1l.14.157.04.109Z" stroke="#fff" stroke-width=".5" stroke-linecap="round" stroke-linejoin="round" stroke-dasharray="0 0"/><path d="M1099.43 154.955c-.03 0-.06-.013-.08-.036-.03-.023-.04-.055-.04-.088v-.498c0-.043.02-.085.05-.116.03-.031.07-.049.11-.049h.08v-.165m.03.165h-.01v-.165h.01m.31 5.794h.01v.11l-.01.014h-.29l-.01-.002v-.122h.01m0 .11h.29" stroke="#fff" stroke-width=".5" stroke-linecap="round" stroke-linejoin="round" stroke-dasharray="0 0"/><path d="M1099.6 159.907v-6.282h.29v6.282m-.01-6.282v6.282" stroke="#fff" stroke-width=".5" stroke-linecap="round" stroke-linejoin="round" stroke-dasharray="0 0"/><path d="M1099.78 153.625v.622h-.1v-.622m.26.489h-.37m.37-.058h-.37m.04 5.819h.27m-.26-6.262c-.83.047-1.64.258-2.39.619-.75.362-1.42.867-1.97 1.488s-.98 1.344-1.25 2.129c-.28.785-.39 1.617-.35 2.447" stroke="#fff" stroke-width=".5" stroke-linecap="round" stroke-linejoin="round" stroke-dasharray="0 0"/><path d="M1093.45 170.128v.389h-.17v.013h.17v-.001l.01-.005v-.338h-.01m13.51 21.509v-.373h-7.05v.373h7.05Zm-6.63 0v-.373h-7.05v.373h7.05Z" stroke="#fff" stroke-width=".5" stroke-linecap="round" stroke-linejoin="round"/><path d="M1093.45 170.128h.18V170.479l.01.01.01.004h.13v.182h-.51v-.158h.16v-.012h-.16l-.01.001V170.685l.01.002h.51l.01-.002v-.005l.01-.005v-.182l-.01-.007v-.005l-.01-.002h-.13v-.002l-.01-.003V170.121l-.01-.005v-.001h-.18l-.01.001-.01.005V170.239h.02m6.74-.111v.389h.16v.013h-.16v-.001l-.01-.006v-.337h.01" stroke="#fff" stroke-width=".5" stroke-linecap="round" stroke-linejoin="round"/><path d="M1100.19 170.128h-.18V170.479l-.01.01-.02.004h-.13v.182h.52v-.158h-.17v-.012h.17v.001l.01.006v.168l-.01.005v.002h-.52v-.002l-.01-.005v-.194l.01-.005v-.002h.13l.01-.002.01-.003V170.116l.01-.001h.18l.01.001v.123h-.01" stroke="#fff" stroke-width=".5" stroke-linecap="round" stroke-linejoin="round"/><path d="M1099.85 170.169v-.012h.11l.01.012v.302l-.01.001h-.11v-.013m.11-.012h-6.28m6.03-.278v-.017h-.42v.017m.13-.017v-.015h.16v.015m0 .356v.104l-.15.138c-.04.026-.07.041-.11.041h-.57c-.04 0-.08-.017-.11-.048s-.05-.073-.05-.117v-.084h.04v.084m.69-.789h-.57l-.08.022-.06.061-.02.084v.082h.04v-.082l.02-.063.04-.045.06-.017h.5l.08.023.06.059.03.084v.075h.16v-.104l-.15-.138-.11-.041Z" stroke="#fff" stroke-width=".5" stroke-linecap="round" stroke-linejoin="round"/><path d="M1098.63 170.626c0 .016 0 .032.01.047.01.016.01.029.03.041.01.011.02.021.04.027.01.006.03.009.04.009h.5c.02 0 .04-.004.06-.012.03-.009.04-.021.06-.037.01-.015.03-.034.03-.054.01-.02.02-.042.02-.064v-.075h.16m-.16-.032v.017h.16v-.017m.13-.017v.017h-.42v-.017m-5.5-.29v-.012h-.11l-.01.012v.302l.01.001h.11v-.013m-.11 0v-.29" stroke="#fff" stroke-width=".5" stroke-linecap="round" stroke-linejoin="round"/><path d="M1093.68 170.459h6.28v-.29h-6.28m6.28.012h-6.28m-.03-.01v-.194m.1.097h-.2m.08.373h-.04v-.266h.04m6.38.266h.03v-.266h-.03" stroke="#fff" stroke-width=".5" stroke-linecap="round" stroke-linejoin="round"/><path d="M1099.96 170.277h-.62v.1h.62m-.49-.257v.373m.06-.373v.373m-5.82-.046v-.266" stroke="#fff" stroke-width=".5" stroke-linecap="round" stroke-linejoin="round"/><path d="M1093.75 163.878h-.01v-.111l.01-.014h.29v.002l.01.005V163.878h-.01m-.02-.111v6.283m-.29-5.741h-.02v-.165h.02m.36 0h.1l.14.156c.02.031.04.069.04.109v.563c0 .022 0 .043-.01.064-.01.02-.02.038-.04.054-.01.015-.03.028-.05.036-.02.008-.04.013-.07.013h-.08v-.043h.08m-.78-.687v.563l.02.083.06.062.08.022h.09v-.043h-.09l-.06-.015-.05-.046-.01-.063v-.496l.02-.084.06-.061.08-.022h.08v-.165h-.11l-.13.156-.04.109Z" stroke="#fff" stroke-width=".5" stroke-linecap="round" stroke-linejoin="round" stroke-dasharray="0 0"/><path d="M1094.2 165.096c.04 0 .07-.013.09-.036.03-.024.04-.055.04-.088v-.496c0-.022-.01-.044-.01-.064-.01-.021-.02-.039-.04-.055-.02-.015-.03-.027-.05-.036-.02-.008-.05-.012-.07-.012h-.07v-.165m-.04.165h.02v-.165h-.02m-.3 5.793h-.01v.113l.01.012h.29v-.002l.01-.005V169.937h-.01m0 .113h-.29" stroke="#fff" stroke-width=".5" stroke-linecap="round" stroke-linejoin="round" stroke-dasharray="0 0"/><path d="M1094.04 170.05v-6.283h-.29v6.283m.01-6.283v6.283" stroke="#fff" stroke-width=".5" stroke-linecap="round" stroke-linejoin="round" stroke-dasharray="0 0"/><path d="M1093.85 163.767v.622h.11v-.622m-.26.489h.37m-.37-.058h.37m-.05 5.818h-.26m6.21.422c.05-.83-.07-1.661-.34-2.446-.27-.786-.7-1.509-1.25-2.13s-1.22-1.127-1.97-1.488c-.75-.362-1.57-.573-2.4-.621" stroke="#fff" stroke-width=".5" stroke-linecap="round" stroke-linejoin="round" stroke-dasharray="0 0"/><path d="m1128.52 215.77-.14-.631-4.57-3.776-.13-.169-.05-.208v-3.522h.5v-8.737h-.5v-13.433h-.14l.02-.555.26.002 4.45-.338v.297" stroke="#fff" stroke-width=".5" stroke-linecap="round" stroke-linejoin="round"/><path d="m1128.9 215.275-4.2-3.474-.31-.402-.11-.498v-1.159l2.51-.55h-1.34l-.83-.343-.34-.826v-9.117l.16-.584.42-.428.59-.157h12.59v-6.54l.93-3.485 2.55-2.551 3.49-.933h4.97l3.42 1.387 1.48 3.375.03 3.071.1.474.26.666 3.01-1.198.74-.364-.58-.132-.45-.407-4.15-8.017h-14.78l-4.36.62v.997m34.7 17.73-.17-.313-5.78-2.088-.31-.208.18.3.04.034 5.31 1.916m-18.07-27.957h-6.72c-.4-.716-.76-1.458-1.06-2.22h.38c.25.593.52 1.174.83 1.74h6.48l.09.48Zm0-18.383-.09.48h-6.48c-.31.566-.58 1.147-.83 1.74h-.38c.3-.762.66-1.504 1.06-2.22h6.72ZM1142.29 158.367c-.76 2.074-1.15 4.264-1.16 6.472m0 .167c.01 2.208.41 4.397 1.16 6.47m-1.16-6.554h.17" stroke="#fff" stroke-width=".5" stroke-linecap="round" stroke-linejoin="round"/><path d="M1141.3 164.922c0-2.263.41-4.507 1.19-6.63h-.17" stroke="#fff" stroke-width=".5" stroke-linecap="round" stroke-linejoin="round"/><path d="M1142.32 158.292c-.78 2.122-1.19 4.367-1.19 6.63h.17c0 2.263.41 4.508 1.19 6.631h-.17" stroke="#fff" stroke-width=".5" stroke-linecap="round" stroke-linejoin="round"/><path d="M1141.13 164.922c0 2.264.41 4.509 1.19 6.631" stroke="#fff" stroke-width=".5" stroke-linecap="round" stroke-linejoin="round"/><path d="m1142.32 158.292-2.32 6.324 1.13.306" stroke="#fff" stroke-width=".5" stroke-linecap="round" stroke-linejoin="round" stroke-dasharray="0 0"/><path d="m1142.32 171.553-2.32-6.324 1.13-.307" stroke="#fff" stroke-width=".5" stroke-linecap="round" stroke-linejoin="round" stroke-dasharray="0 0"/><path d="m1169.47 128.004-5.9 2.13-.22.183-.7 1.218-.06.216.07.215.16.148 4.92 2.42.18.176.05.247-.11.228-.04.033-4.32-2.122-.52-.068-.47.267-2.94 3.727-.15.447.11.458.35.32 3.86 1.899-.32.489-4.05-1.991-.6-.073-.49.358-4.21 8.173h-15.04l-15.27-1.658-.58.008-.09-2.377.17-1.316 1.89.251-.21 1.602 1.93.254-.08.657 16.1 2.122.09-.658 3.7.487h6.64l8.82-16.592.23-.194 6.06-2.188" stroke="#fff" stroke-width=".5" stroke-linecap="round" stroke-linejoin="round"/><path d="m1167.78 135.004-4.2-2.063-.64-.084-.56.324-2.95 3.74-.19.541.14.553.42.389 3.68 1.811-.13.196-3.9-1.92-.73-.087-.59.431-4.18 8.093h-14.9l-15.28-1.658-.43.005-.08-2.192.15-1.129 1.54.204-.21 1.604 1.94.253-.09.658 16.45 2.166.09-.658 3.54.467h6.75l8.87-16.684.14-.113 6.12-2.21" stroke="#fff" stroke-width=".5" stroke-linecap="round" stroke-linejoin="round"/><path d="m1163.17 132.663-.5.099-.42.303-2.96 3.756-.22.726.27.709-.76.01-.59.475-1.31 2.158 5.77-10.853.03-.031 6.18-2.231.31-.593m-15.41 19.563 1.73-3.253c-.52 1.066-1.01 2.151-1.45 3.253h-.28Zm-10.28-.377 2.86.377h-2.91l.05-.377Zm-2.22.377h-2c-5.07-.787-10.17-1.341-15.29-1.658l-.26.001-.07-2.005.12-.943 1.2.159-.21 1.603 1.93.254-.08.658 14.66 1.931Z" stroke="#fff" stroke-width=".5" stroke-linecap="round" stroke-linejoin="round"/><path d="M1167.78 135.004v-.179l-.11-.134-4.92-2.42-.24-.213-.09-.303.08-.307.7-1.218.31-.259 5.83-2.093.2-.387" stroke="#fff" stroke-width=".5" stroke-linecap="round" stroke-linejoin="round"/><path d="m1163.17 132.663-.5-.244-.3-.27-.12-.391.1-.393.71-1.217.39-.332 5.78-2.071.17-.329M1155.05 193.566l-5.01 1.99m.25 1.193 1.54-.612m0 0-.23.539m.23-.539-.53-.232m1.55-1.152-5.78 2.297-.06-.153 5.78-2.297m2.29-.958-5.01 1.991m-5.8 2.22c-.24.092-.49.14-.74.141h-5.15m5.92-.064c-.25.097-.51.147-.77.146h-5.15M1128.19 215.848l-.12-.522-4.48-3.701-.22-.286-.08-.353v-3.861h.5v-8.057h-.5v-13.433h-.15l.04-1.242.58.008 4.8-.366v.665" stroke="#fff" stroke-width=".5" stroke-linecap="round" stroke-linejoin="round"/><path d="m1128.35 215.807-.12-.578-4.53-3.738-.17-.225-.06-.28v-3.687h.5v-8.405h-.5v-13.433h-.15l.02-.891.43.005 4.61-.353v.478" stroke="#fff" stroke-width=".5" stroke-linecap="round" stroke-linejoin="round"/><path d="m1129.21 215.086-4.29-3.548-.22-.284-.08-.353v-.884l3.4-.748.24-.145.09-.259v-.012h-2.9l-.59-.244-.24-.586v-9.117l.11-.414.3-.303.42-.113h12.93v-6.879l.89-3.314 2.42-2.429 3.32-.887h4.97l3.18 1.29 1.38 3.14.03 3.067.12.597.39.981 3.34-1.327 5.32-2.616-.32-.489-4.05 1.99-.6.074-.49-.358-4.21-8.173h-15.04l-4.67.66v1.297" stroke="#fff" stroke-width=".5" stroke-linecap="round" stroke-linejoin="round"/><path d="m1129.05 215.183-4.24-3.51-.27-.346-.09-.426v-1.026l3.54-.777.12-.071h-2.66l-.71-.294-.29-.71v-9.117l.13-.502.37-.367.5-.134h12.75v-6.706l.92-3.401 2.49-2.492 3.4-.911h4.97l3.3 1.339 1.43 3.262.04 3.069.1.533.33.82 3.17-1.261 5.13-2.526-.13-.196-3.9 1.923-.73.085-.59-.431-4.18-8.093h-14.9l-4.52.641v1.142m34.94 17.142-5.9-2.131-.22-.183-.7-1.218-.06-.217.07-.213.16-.15 4.92-2.419.18-.174.05-.249-.11-.228-5.92 2.915-.16.15-.06.21.06.211 1.25 2.146.21.182 5.19 1.871" stroke="#fff" stroke-width=".5" stroke-linecap="round" stroke-linejoin="round"/><path d="m1169.54 202.354-.19-.372-5.84-2.108-.31-.259-.7-1.218-.08-.307.09-.303.24-.212 4.92-2.421.1-.111.02-.153-5.77 2.84-.09.087-.03.121.03.121 1.25 2.146.12.105 5.25 1.895.27.525m-.39-.385.24.467m0-.741.3.583m.5-.812.23.431m-63.29 14.291.44 2.774m-.27-2.846.45 2.819m44.3-45.371h.59l.1.515h-8.33c-.54-.927-1-1.898-1.37-2.902h1.11c.24.594.5 1.175.8 1.741h6.05c-.97-5.539-.97-11.204 0-16.744h-6.05c-.3.567-.56 1.148-.8 1.742h-1.11c.37-1.004.83-1.975 1.37-2.902h8.33l-.1.515h-.59" stroke="#fff" stroke-width=".5" stroke-linecap="round" stroke-linejoin="round"/><path d="M1151.33 155.905c-1.13 5.958-1.13 12.077 0 18.035m-.56.174h1l.04.167h-8.02c-.47-.82-.88-1.674-1.21-2.554h.73c.24.594.51 1.175.81 1.741h6.36" stroke="#fff" stroke-width=".5" stroke-linecap="round" stroke-linejoin="round"/><path d="M1150.48 173.468c-1.01-5.652-1.01-11.439 0-17.091h-6.35c-.3.566-.58 1.147-.82 1.741h-.73c.33-.881.74-1.735 1.21-2.554h8.02l-.04.167h-1" stroke="#fff" stroke-width=".5" stroke-linecap="round" stroke-linejoin="round"/><path d="M1150.77 155.731c-1.17 6.071-1.17 12.312 0 18.383m-107.46-12.722h1.16v-34.068h22.96" stroke="#fff" stroke-width=".5" stroke-linecap="round" stroke-linejoin="round"/><path d="M1043.31 161.218h.99v-34.067h23.2" stroke="#fff" stroke-width=".5" stroke-linecap="round" stroke-linejoin="round"/><path d="M1043.31 161.051h.83v-34.066h23.43m-18.96 33.701h1.83v-1.823h-1.83v1.823Zm.18-.174h1.47v-1.474h-1.47v1.474Zm.16-.165h1.15v-1.143h-1.15v1.143Z" stroke="#fff" stroke-width=".5" stroke-linecap="round" stroke-linejoin="round"/><path d="M1063.26 137.479h-8.42v1.716h7.72" stroke="#fff" stroke-width=".5" stroke-linecap="round" stroke-linejoin="round"/><path d="M1063.19 137.653h-8.18v1.368h7.62" stroke="#fff" stroke-width=".5" stroke-linecap="round" stroke-linejoin="round"/><path d="M1063.12 137.818h-7.94v1.036h7.52" stroke="#fff" stroke-width=".5" stroke-linecap="round" stroke-linejoin="round"/><path d="M1061.96 160.095h-1.49v-9.42h-5.81v-1.328h29.1v-22.023h-15.92" stroke="#fff" stroke-width=".5" stroke-linecap="round" stroke-linejoin="round"/><path d="M1061.96 159.921h-1.32v-9.422h-5.8v-.978h29.09v-22.37h-16.02" stroke="#fff" stroke-width=".5" stroke-linecap="round" stroke-linejoin="round"/><path d="M1061.96 159.754h-1.16v-9.42h-5.8v-.646h29.1v-22.703h-16.12" stroke="#fff" stroke-width=".5" stroke-linecap="round" stroke-linejoin="round"/><path d="M1061.96 160.882h2.74v-4.809h7.62v2.757h13.26v1.764h.72" stroke="#fff" stroke-width=".5" stroke-linecap="round" stroke-linejoin="round"/><path d="M1061.96 160.707h2.57V155.9h7.97v2.757h13.25v1.763h.55" stroke="#fff" stroke-width=".5" stroke-linecap="round" stroke-linejoin="round"/><path d="M1061.96 160.541h2.4v-4.807h8.3v2.757h13.26v1.764h.38" stroke="#fff" stroke-width=".5" stroke-linecap="round" stroke-linejoin="round"/><path d="m1072.73 158.83 5.2 1.394.18-1.394" stroke="#fff" stroke-width=".5" stroke-linecap="round" stroke-linejoin="round" stroke-dasharray="0 0"/><path d="M1061.96 169.472h-9.43v-1.131h-.91v.315h-7.99m18.33 1.157h-9.77v-1.131h-.23v.315h-8.33m18.33.651h-9.6v-1.132h-.56v.314h-8.17m18.36-.198h14.5v-.291h.91v1.131h8.86m-24.25-.666h14.65v-.29h.57v1.132h9.55m.01.165h-9.73v-1.131h-.23v.289H1062" stroke="#fff" stroke-width=".5" stroke-linecap="round" stroke-linejoin="round"/><path d="m1060.47 154.253-2.65 4.589 2.65.711" stroke="#fff" stroke-width=".5" stroke-linecap="round" stroke-linejoin="round" stroke-dasharray="0 0"/><path d="m1104.89 219.68.42.496.45.462.43.387.32.254.1.076.43.28.44.244.46.216.47.193.5.175.19.055m-4.22-112.353.43-.496.44-.462.43-.387.32-.254.1-.077.43-.279.44-.244.46-.214.48-.195.49-.175.19-.055" stroke="#fff" stroke-width=".5" stroke-linecap="round" stroke-linejoin="round"/><path clip-rule="evenodd" d="m823.562 113.261-4.473.221-.002-3.316 193.133-9.546v8.987l.08-.015 3.62-.665 3.75-.644 3.83-.61 4.25-.617 4.24-.547 4.23-.48 4.22-.416 4.23-.349 4.23-.288 4.26-.224 4.28-.163 4.33-.103 4.36-.044 4.41.016 4.46.069 4.54.126 2.88.108 4.25.203 4.19.25 4.13.303 4.07.358 4.03.409 3.97.467 2.03.269v4.458l3.59.453 3.82.546 3.82.615 3.83.683 3.84.755 3.89.83 3.48.799 3.37.827 3.28.859 3.2.899 3.14.948 3.09 1.002 3.07 1.061 3.06 1.13 3.06 1.203 3.08 1.285-.06-.026-.03-.02.01-.009.05.007.09.024.14.046.2.07.25.099.32.133.39.168.45.208.54.251.62.3.7.349.8.404.89.462.99.523 1.09.59 1.2.657 1.32.731 1.44.806 2.01 1.166 1.9 1.155 1.81 1.156 1.73 1.167 1.65 1.189 1.6 1.224 1.54 1.269 1.51 1.323 1.48 1.39 1.03 1.024 1.03 1.077.97 1.094.92 1.108.85 1.125.8 1.138.74 1.155.69 1.169.62 1.186.56 1.202.52 1.218.45 1.234.39 1.249.33 1.266.27 1.281.21 1.299.16 1.315.09 1.331.03 1.266-.03 1.266-.09 1.331-.16 1.316-.21 1.298-.27 1.282-.33 1.266-.39 1.249-.45 1.234-.52 1.218-.56 1.201-.62 1.186-.69 1.169-.74 1.156-.8 1.138-.85 1.125-.92 1.107-.97 1.094-1.03 1.077-1.03 1.024-1.48 1.391-1.51 1.322-1.54 1.27-1.6 1.223-1.65 1.19-1.73 1.167-1.81 1.155-1.9 1.156-2.01 1.165-1.44.806-1.32.731-1.2.658-1.09.59-.99.523-.89.462-.8.403-.7.35-.62.3-.54.25-.45.208-.39.169-.32.133-.25.099-.2.071-.14.044-.09.024-.05.007-.01-.008.03-.021.06-.025-3.08 1.284-3.06 1.203-3.06 1.13-3.07 1.062-3.09 1.002-3.14.947-3.2.9-3.28.861-3.37.824-3.48.8-3.89.829-3.84.755-3.83.684-3.82.615-3.82.545-3.59.453v4.458l-2.03.269-3.97.467-4.03.411-4.07.356-4.13.303-4.19.251-4.25.203-2.88.107-4.54.126-4.46.07-4.41.015-4.36-.044-4.33-.102-4.28-.164-4.26-.223-4.23-.286-4.23-.351-4.22-.414-4.23-.483-4.24-.547-4.25-.617-3.83-.61-3.75-.642-3.62-.666-.08-.016v8.988l-193.133-9.547.002-3.316 4.463.222-.007-5.918-.046-17.753-.002-.039-.005-.045-.015-.097-.019-.109-.092-.564-.096-.41-.078-.261-.201-.571-.039-.101-.247-.543-.29-.522-.276-.417-.188-.252-.102-.121-.497-.556-.953-1.053-.305-.375-.126-.163-.472-.622-.373-.564-.593-.973-.162-.287-.418-.814-.245-.554-.406-1.024-.133-.377-.248-.862-.157-.571-.087-.426-.031-.146-.131-.631-.015-.095-.014-.135-.022-.216-.157-1.268-.29-2.355-.332-2.669-.049-.615-.026-.67-.082-2.063-.133-3.25-.025-.63.017-.764.058-1.068.043-.953.081-2.038.092-2.114.028-.295.054-.418.266-2.13.307-2.486.199-1.65.01-.059.021-.096.01-.044.083-.382.207-.92.124-.45.009-.03.085-.295.138-.435.407-1.102.065-.155.131-.275.036-.076.298-.638.199-.376.14-.254.196-.36.203-.344.257-.39.389-.579.341-.457.489-.614.674-.763.328-.348.506-.562.313-.416.283-.441.167-.297.257-.514.213-.52.011-.026.168-.536.126-.544.082-.557.041-.571.005-.278.038-23.016Z" stroke="#fff" stroke-width=".5" stroke-linecap="round" stroke-linejoin="round"/><path d="M1024.67 100.003v7.513m0 114.814v7.51m-11.78-72.46v.108l.02.107.02.107.03.103.04.1.05.096.06.092.07.087.07.08.08.073.09.065.09.059.1.05.1.041.1.032.11.024.1.015.11.004h17.74l.11-.004.1-.015.11-.024.1-.032.1-.041.1-.05.09-.059.09-.065.08-.073.07-.08.07-.087.05-.092.05-.096.05-.1.03-.103.02-.107.02-.107V137.378l-.02-.107-.02-.106-.03-.104-.05-.1-.05-.096-.05-.092-.07-.085-.07-.08-.08-.073-.09-.067-.09-.058-.1-.049-.1-.043-.1-.032-.11-.024-.1-.014-.11-.005h-17.74l-.11.005-.1.014-.11.024-.1.032-.1.043-.1.049-.09.058-.09.067-.08.073-.07.08-.07.085-.06.092-.05.096-.04.1-.03.104-.02.106-.02.107V157.38Zm0-23.706v.109l.02.107.02.106.03.104.04.1.05.096.06.092.07.085.07.08.08.073.09.067.09.058.1.051.1.041.1.032.11.024.1.013.11.006h17.74l.11-.006.1-.013.11-.024.1-.032.1-.041.1-.051.09-.058.09-.067.08-.073.07-.08.07-.085.05-.092.05-.096.05-.1.03-.104.02-.106.02-.107V113.673l-.02-.107-.02-.106-.03-.104-.05-.1-.05-.096-.05-.092-.07-.087-.07-.08-.08-.073-.09-.065-.09-.058-.1-.051-.1-.041-.1-.032-.11-.024-.1-.014-.11-.005h-17.74l-.11.005-.1.014-.11.024-.1.032-.1.041-.1.051-.09.058-.09.065-.08.073-.07.08-.07.087-.06.092-.05.096-.04.1-.03.104-.02.106-.02.107v20.001Zm-21.553 58.684.005.109.014.107.024.106.032.104.041.1.051.096.058.092.067.085.071.08.082.073.085.067.092.058.096.051.1.041.104.032.106.024.107.013.107.006h17.741l.11-.006.1-.013.11-.024.1-.032.1-.041.1-.051.09-.058.09-.067.08-.073.07-.08.07-.085.05-.092.05-.096.05-.1.03-.104.02-.106.02-.107V172.357l-.02-.107-.02-.106-.03-.104-.05-.1-.05-.096-.05-.092-.07-.087-.07-.08-.08-.073-.09-.065-.09-.058-.1-.051-.1-.041-.1-.032-.11-.024-.1-.014-.11-.005h-17.741l-.107.005-.107.014-.106.024-.104.032-.1.041-.096.051-.092.058-.085.065-.082.073-.071.08-.067.087-.058.092-.051.096-.041.1-.032.104-.024.106-.014.107-.005.108v19.893Zm0 23.706.005.108.014.107.024.107.032.103.041.1.051.097.058.091.067.087.071.08.082.073.085.065.092.059.096.05.1.041.104.032.106.024.107.015.107.004h17.741l.11-.004.1-.015.11-.024.1-.032.1-.041.1-.05.09-.059.09-.065.08-.073.07-.08.07-.087.05-.091.05-.097.05-.1.03-.103.02-.107.02-.107V196.062l-.02-.107-.02-.106-.03-.104-.05-.1-.05-.096-.05-.092-.07-.085-.07-.08-.08-.073-.09-.067-.09-.058-.1-.049-.1-.043-.1-.032-.11-.024-.1-.014-.11-.005h-17.741l-.107.005-.107.014-.106.024-.104.032-.1.043-.096.049-.092.058-.085.067-.082.073-.071.08-.067.085-.058.092-.051.096-.041.1-.032.104-.024.106-.014.107-.005.109v19.893Zm133.443-20.723.01.109.01.108.03.105.03.104.04.101.05.095.06.092.06.086.08.08.08.073.09.066.09.058.1.052.1.04.09.033.11.024.11.013.11.005h8.62l.11-.005.1-.013.11-.024.1-.033.1-.04.1-.052.09-.058.08-.066.09-.073.07-.08.07-.086.06-.092.05-.095.04-.101.03-.104.02-.105.01-.108.01-.109v-8.728l-.01-.107-.01-.107-.02-.106-.03-.104-.04-.101-.05-.095-.06-.092-.07-.087-.07-.078-.09-.074-.08-.066-.09-.058-.1-.051-.1-.041-.1-.032-.11-.024-.1-.014-.11-.005h-8.62l-.11.005-.11.014-.11.024-.09.032-.1.041-.1.051-.09.058-.09.066-.08.074-.08.078-.06.087-.06.092-.05.095-.04.101-.03.104-.03.106-.01.107-.01.107v8.728Z" stroke="#fff" stroke-width=".5" stroke-linecap="round" stroke-linejoin="round"/><path d="m1109.08 107.021-.34-.045-1.7-.216-1.7-.208-1.71-.194-1.72-.188-1.73-.177-1.75-.167-1.76-.157-1.78-.148-1.81-.138-1.83-.131-1.86-.12-1.89-.112-1.93-.102-1.96-.094-2.01-.085-2.06-.073-.13-.004-2.17-.068-2.15-.053-2.13-.041-2.13-.027-2.11-.017-2.12-.003-2.07.012-2.01.022-1.96.034-1.93.046-1.88.056-1.86.066-1.82.079-1.8.088-1.78.098-1.77.107-1.74.118-1.74.129-1.74.138-1.72.148-1.72.159-1.73.17-1.72.181-1.72.192-1.74.205-1.74.216-1.75.229-1.76.242-1.78.255-.44.065-1.36.204-1.81.283-1.83.299-1.96.33-2 .351-1.93.349-1.57.295v110.607l7.46 1.325 5 .786.41.061 1.8.259 1.79.246 1.78.231 1.76.219 1.76.206 1.75.194 1.74.182 1.74.171 1.74.16 1.74.15 1.74.138 1.75.128 1.77.116 1.77.107 1.79.097 1.81.087 1.83.075 1.87.066 1.89.055 1.92.044 1.96.033 2.02.022 2.06.008 2.1-.005 2.1-.017 2.09-.029 2.12-.041 2.12-.054 2.14-.067.44-.013 2.06-.079 2.01-.085 1.96-.097 1.92-.104 1.88-.114 1.86-.123 1.82-.133 1.8-.139 1.78-.15 1.76-.161 1.73-.167 1.72-.177 1.71-.187 1.69-.198 1.69-.206 1.67-.218.04-.004m-96.86-63.539h21.55v-47.41h-21.55m0 23.705h21.55m53.05 34.979h-96.146v47.41h21.546m74.6-92.335h-43.51v33.651m-52.636 34.979h21.546m0 13.759h74.6m-267.938-97.847 205.778-10.171m0 129.835-205.778-10.172m150.71-96.67 4.178-1.902 6.528-2.611m0 92.874-6.494-2.632-4.212-1.88m-34.739-53.197h6.504m-8.186 16.909h7.331m-114.773-5.637h74.598V106.15m186.493-1.166v119.877m-6.21-54.302v37.464m-256.058 8.631V113.191m150.374 7.421v6.639m0 75.343v6.639m55.944-102.57v5.212m0 106.386v4.921m18.65-118.227v6.423m0 107.089v6.423m18.65-120.434v7.252m0 106.428v7.253m55.95-40.681h12.43v12.54h-12.43v-12.54Z" stroke="#fff" stroke-width=".5" stroke-linecap="round" stroke-linejoin="round"/><path d="M1024.63 100.007v7.521l.08-.025v-7.5l-.05.002m-.03 129.833v-7.52l.08.024v7.499l-.05-.001" stroke="#fff" stroke-width=".5" stroke-linecap="round" stroke-linejoin="round"/><path clip-rule="evenodd" d="m1124.78 195.341.01.11.01.107.03.106.03.103.04.101.05.095.06.092.06.086.08.08.08.073.09.066.09.058.1.052.1.04.09.033.11.024.11.013.11.005h8.62l.11-.005.1-.013.11-.024.1-.033.1-.04.1-.052.09-.058.08-.066.09-.073.07-.08.07-.086.06-.092.05-.095.04-.101.03-.103.02-.106.01-.107.01-.11v-8.728l-.01-.107-.01-.107-.02-.106-.03-.104-.04-.101-.05-.095-.06-.092-.07-.087-.07-.078-.09-.074-.08-.066-.09-.058-.1-.051-.1-.041-.1-.032-.11-.024-.1-.014-.11-.005h-8.62l-.11.005-.11.014-.11.024-.09.032-.1.041-.1.051-.09.058-.09.066-.08.074-.08.078-.06.087-.06.092-.05.095-.04.101-.03.104-.03.106-.01.107-.01.107v8.728Zm-142.052 26.555v-12.309l1.215.748.525.312 2.091 1.195.029.015v10.403l-3.86-.364Z" stroke="#fff" stroke-width=".5" stroke-linecap="round" stroke-linejoin="round" stroke-dasharray="17.52 8.76 0.02 8.76"/><path clip-rule="evenodd" d="m1023.94 100.041-.03 7.695-.31.087-.74.22.03-7.949 1.05-.053Z" stroke="#fff" stroke-width=".3" stroke-linecap="round" stroke-linejoin="round" stroke-dasharray="17.52 8.76 0.02 8.76"/><path clip-rule="evenodd" d="m1022.89 100.092-.02 7.951-1.07.307.02-8.205 1.07-.053Z" stroke="#fff" stroke-width=".3" stroke-linecap="round" stroke-linejoin="round" stroke-dasharray="17.52 8.76 0.02 8.76"/><path clip-rule="evenodd" d="m1021.83 100.145-.03 8.206-1.1.307.03-8.459 1.1-.054Z" stroke="#fff" stroke-width=".3" stroke-linecap="round" stroke-linejoin="round" stroke-dasharray="17.52 8.76 0.02 8.76"/><path clip-rule="evenodd" d="m1020.73 100.199-.03 8.459-.47.126-.66.188.04-8.716 1.12-.057Z" stroke="#fff" stroke-width=".3" stroke-linecap="round" stroke-linejoin="round" stroke-dasharray="17.52 8.76 0.02 8.76"/><path clip-rule="evenodd" d="m1019.61 100.256-.03 8.718-1.14.316.04-8.98 1.13-.054Z" stroke="#fff" stroke-width=".3" stroke-linecap="round" stroke-linejoin="round" stroke-dasharray="17.52 8.76 0.02 8.76"/><path clip-rule="evenodd" d="m1018.48 100.31-.03 8.98-1.18.321.03-9.241 1.18-.06Z" stroke="#fff" stroke-width=".3" stroke-linecap="round" stroke-linejoin="round" stroke-dasharray="17.52 8.76 0.02 8.76"/><path clip-rule="evenodd" d="m1017.31 100.37-.04 9.243-.36.095-.86.244.03-9.522 1.23-.06Z" stroke="#fff" stroke-width=".3" stroke-linecap="round" stroke-linejoin="round" stroke-dasharray="17.52 8.76 0.02 8.76"/><path clip-rule="evenodd" d="m1016.08 100.429-.03 9.523-1.28.352.03-9.812 1.28-.063Z" stroke="#fff" stroke-width=".3" stroke-linecap="round" stroke-linejoin="round" stroke-dasharray="17.52 8.76 0.02 8.76"/><path clip-rule="evenodd" d="m1014.81 100.492-.04 9.812-1.04.28-.3.085.03-10.11 1.35-.067Z" stroke="#fff" stroke-width=".3" stroke-linecap="round" stroke-linejoin="round" stroke-dasharray="17.52 8.76 0.02 8.76"/><path clip-rule="evenodd" d="m1013.46 100.559-.03 10.11-1.42.395.04-10.435 1.41-.07ZM1012.05 100.629l-.04 10.435-1.38.374-.11.034.04-10.77 1.49-.073Z" stroke="#fff" stroke-width=".3" stroke-linecap="round" stroke-linejoin="round" stroke-dasharray="17.52 8.76 0.02 8.76"/><path d="m1008.93 111.918 1.59-.446.04-10.77-1.59.078m-.04 11.138.04-11.138m-.04 11.138-.71.194-.35.099-.63.188.04-11.535 1.69-.084" stroke="#fff" stroke-width=".3" stroke-linecap="round" stroke-linejoin="round" stroke-dasharray="17.52 8.76 0.02 8.76"/><path clip-rule="evenodd" d="m1007.28 100.864-.04 11.536-1.81.52.04-11.966 1.81-.09Z" stroke="#fff" stroke-width=".3" stroke-linecap="round" stroke-linejoin="round" stroke-dasharray="17.52 8.76 0.02 8.76"/><path clip-rule="evenodd" d="m1005.47 100.954-.04 11.964-.28.077-1.66.505.04-12.45 1.94-.096ZM1003.53 101.05l-.04 12.449-1.21.358-.88.28.04-12.985 2.09-.102Z" stroke="#fff" stroke-width=".3" stroke-linecap="round" stroke-linejoin="round" stroke-dasharray="17.52 8.76 0.02 8.76"/><path clip-rule="evenodd" d="m1001.44 101.154-.04 12.979-.45.135-1.812.586.046-13.59 2.256-.11Z" stroke="#fff" stroke-width=".3" stroke-linecap="round" stroke-linejoin="round" stroke-dasharray="17.52 8.76 0.02 8.76"/><path clip-rule="evenodd" d="m999.184 101.265-.046 13.589-.944.302-1.423.487.048-14.263 2.365-.115Z" stroke="#fff" stroke-width=".3" stroke-linecap="round" stroke-linejoin="round" stroke-dasharray="17.52 8.76 0.02 8.76"/><path clip-rule="evenodd" d="m996.819 101.382-.046 14.261-1.351.457-1.052.38.05-14.979 2.399-.119Z" stroke="#fff" stroke-width=".3" stroke-linecap="round" stroke-linejoin="round" stroke-dasharray="17.52 8.76 0.02 8.76"/><path clip-rule="evenodd" d="m994.42 101.5-.048 14.982-1.719.613-.764.293.05-15.766 2.481-.122Z" stroke="#fff" stroke-width=".3" stroke-linecap="round" stroke-linejoin="round" stroke-dasharray="17.52 8.76 0.02 8.76"/><path clip-rule="evenodd" d="m991.939 101.622-.05 15.766-2.002.757-.62.25.051-16.643 2.621-.13Z" stroke="#fff" stroke-width=".3" stroke-linecap="round" stroke-linejoin="round" stroke-dasharray="17.52 8.76 0.02 8.76"/><path clip-rule="evenodd" d="m989.318 101.752-.051 16.645-.82.317-2.016.833.053-17.654 2.834-.141Z" stroke="#fff" stroke-width=".3" stroke-linecap="round" stroke-linejoin="round" stroke-dasharray="17.52 8.76 0.02 8.76"/><path clip-rule="evenodd" d="m986.484 101.893-.053 17.656-.98.402-2.16.944.054-18.847 3.139-.155Z" stroke="#fff" stroke-width=".3" stroke-linecap="round" stroke-linejoin="round" stroke-dasharray="17.52 8.76 0.02 8.76"/><path clip-rule="evenodd" d="m983.345 102.048-.054 18.849-.811.352-2.875 1.326-.039.019.056-20.363 3.723-.183Z" stroke="#fff" stroke-width=".3" stroke-linecap="round" stroke-linejoin="round" stroke-dasharray="17.52 8.76 0.02 8.76"/><path clip-rule="evenodd" d="m979.622 102.232-.056 20.362-.055.026-.976.465-1.87.908-.819.411.056-21.989 3.72-.183Z" stroke="#fff" stroke-width=".3" stroke-linecap="round" stroke-linejoin="round" stroke-dasharray="17.52 8.76 0.02 8.76"/><path clip-rule="evenodd" d="m975.902 102.415-.056 21.989-.92.458v-13.845l-2.821.126.021-8.541 3.776-.187ZM972.126 102.602l-.021 8.541-3.899.17.021-8.518 3.899-.193Z" stroke="#fff" stroke-width=".3" stroke-linecap="round" stroke-linejoin="round" stroke-dasharray="17.52 8.76 0.02 8.76"/><path d="m963.975 111.497 4.232-.184.02-8.518-4.233.209m-.019 8.493.019-8.493m-.019 8.493-4.186.177.017-8.464 4.188-.206M955.632 111.848l4.156-.174.018-8.464-4.158.207m-.016 8.431.016-8.431m-.016 8.431-4.137.171.013-8.398 4.14-.204" stroke="#fff" stroke-width=".3" stroke-linecap="round" stroke-linejoin="round" stroke-dasharray="17.52 8.76 0.02 8.76"/><path clip-rule="evenodd" d="m951.509 103.621-.014 8.398-4.131.165.012-8.358 4.133-.205Z" stroke="#fff" stroke-width=".3" stroke-linecap="round" stroke-linejoin="round" stroke-dasharray="17.52 8.76 0.02 8.76"/><path d="m943.225 112.348 4.139-.164.012-8.358-4.139.204m-.012 8.318.012-8.318m-.012 8.318-3.837.148.01-8.277m3.839-.189-3.839.189m0 0-.01 8.27-3.819.145.008-8.226m3.821-.189-3.821.189m0 0-.008 8.221-3.844.143.006-8.173 3.846-.191Z" stroke="#fff" stroke-width=".3" stroke-linecap="round" stroke-linejoin="round" stroke-dasharray="17.52 8.76 0.02 8.76"/><path clip-rule="evenodd" d="m931.731 104.599-.006 8.174-3.92.144.007-8.125 3.919-.193Z" stroke="#fff" stroke-width=".3" stroke-linecap="round" stroke-linejoin="round" stroke-dasharray="17.52 8.76 0.02 8.76"/><path clip-rule="evenodd" d="m927.812 104.792-.007 8.125-4.042.146.004-8.07 4.045-.201ZM923.767 104.993l-.004 8.07-5.223.186.002-7.999 5.225-.257Z" stroke="#fff" stroke-width=".3" stroke-linecap="round" stroke-linejoin="round" stroke-dasharray="17.52 8.76 0.02 8.76"/><path d="M913.331 105.508v7.918l5.209-.177.002-7.997-5.211.256Zm0 0v7.917l-5.209.173-.002-7.833 5.211-.257ZM902.901 113.769l5.221-.171-.002-7.833-5.221.259m.002 7.745-.002-7.745m.002 7.745-5.244.169m5.242-7.914-5.245.259m.003 7.655-.003-7.655m.003 7.655-5.281.167-.006-7.561 5.284-.261" stroke="#fff" stroke-width=".3" stroke-linecap="round" stroke-linejoin="round" stroke-dasharray="17.52 8.76 0.02 8.76"/><path clip-rule="evenodd" d="m892.369 106.543.007 7.563-.463.015-4.872.143-.007-7.456 5.335-.265Z" stroke="#fff" stroke-width=".3" stroke-linecap="round" stroke-linejoin="round" stroke-dasharray="17.52 8.76 0.02 8.76"/><path clip-rule="evenodd" d="m887.034 106.808.007 7.455-5.4.155-.009-7.345 5.402-.265Z" stroke="#fff" stroke-width=".3" stroke-linecap="round" stroke-linejoin="round" stroke-dasharray="17.52 8.76 0.02 8.76"/><path clip-rule="evenodd" d="m881.632 107.075.011 7.343-5.486.153-.01-7.225 5.485-.271Z" stroke="#fff" stroke-width=".3" stroke-linecap="round" stroke-linejoin="round" stroke-dasharray="17.52 8.76 0.02 8.76"/><path clip-rule="evenodd" d="m876.147 107.346.01 7.227-5.582.153-.014-7.105 5.586-.275Z" stroke="#fff" stroke-width=".3" stroke-linecap="round" stroke-linejoin="round" stroke-dasharray="17.52 8.76 0.02 8.76"/><path clip-rule="evenodd" d="m870.563 107.621.012 7.107-5.7.154-.014-6.979 5.702-.282Z" stroke="#fff" stroke-width=".3" stroke-linecap="round" stroke-linejoin="round" stroke-dasharray="17.52 8.76 0.02 8.76"/><path clip-rule="evenodd" d="m864.861 107.903.014 6.98-5.835.145-.015-6.837 5.836-.288Z" stroke="#fff" stroke-width=".3" stroke-linecap="round" stroke-linejoin="round" stroke-dasharray="17.52 8.76 0.02 8.76"/><path clip-rule="evenodd" d="m859.025 108.191.017 6.835-4.84.12-.017-6.714 4.84-.241Z" stroke="#fff" stroke-width=".3" stroke-linecap="round" stroke-linejoin="round" stroke-dasharray="17.52 8.76 0.02 8.76"/><path d="m849.448 115.258 4.754-.114-.017-6.712-4.756.235m.019 6.591-.019-6.591m.019 6.591-4.703.111-.019-6.47 4.703-.232" stroke="#fff" stroke-width=".3" stroke-linecap="round" stroke-linejoin="round" stroke-dasharray="17.52 8.76 0.02 8.76"/><path d="m840.062 115.474 4.683-.107-.019-6.468-4.684.231m.02 6.344-.02-6.344m.02 6.344-.567.014-4.128.085-.022-6.211 4.697-.232M831.203 115.659l2.576-.052 1.588-.034-.022-6.211-4.164.206m.022 6.091-.022-6.091m.022 6.091-.067.001-3.904.075m3.949-6.167-3.973.196m.024 5.971-.024-5.971m.024 5.971-1.809.034-2.03.038-.022-5.852 3.837-.191" stroke="#fff" stroke-width=".3" stroke-linecap="round" stroke-linejoin="round" stroke-dasharray="17.52 8.76 0.02 8.76"/><path clip-rule="evenodd" d="m823.371 109.955.022 5.85-.763.015-2.996.052-.024-5.731 3.761-.186Zm200.539 112.154.84.245.01 7.491-.83-.041-.02-7.695Z" stroke="#fff" stroke-width=".3" stroke-linecap="round" stroke-linejoin="round" stroke-dasharray="17.52 8.76 0.02 8.76"/><path clip-rule="evenodd" d="m1023.94 229.804-1.05-.051-.03-7.949.74.218.31.087.03 7.695Z" stroke="#fff" stroke-width=".3" stroke-linecap="round" stroke-linejoin="round" stroke-dasharray="17.52 8.76 0.02 8.76"/><path clip-rule="evenodd" d="m1022.89 229.753-1.07-.053-.02-8.206 1.07.308.02 7.951Z" stroke="#fff" stroke-width=".3" stroke-linecap="round" stroke-linejoin="round" stroke-dasharray="17.52 8.76 0.02 8.76"/><path clip-rule="evenodd" d="m1021.83 229.7-1.1-.054-.03-8.459 1.1.306.03 8.207Z" stroke="#fff" stroke-width=".3" stroke-linecap="round" stroke-linejoin="round" stroke-dasharray="17.52 8.76 0.02 8.76"/><path clip-rule="evenodd" d="m1020.73 229.646-1.12-.057-.04-8.717.66.189.47.126.03 8.459Z" stroke="#fff" stroke-width=".3" stroke-linecap="round" stroke-linejoin="round" stroke-dasharray="17.52 8.76 0.02 8.76"/><path clip-rule="evenodd" d="m1019.61 229.589-1.13-.054-.04-8.98 1.14.317.03 8.717Z" stroke="#fff" stroke-width=".3" stroke-linecap="round" stroke-linejoin="round" stroke-dasharray="17.52 8.76 0.02 8.76"/><path clip-rule="evenodd" d="m1018.48 229.535-1.18-.06-.03-9.241 1.18.321.03 8.98Z" stroke="#fff" stroke-width=".3" stroke-linecap="round" stroke-linejoin="round" stroke-dasharray="17.52 8.76 0.02 8.76"/><path clip-rule="evenodd" d="m1017.31 229.477-1.23-.061-.03-9.523.86.244.36.097.04 9.243Z" stroke="#fff" stroke-width=".3" stroke-linecap="round" stroke-linejoin="round" stroke-dasharray="17.52 8.76 0.02 8.76"/><path clip-rule="evenodd" d="m1016.08 229.416-1.28-.063-.03-9.812 1.28.352.03 9.523Z" stroke="#fff" stroke-width=".3" stroke-linecap="round" stroke-linejoin="round" stroke-dasharray="17.52 8.76 0.02 8.76"/><path clip-rule="evenodd" d="m1014.81 229.353-1.35-.067-.03-10.112.3.087 1.04.28.04 9.812Z" stroke="#fff" stroke-width=".3" stroke-linecap="round" stroke-linejoin="round" stroke-dasharray="17.52 8.76 0.02 8.76"/><path clip-rule="evenodd" d="m1013.46 229.286-1.41-.07-.04-10.435 1.42.395.03 10.11ZM1012.05 229.216l-1.49-.073-.04-10.77.11.034 1.38.374.04 10.435Z" stroke="#fff" stroke-width=".3" stroke-linecap="round" stroke-linejoin="round" stroke-dasharray="17.52 8.76 0.02 8.76"/><path clip-rule="evenodd" d="m1010.56 229.143-1.59-.078-.04-11.138 1.59.446.04 10.77Z" stroke="#fff" stroke-width=".3" stroke-linecap="round" stroke-linejoin="round" stroke-dasharray="17.52 8.76 0.02 8.76"/><path clip-rule="evenodd" d="m1008.97 229.065-1.69-.084-.04-11.535.63.188.35.099.71.194.04 11.138Z" stroke="#fff" stroke-width=".3" stroke-linecap="round" stroke-linejoin="round" stroke-dasharray="17.52 8.76 0.02 8.76"/><path clip-rule="evenodd" d="m1007.28 228.981-1.81-.09-.04-11.966 1.81.52.04 11.536ZM1005.47 228.891l-1.94-.096-.04-12.448 1.66.503.28.077.04 11.964Z" stroke="#fff" stroke-width=".3" stroke-linecap="round" stroke-linejoin="round" stroke-dasharray="17.52 8.76 0.02 8.76"/><path d="m1001.44 228.691 2.09.104-.04-12.449-1.21-.357-.88-.281.04 12.983Zm0 0-2.256-.11-.046-13.59 1.812.588.45.133.04 12.979Z" stroke="#fff" stroke-width=".3" stroke-linecap="round" stroke-linejoin="round" stroke-dasharray="17.52 8.76 0.02 8.76"/><path clip-rule="evenodd" d="m999.184 228.581-2.365-.118-.048-14.261 1.423.487.944.302.046 13.59Z" stroke="#fff" stroke-width=".3" stroke-linecap="round" stroke-linejoin="round" stroke-dasharray="17.52 8.76 0.02 8.76"/><path clip-rule="evenodd" d="m996.819 228.463-2.399-.117-.05-14.981 1.052.38 1.351.457.046 14.261Z" stroke="#fff" stroke-width=".3" stroke-linecap="round" stroke-linejoin="round" stroke-dasharray="17.52 8.76 0.02 8.76"/><path clip-rule="evenodd" d="m994.42 228.346-2.481-.123-.05-15.766.764.293 1.719.614.048 14.982ZM991.939 228.223l-2.621-.13-.051-16.643.62.25 2.002.757.05 15.766Z" stroke="#fff" stroke-width=".3" stroke-linecap="round" stroke-linejoin="round" stroke-dasharray="17.52 8.76 0.02 8.76"/><path clip-rule="evenodd" d="m989.318 228.093-2.834-.139-.053-17.656 2.016.833.82.317.051 16.645ZM986.484 227.954l-3.139-.155-.054-18.849 2.16.944.98.404.053 17.656Z" stroke="#fff" stroke-width=".3" stroke-linecap="round" stroke-linejoin="round" stroke-dasharray="17.52 8.76 0.02 8.76"/><path clip-rule="evenodd" d="m983.345 227.798-3.723-.184-.056-20.363.039.019 2.875 1.325.811.355.054 18.848ZM979.622 227.614l-3.72-.184-.056-21.989.819.411 1.87.908.976.465.055.026.056 20.363Z" stroke="#fff" stroke-width=".3" stroke-linecap="round" stroke-linejoin="round" stroke-dasharray="17.52 8.76 0.02 8.76"/><path d="m972.126 227.243 3.776.187-.056-21.989-.92-.458v13.845l-2.821-.126m.021 8.541-.021-8.541m.021 8.541-3.899-.193m3.878-8.348-3.899-.17m.021 8.518-.021-8.518m.021 8.518-4.233-.209-.019-8.493 4.231.184" stroke="#fff" stroke-width=".3" stroke-linecap="round" stroke-linejoin="round" stroke-dasharray="17.52 8.76 0.02 8.76"/><path d="m959.806 226.635 4.188.206-.019-8.493-4.187-.177m.018 8.464-.018-8.464m.018 8.464-4.158-.207-.016-8.431 4.156.174" stroke="#fff" stroke-width=".3" stroke-linecap="round" stroke-linejoin="round" stroke-dasharray="17.52 8.76 0.02 8.76"/><path clip-rule="evenodd" d="m955.648 226.428-4.14-.204-.013-8.398 4.137.171.016 8.431Z" stroke="#fff" stroke-width=".3" stroke-linecap="round" stroke-linejoin="round" stroke-dasharray="17.52 8.76 0.02 8.76"/><path clip-rule="evenodd" d="m951.509 226.224-4.133-.205-.012-8.358 4.131.165.014 8.398Z" stroke="#fff" stroke-width=".3" stroke-linecap="round" stroke-linejoin="round" stroke-dasharray="17.52 8.76 0.02 8.76"/><path d="m943.237 225.815 4.139.204-.012-8.358-4.139-.163m.012 8.317-.012-8.317m.012 8.317-3.839-.189-.01-8.277 3.837.149" stroke="#fff" stroke-width=".3" stroke-linecap="round" stroke-linejoin="round" stroke-dasharray="17.52 8.76 0.02 8.76"/><path d="m935.577 225.437 3.821.189-.01-8.27-3.819-.145.008 8.226Zm0 0-3.846-.189-.006-8.175 3.844.143.008 8.221Z" stroke="#fff" stroke-width=".3" stroke-linecap="round" stroke-linejoin="round" stroke-dasharray="17.52 8.76 0.02 8.76"/><path d="m927.812 225.053 3.919.194-.006-8.174-3.92-.145m.007 8.125-.007-8.125m.007 8.125-4.045-.199-.004-8.072 4.042.146" stroke="#fff" stroke-width=".3" stroke-linecap="round" stroke-linejoin="round" stroke-dasharray="17.52 8.76 0.02 8.76"/><path clip-rule="evenodd" d="m923.767 224.854-5.225-.259-.002-7.999 5.223.186.004 8.072Z" stroke="#fff" stroke-width=".3" stroke-linecap="round" stroke-linejoin="round" stroke-dasharray="17.52 8.76 0.02 8.76"/><path d="m913.331 224.338 5.211.257-.002-7.999-5.209-.177m0 7.919v-7.919m0 7.919-5.211-.258.002-7.833 5.209.172M902.899 223.821l5.221.259.002-7.833-5.222-.171m-.001 7.745.001-7.745m-.001 7.745-5.245-.259m5.246-7.486-5.243-.168m-.003 7.654.003-7.654m-.003 7.654-5.285-.26m5.288-7.394-5.281-.167m-.007 7.561.007-7.561m-.007 7.561-5.335-.265.007-7.456 4.872.144.463.016" stroke="#fff" stroke-width=".3" stroke-linecap="round" stroke-linejoin="round" stroke-dasharray="17.52 8.76 0.02 8.76"/><path clip-rule="evenodd" d="m887.034 223.038-5.402-.268.009-7.343 5.4.157-.007 7.454Z" stroke="#fff" stroke-width=".3" stroke-linecap="round" stroke-linejoin="round" stroke-dasharray="17.52 8.76 0.02 8.76"/><path d="m876.147 222.499 5.485.271.011-7.341-5.486-.155m-.01 7.225.01-7.225m-.01 7.225-5.586-.276.014-7.104 5.582.155" stroke="#fff" stroke-width=".3" stroke-linecap="round" stroke-linejoin="round" stroke-dasharray="17.52 8.76 0.02 8.76"/><path d="m864.861 221.942 5.702.281.012-7.106-5.7-.153-.014 6.978Zm0 0-5.836-.288.015-6.837 5.835.145-.014 6.98Z" stroke="#fff" stroke-width=".3" stroke-linecap="round" stroke-linejoin="round" stroke-dasharray="17.52 8.76 0.02 8.76"/><path clip-rule="evenodd" d="m859.025 221.654-4.84-.24.017-6.714 4.84.119-.017 6.835Z" stroke="#fff" stroke-width=".3" stroke-linecap="round" stroke-linejoin="round" stroke-dasharray="17.52 8.76 0.02 8.76"/><path d="m849.429 221.178 4.756.235.017-6.712-4.754-.114m-.019 6.591.019-6.591m-.019 6.591-4.703-.232.019-6.47 4.703.111" stroke="#fff" stroke-width=".3" stroke-linecap="round" stroke-linejoin="round" stroke-dasharray="17.52 8.76 0.02 8.76"/><path d="m840.042 220.715 4.684.231.019-6.468-4.683-.107m-.02 6.344.02-6.344m-.02 6.344-4.697-.232.022-6.211 4.128.085.567.014" stroke="#fff" stroke-width=".3" stroke-linecap="round" stroke-linejoin="round" stroke-dasharray="17.52 8.76 0.02 8.76"/><path clip-rule="evenodd" d="m835.345 220.483-4.164-.206.022-6.09 2.576.051 1.588.034-.022 6.211Z" stroke="#fff" stroke-width=".3" stroke-linecap="round" stroke-linejoin="round" stroke-dasharray="17.52 8.76 0.02 8.76"/><path d="m827.208 220.081 3.973.196.022-6.092h-.067l-3.904-.075m-.024 5.971.024-5.971m-.024 5.971-3.837-.189.022-5.854 2.03.038 1.809.034" stroke="#fff" stroke-width=".3" stroke-linecap="round" stroke-linejoin="round" stroke-dasharray="17.52 8.76 0.02 8.76"/><path clip-rule="evenodd" d="m1135.28 164.922-2.2-6.772-5.76-4.185h-7.12l-5.76 4.185-2.2 6.772 2.2 6.772 5.76 4.185h7.12l5.76-4.185 2.2-6.772ZM1061.23 132.411l-3.81 2.021v-1.213h-3.9v-1.618h3.9v-1.213l3.81 2.023Z" stroke="#fff" stroke-width=".5" stroke-linecap="round" stroke-linejoin="round"/><path d="M1046.19 131.249h-.25c0 .138.12.25.25.25v-.25Zm0-1.797v-.25c-.13 0-.25.112-.25.25h.25Zm1.03.108-.13.216.01.001.12-.217Zm.29.308-.23.111.23-.111Zm-.01.963.23.111v-.001l-.23-.11Zm-.29.31.13.218-.13-.218Zm-.8-.085h-.25c0 .138.11.25.25.25v-.25Zm.91-1.083-.23.102.01.001.22-.103Zm-.21-.243-.13.214v.001l.13-.215Zm-.7-.085v-.25c-.14 0-.25.112-.25.25h.25Zm.34 1.604v-.25h-.56v.5h.56v-.25Zm-.56 0h.25v-1.797h-.5v1.797h.25Zm0-1.797v.25h.58v-.5h-.58v.25Zm.58 0v.25c.14 0 .25.029.32.074l.13-.216.13-.216c-.17-.099-.37-.142-.58-.142v.25Zm.45.108-.12.217c.07.045.14.11.18.202l.23-.111.22-.111c-.09-.176-.22-.316-.39-.414l-.12.217Zm.29.308-.23.111c.05.091.07.211.07.368h.5c0-.215-.03-.415-.12-.59l-.22.111Zm.09.479h-.25c0 .158-.02.28-.07.373l.22.111.23.11c.09-.177.12-.377.12-.594h-.25Zm-.1.484-.22-.111c-.04.091-.11.157-.19.204l.12.217.13.218c.17-.098.3-.239.39-.417l-.23-.111Zm-.29.31-.12-.217c-.08.046-.19.075-.34.075v.5c.21 0 .41-.042.59-.14l-.13-.218Zm-.8-.085v.25h.32v-.5h-.32v.25Zm.32 0v.25c.18 0 .35-.034.5-.12l-.13-.216-.12-.215c-.05.028-.13.051-.25.051v.25Zm.37-.086.13.216c.14-.084.25-.206.32-.357l-.23-.104-.23-.103c-.02.06-.06.102-.11.133l.12.215Zm.22-.245.23.104c.07-.146.09-.309.09-.482h-.5c0 .12-.02.209-.05.275l.23.103Zm.07-.378h.25c0-.171-.02-.333-.09-.478l-.23.104-.22.103c.02.065.04.153.04.271h.25Zm-.07-.374.23-.103c-.07-.149-.17-.271-.31-.354l-.13.214-.13.215c.05.029.09.069.11.13l.23-.102Zm-.21-.243.13-.214c-.14-.086-.31-.121-.48-.121v.5c.11 0 .18.022.22.049l.13-.214Zm-.35-.085v-.25h-.35v.5h.35v-.25Zm-.35 0h-.25v1.411h.5v-1.411h-.25Zm2.98-.193h.25c0-.138-.11-.25-.25-.25v.25Zm0 1.797v.25c.14 0 .25-.112.25-.25h-.25Zm-.21 0-.2.143c.05.067.12.107.2.107v-.25Zm-.98-1.411.21-.142c-.05-.068-.12-.108-.21-.108v.25Zm-.01 0v-.25c-.14 0-.25.112-.25.25h.25Zm0 1.411v.25c.14 0 .25-.112.25-.25h-.25Zm-.22 0h-.25c0 .138.11.25.25.25v-.25Zm0-1.797v-.25c-.14 0-.25.112-.25.25h.25Zm.21 0 .21-.142c-.05-.068-.13-.108-.21-.108v.25Zm.98 1.415-.2.142c.04.068.12.108.2.108v-.25Zm.02 0v.25c.14 0 .25-.112.25-.25h-.25Zm0-1.415v-.25c-.14 0-.25.112-.25.25h.25Zm.21 0h-.25v1.797h.5v-1.797h-.25Zm0 1.797v-.25h-.21v.5h.21v-.25Zm-.21 0 .21-.142-.98-1.411-.21.142-.2.143.98 1.411.2-.143Zm-.98-1.411v-.25h-.01v.5h.01v-.25Zm-.01 0h-.25v1.411h.5v-1.411h-.25Zm0 1.411v-.25h-.22v.5h.22v-.25Zm-.22 0h.25v-1.797h-.5v1.797h.25Zm0-1.797v.25h.21v-.5h-.21v.25Zm.21 0-.21.143.99 1.414.2-.142.21-.143-.98-1.414-.21.142Zm.98 1.415v.25h.02v-.5h-.02v.25Zm.02 0h.25v-1.415h-.5v1.415h.25Zm0-1.415v.25h.21v-.5h-.21v.25Z" fill="#fff"/><path d="M1085.17 126.339h-28.75m28.75 24.012h-28.75" stroke="#fff" stroke-width=".5" stroke-linecap="round" stroke-linejoin="round"/><path d="M1059.94 137.487v-10.154" stroke="#fff" stroke-width=".5" stroke-linecap="round" stroke-linejoin="round" stroke-dasharray="6.57 8.76"/><path d="M1058.12 137.487h2.07v-10.154h-2.07" stroke="#fff" stroke-width=".5" stroke-linecap="round" stroke-linejoin="round"/><path d="M1057.87 137.487v-10.154" stroke="#fff" stroke-width=".5" stroke-linecap="round" stroke-linejoin="round" stroke-dasharray="6.57 8.76"/><path d="M1056.05 137.487h2.07v-10.154h-2.07" stroke="#fff" stroke-width=".5" stroke-linecap="round" stroke-linejoin="round"/><path d="M1055.8 137.487v-10.154" stroke="#fff" stroke-width=".5" stroke-linecap="round" stroke-linejoin="round" stroke-dasharray="6.57 8.76"/><path d="M1056.42 126.339c-.29 0-.56.099-.79.28-.22.181-.37.433-.43.714m-.02 10.154v11.62m.87-11.62v-10.154h-1.29v10.154h1.29Z" stroke="#fff" stroke-width=".5" stroke-linecap="round" stroke-linejoin="round"/><path d="M1055.18 127.582v9.905" stroke="#fff" stroke-width=".5" stroke-linecap="round" stroke-linejoin="round" stroke-dasharray="6.57 8.76"/><path d="M1055.18 149.107c0 .33.13.646.36.88.23.233.55.364.88.364m28.75 0c.33 0 .64-.132.87-.365.24-.233.37-.549.37-.879v-21.526c0-.329-.13-.645-.37-.877-.23-.233-.54-.364-.87-.365m-12.19 23.017h10.78v-22.023h-10.78m-.41 10.154v1.716" stroke="#fff" stroke-width=".5" stroke-linecap="round" stroke-linejoin="round"/><path d="M1072.57 127.333v10.154m0 1.716v10.153" stroke="#fff" stroke-width=".5" stroke-linecap="round" stroke-linejoin="round" stroke-dasharray="6.57 8.76"/><path d="M1066.41 137.487h-1.34m2.48 11.869h-2.07v-10.153h2.07" stroke="#fff" stroke-width=".5" stroke-linecap="round" stroke-linejoin="round"/><path d="M1067.8 149.356v-10.153" stroke="#fff" stroke-width=".5" stroke-linecap="round" stroke-linejoin="round" stroke-dasharray="6.57 8.76"/><path d="M1069.62 149.356h-2.07v-10.153h2.07" stroke="#fff" stroke-width=".5" stroke-linecap="round" stroke-linejoin="round"/><path d="M1069.87 149.356v-10.153" stroke="#fff" stroke-width=".5" stroke-linecap="round" stroke-linejoin="round" stroke-dasharray="6.57 8.76"/><path d="M1071.7 149.356h-2.08v-10.153h2.08" stroke="#fff" stroke-width=".5" stroke-linecap="round" stroke-linejoin="round"/><path d="M1071.94 149.356v-10.153" stroke="#fff" stroke-width=".5" stroke-linecap="round" stroke-linejoin="round" stroke-dasharray="6.57 8.76"/><path d="M1070.55 137.487h2.43v-10.154h-2.43m1.15 22.023v-10.153h1.28v10.153h-1.28Z" stroke="#fff" stroke-width=".5" stroke-linecap="round" stroke-linejoin="round"/><path d="M1070.3 137.487v-10.154" stroke="#fff" stroke-width=".5" stroke-linecap="round" stroke-linejoin="round" stroke-dasharray="6.57 8.76"/><path d="M1068.48 137.487h2.07v-10.154h-2.07" stroke="#fff" stroke-width=".5" stroke-linecap="round" stroke-linejoin="round"/><path d="M1068.23 137.487v-10.154" stroke="#fff" stroke-width=".5" stroke-linecap="round" stroke-linejoin="round" stroke-dasharray="6.57 8.76"/><path d="M1068.48 127.333v10.154h-2.07m-7.15 11.869v-10.153" stroke="#fff" stroke-width=".5" stroke-linecap="round" stroke-linejoin="round"/><path d="M1059.51 139.203v10.153" stroke="#fff" stroke-width=".5" stroke-linecap="round" stroke-linejoin="round" stroke-dasharray="6.57 8.76"/><path d="M1059.26 149.356h2.07m0-10.153h-2.07" stroke="#fff" stroke-width=".5" stroke-linecap="round" stroke-linejoin="round"/><path d="M1065.73 139.203v10.153" stroke="#fff" stroke-width=".5" stroke-linecap="round" stroke-linejoin="round" stroke-dasharray="6.57 8.76"/><path d="M1063.41 149.356h2.07m-2.07 0v-10.153m0 10.153h-2.08v-10.153h2.08m2.07 0h-2.07m-6.22 10.153v-10.153" stroke="#fff" stroke-width=".5" stroke-linecap="round" stroke-linejoin="round"/><path d="M1057.44 139.203v10.153" stroke="#fff" stroke-width=".5" stroke-linecap="round" stroke-linejoin="round" stroke-dasharray="6.57 8.76"/><path d="M1057.19 149.356h2.07m0-10.153h-2.07m4.2 5.076-3.81 2.021v-1.213h-4.06v-1.615h4.06v-1.214l3.81 2.021Z" stroke="#fff" stroke-width=".5" stroke-linecap="round" stroke-linejoin="round"/><path d="M1047.37 141.323v-.25c-.14 0-.25.111-.25.25h.25Zm.22 0h.25c0-.139-.11-.25-.25-.25v.25Zm-.09 1.518-.21-.128.21.128Zm-.24.228.12.221-.12-.221Zm-.74 0-.11.221.11-.221Zm-.24-.228-.22.128.01.002.21-.13Zm-.09-1.518v-.25c-.13 0-.25.111-.25.25h.25Zm.22 0h.25c0-.139-.11-.25-.25-.25v.25Zm.06 1.406-.22.123v.001l.22-.124Zm.16.161-.12.219.01.001.11-.22Zm.52 0 .12.22v-.001l-.12-.219Zm.17-.161-.22-.123v.001l.22.122Zm.05-1.406v.25h.22v-.5h-.22v.25Zm.22 0h-.25v1.189h.5v-1.189h-.25Zm0 1.189h-.25c0 .082-.02.147-.05.201l.21.128.22.129c.08-.139.12-.294.12-.458h-.25Zm-.09.329-.21-.128c-.03.055-.08.099-.15.135l.12.221.12.221c.14-.076.26-.183.34-.32l-.22-.129Zm-.24.228-.12-.222c-.06.033-.14.054-.25.054v.5c.18 0 .34-.034.49-.111l-.12-.221Zm-.37.082v-.25c-.11 0-.19-.021-.25-.054l-.12.222-.11.221c.14.077.31.111.48.111v-.25Zm-.37-.082.12-.221c-.07-.036-.11-.081-.15-.136l-.21.129-.21.13c.08.137.19.243.34.319l.11-.221Zm-.24-.228.21-.127c-.03-.055-.05-.119-.05-.202h-.5c0 .164.04.318.12.457l.22-.128Zm-.09-.329h.25v-1.189h-.5v1.189h.25Zm0-1.189v.25h.22v-.5h-.22v.25Zm.22 0h-.25v1.172h.5v-1.172h-.25Zm0 1.172h-.25c0 .126.03.247.09.357l.22-.123.22-.123c-.02-.026-.03-.061-.03-.111h-.25Zm.06.234-.22.124c.06.11.15.195.26.256l.12-.219.12-.219c-.03-.018-.05-.04-.06-.065l-.22.123Zm.16.161-.11.22c.11.062.24.088.37.088v-.5c-.07 0-.11-.013-.14-.029l-.12.221Zm.26.058v.25c.13 0 .26-.026.38-.088l-.12-.22-.12-.221c-.03.016-.07.029-.14.029v.25Zm.26-.058.12.219c.11-.06.2-.146.26-.258l-.21-.122-.22-.122c-.02.024-.04.045-.07.063l.12.22Zm.17-.161.21.123c.06-.11.09-.231.09-.357h-.5c0 .05-.01.085-.02.111l.22.123Zm.05-.234h.25v-1.172h-.5v1.172h.25Zm.66.625h-.25c0 .138.11.25.25.25v-.25Zm0-1.797v-.25c-.14 0-.25.111-.25.25h.25Zm.95.076-.13.217.01.001.12-.218Zm.2.204-.23.113.23-.113Zm0 .577-.23-.112v.001l.23.111Zm-.2.207.12.217-.12-.217Zm-.78.076h-.25c0 .138.11.25.25.25v-.25Zm0-.193v-.25c-.14 0-.25.112-.25.25h.25Zm.66-.05-.12-.217.12.217Zm.13-.135-.23-.106v.001l.23.105Zm0-.387-.23.105v.002l.23-.107Zm-.13-.133-.12.218v.001l.12-.219Zm-.62-.049v-.25c-.14 0-.25.111-.25.25h.25Zm0 1.604v.25c.14 0 .25-.112.25-.25h-.25Zm-.21 0h.25v-1.797h-.5v1.797h.25Zm0-1.797v.25h.6v-.5h-.6v.25Zm.6 0v.25c.12 0 .18.02.22.043l.13-.217.12-.217c-.14-.079-.3-.109-.47-.109v.25Zm.35.076-.12.218c.05.028.08.061.09.099l.23-.113.22-.112c-.07-.134-.17-.238-.3-.31l-.12.218Zm.2.204-.23.113c.03.047.04.104.04.175h.5c0-.141-.03-.276-.09-.4l-.22.112Zm.06.288h-.25c0 .071-.01.128-.04.177l.23.112.22.112c.06-.125.09-.26.09-.401h-.25Zm-.06.289-.23-.111c-.02.039-.05.073-.09.101l.12.217.12.217c.13-.075.24-.179.3-.314l-.22-.11Zm-.2.207-.12-.217c-.04.023-.11.043-.22.043v.5c.16 0 .33-.03.46-.109l-.12-.217Zm-.34.076v-.25h-.44v.5h.44v-.25Zm-.44 0h.25v-.193h-.5v.193h.25Zm0-.193v.25h.43v-.5h-.43v.25Zm.43 0v.25c.12 0 .25-.02.36-.083l-.13-.217-.12-.217c-.01.005-.04.017-.11.017v.25Zm.23-.05.13.217c.1-.057.18-.139.23-.247l-.23-.105-.23-.105c0 .006-.01.013-.02.023l.12.217Zm.13-.135.22.106c.05-.095.07-.196.07-.3h-.5c0 .04-.01.068-.02.088l.23.106Zm.04-.194h.25c0-.103-.02-.205-.07-.3l-.22.107-.23.107c.01.019.02.046.02.086h.25Zm-.04-.193.23-.105c-.06-.109-.14-.192-.24-.248l-.12.22-.12.219c.02.009.02.015.02.019l.23-.105Zm-.13-.133.12-.219c-.11-.06-.23-.08-.35-.08v.5c.07 0 .1.012.11.017l.12-.218Zm-.23-.049v-.25h-.39v.5h.39v-.25Zm-.39 0h-.25v1.604h.5v-1.604h-.25Zm0 1.604v-.25h-.21v.5h.21v-.25Z" fill="#fff"/><path d="m1066.91 126.116-2.5 12.613m2.91-12.613-2.5 12.613" stroke="#fff" stroke-width=".5" stroke-linecap="round" stroke-linejoin="round" stroke-dasharray="17.52 8.76 0.02 8.76"/><path d="M1057.19 139.203h-2.43v10.153h2.43" stroke="#fff" stroke-width=".5" stroke-linecap="round" stroke-linejoin="round"/><path d="M1061.58 139.203v10.153" stroke="#fff" stroke-width=".5" stroke-linecap="round" stroke-linejoin="round" stroke-dasharray="6.57 8.76"/><path d="m1065.67 126.116-2.67 12.613m3.08-12.613-2.67 12.613" stroke="#fff" stroke-width=".5" stroke-linecap="round" stroke-linejoin="round" stroke-dasharray="17.52 8.76 0.02 8.76"/><path d="M1062.26 127.333v10.154h-2.07" stroke="#fff" stroke-width=".5" stroke-linecap="round" stroke-linejoin="round"/><path d="M1062.01 137.487v-10.154" stroke="#fff" stroke-width=".5" stroke-linecap="round" stroke-linejoin="round" stroke-dasharray="6.57 8.76"/><path d="M1060.19 127.333h4.15m-1.08 10.154h-1" stroke="#fff" stroke-width=".5" stroke-linecap="round" stroke-linejoin="round"/><path d="M1064.09 133.585v-6.252" stroke="#fff" stroke-width=".5" stroke-linecap="round" stroke-linejoin="round" stroke-dasharray="6.57 8.76"/><path d="M1064.34 132.411v-5.078h1.07m7.57 24.344h.83m-.83 0v-2.321h.83v2.321m-.83 0v-.828h.83v.828m4.35 0h.83m-.83 0v-2.321h.83v2.321m-.83 0v-.828h.83v.828m-6.01-26.043h.83v1.699h-.83v-1.699Zm5.18 0h.83v1.699h-.83v-1.699Zm5.6 22.48h3.06v.828h-3.06v-.828Zm0-9.356h3.06v-.828h-3.06v.828Zm0-10.181h3.06v-.83h-3.06v.83Z" stroke="#fff" stroke-width=".5" stroke-linecap="round" stroke-linejoin="round"/><path d="M1055.2 127.333c-.02.082-.02.165-.02.249m10.98 4.41v5.495" stroke="#fff" stroke-width=".5" stroke-linecap="round" stroke-linejoin="round" stroke-dasharray="6.57 8.76"/><path d="M1066.41 130.737v6.75m.67-10.154h1.4" stroke="#fff" stroke-width=".5" stroke-linecap="round" stroke-linejoin="round"/><path d="M986.375 140.532c2.094 0 3.792-1.697 3.792-3.791s-1.698-3.792-3.792-3.792-3.791 1.698-3.791 3.792 1.697 3.791 3.791 3.791Z" stroke="#fff" stroke-opacity=".3" stroke-width=".5" stroke-linecap="round" stroke-linejoin="round" stroke-dasharray="17.52 8.76 0.02 8.76"/><path clip-rule="evenodd" d="M1104.88 214.198v5.482l-.44.057-3.83.421-3.85.361-3.9.305-3.93.249-3.98.194-4.03.14-1.38.035-4.38.086-4.28.035-4.21-.012-4.13-.063-4.09-.117-4.03-.174-3.99-.232-3.98-.289-3.96-.355-3.95-.417-3.96-.486-3.98-.554-4.01-.625-2.68-.455-3.41-.62-3.31-.65-3.21-.681-3.14-.721-3.06-.76-3-.804-2.94-.854-2.901-.907-2.866-.963-2.843-1.022-2.827-1.089-2.823-1.157-2.827-1.229-2.459-1.124-2.33-1.113-2.22-1.102-2.118-1.101-2.023-1.105-1.93-1.112-1.849-1.13-1.773-1.15-1.699-1.178-1.632-1.211-1.576-1.253-1.522-1.297-1.474-1.348-1.435-1.405-1.399-1.469-1.372-1.539-.383-.446-1.028-1.263-.952-1.263-.879-1.269-.81-1.284-.743-1.298-.681-1.322-.622-1.352-.566-1.383-.513-1.423-.046-.137-.411-1.318-.352-1.331-.29-1.341-.23-1.353-.165-1.365-.101-1.377-.032-1.243.032-1.242.101-1.377.165-1.363.23-1.355.29-1.341.352-1.331.411-1.318.046-.137.513-1.423.566-1.383.622-1.352.681-1.322.743-1.299.81-1.283.879-1.269.952-1.263 1.028-1.261.383-.448 1.372-1.539 1.399-1.469 1.435-1.406 1.474-1.347 1.522-1.297 1.576-1.253 1.632-1.211 1.699-1.178 1.773-1.15 1.849-1.13 1.93-1.113 2.023-1.104 2.118-1.101 2.22-1.102 2.33-1.113 2.459-1.124 2.827-1.229 2.823-1.157 2.827-1.087 2.843-1.024 2.866-.963 2.901-.907 2.94-.854 3-.804 3.06-.76 3.14-.719 3.21-.683 3.31-.65 3.41-.62 2.68-.455 4.01-.625 3.98-.554 3.96-.484 3.95-.419 3.96-.353 3.98-.291 3.99-.232 4.03-.174 4.09-.116 4.13-.064 4.21-.012 4.28.035 4.38.086 1.38.034 4.03.141 3.98.194 3.93.249 3.9.307 3.85.361 3.83.419.44.057v5.482l.35.034 3.67.41 3.61.465 3.6.525 3.59.585 3.59.651 3.61.717 3.65.789 3.68.862 2.99.747 2.9.777 2.85.816 2.83.864 2.81.92 2.83.983 2.45.905 2.42.955 2.38 1.005 2.37 1.056 2.35 1.113 2.35 1.167 2.32 1.226 1.79.986 1.71 1.007 1.65 1.03 1.59 1.058 1.54 1.094 1.48 1.131 1.44 1.178 1.41 1.225 1.37 1.282 1.35 1.341 1 1.061.93 1.079.88 1.096.82 1.114.76 1.13.72 1.147.64 1.165.59 1.181.53 1.198.48 1.217.4 1.232.36 1.251.29 1.266.23 1.283.17 1.3.12 1.317.05 1.334-.05 1.335-.12 1.317-.17 1.3-.23 1.283-.29 1.268-.36 1.249-.4 1.232-.48 1.217-.53 1.198-.59 1.182-.64 1.164-.72 1.147-.76 1.132-.82 1.112-.88 1.096-.93 1.079-1 1.061-1.35 1.341-1.37 1.282-1.41 1.225-1.44 1.178-1.48 1.131-1.54 1.094-1.59 1.058-1.65 1.03-1.71 1.007-1.79.986-2.32 1.226-2.35 1.167-2.35 1.113-2.37 1.056-2.38 1.005-2.42.955-2.45.905-2.83.985-2.81.918-2.83.864-2.85.816-2.9.777-2.99.747-3.68.862-3.65.789-3.61.717-3.59.651-3.59.586-3.6.524-3.61.466-3.67.411-.35.032Z" stroke="#fff" stroke-opacity=".3" stroke-width=".5" stroke-linecap="round" stroke-linejoin="round" stroke-dasharray="17.52 8.76 0.02 8.76"/><path d="M978.738 207.077v14.464l3.99.355v-12.309l-.562-.332-1.905-1.183-1.523-.995Zm0 0v15.875l-4.305-.163v-18.58l.983.687 1.462.982 1.474.959.386.24Zm-8.669 15.546 4.362.166v-18.58l-.579-.381-1.518-1.04-1.502-1.075-.763-.576m0 21.486v-21.486m0 21.486-5.044-.191v-25.23m5.044 3.935-.896-.636-1.534-1.153-1.506-1.202-1.108-.944m5.044-68.494.763-.576 1.502-1.075 1.518-1.04.579-.381v-16.974l-4.362.323v19.723Zm0 0-.002-19.721-5.042.334v23.322l1.108-.944 1.506-1.202 1.534-1.153.896-.636Zm-5.044 68.494-.535-.431-1.51-1.3-1.47-1.358-1.425-1.418-.216-.232m5.156 4.739v23.32l-5.156-.303v-27.756m0-55.081.216-.232 1.425-1.416 1.47-1.36 1.51-1.3.535-.43v-23.319l-5.156.301v27.756Zm0 0V109.63l-5.513.286m5.513 27.466-1.312 1.332-1.393 1.52-1.341 1.575-1.286 1.619-.181.242m5.513 48.793-1.312-1.332-1.393-1.52-1.341-1.575-1.286-1.619-.181-.242v33.754l5.513.288v-27.754Zm-5.513-48.793v-33.754m0 33.754-.814 1.054-.927 1.296-.856 1.3-.786 1.312-.719 1.331-.657 1.351-.598 1.382-.546 1.416-.209.62v-44.528l6.112-.288m20.077 15.72v-16.978l2.921-.238v15.239l-.476.308-1.462.984-.983.685Zm-26.189 94.005v-44.528l.209.62.546 1.416.598 1.382.657 1.351.719 1.331.786 1.312.856 1.301.927 1.296.814 1.052v33.754l-6.112-.287Zm-14.36-.627V110.831l14.36-.631v44.537l-.254.723-.026.078-.407 1.338-.348 1.35-.288 1.361-.223 1.372-.162 1.382-.097 1.394-.029 1.188.029 1.187.097 1.394.162 1.384.223 1.37.288 1.361.348 1.35.407 1.338.026.078.254.723v44.537l-14.36-.631Z" stroke="#fff" stroke-opacity=".3" stroke-width=".5" stroke-linecap="round" stroke-linejoin="round" stroke-dasharray="17.52 8.76 0.02 8.76"/><path clip-rule="evenodd" d="m823.371 219.892-3.761-.186.024-5.732 2.996.052.763.014-.022 5.852Zm261.799-69.541.1-.005.11-.013.1-.023.1-.029.09-.037.09-.046.09-.053.08-.058.08-.065.07-.071.06-.077.06-.082.06-.087.04-.09.04-.095.03-.099.02-.101.01-.105.01-.108v-21.525l-.01-.108-.01-.103-.02-.103-.03-.099-.04-.093-.04-.092-.06-.087-.06-.08-.06-.077-.07-.072-.08-.064-.08-.06-.09-.053-.09-.044-.09-.038-.1-.03-.1-.022-.11-.014-.1-.003-32.89-.002-.11.005-.11.014-.1.022-.1.03-.09.038-.09.044-.09.053-.08.06-.08.064-.07.07-.06.077-.06.082-.06.087-.04.09-.04.095-.03.099-.02.103-.01.103-.01.108v9.905l.01.108.01.104.02.102.03.099.04.094.04.092.06.085.06.082.06.076.07.072.08.065.08.059.09.051.09.046.09.038.1.031.1.022.11.013.11.004h9.67v10.377l.01.108v.105l.03.101.02.099.05.095.04.09.06.087.05.082.07.077.07.07.08.066.07.058.1.053.09.044.09.039.1.029.1.023.1.013.11.005h21.98ZM1069 123.562v-10.03l.01-.138.03-.138.03-.135.06-.128.06-.122.09-.113.09-.104.1-.093.11-.08.13-.069.12-.052.14-.04.14-.024.13-.006h13.68l.14.006.14.024.14.04.12.052.12.069.12.08.1.093.09.104.08.113.07.122.06.128.03.135.03.138.01.138v10.03l-.01.14-.03.136-.03.135-.06.129-.07.121-.08.114-.09.104-.1.092-.12.082-.12.067-.12.054-.14.038-.14.023-.14.009h-13.68l-.13-.009-.14-.023-.14-.038-.12-.054-.13-.067-.11-.082-.1-.092-.09-.104-.09-.114-.06-.121-.06-.129-.03-.135-.03-.136-.01-.14Zm-6.63 29.434.01-.14.02-.138.04-.133.05-.129.07-.123.08-.112.1-.104.1-.094.11-.08.13-.068.12-.053.14-.039.13-.022.14-.009h2.49l.14.009.14.022.13.039.13.053.12.068.12.08.1.094.09.104.08.112.07.123.06.129.03.133.03.138v.278l-.03.138-.03.135-.06.127-.07.123-.08.113-.09.105-.1.092-.12.08-.12.069-.13.052-.13.04-.14.023-.14.007h-2.49l-.14-.007-.13-.023-.14-.04-.12-.052-.13-.069-.11-.08-.1-.092-.1-.105-.08-.113-.07-.123-.05-.127-.04-.135-.02-.138-.01-.138Zm6.63 0 .01-.14.03-.138.03-.133.06-.129.06-.123.09-.112.09-.104.1-.094.11-.08.13-.068.12-.053.14-.039.14-.022.13-.009h14.51l.14.009.13.022.15.039.12.053.12.068.12.08.1.094.09.104.08.112.07.123.06.129.03.133.03.138v.278l-.03.138-.03.135-.06.127-.07.123-.08.113-.09.105-.1.092-.12.08-.12.069-.12.052-.15.04-.13.023-.14.007h-14.51l-.13-.007-.14-.023-.14-.04-.12-.052-.13-.069-.11-.08-.1-.092-.09-.105-.09-.113-.06-.123-.06-.127-.03-.135-.03-.138-.01-.138Zm-34.85-6.598v-2.626l.03-.138.04-.133.05-.129.07-.123.08-.113.09-.104.11-.093.11-.08.12-.069.13-.052.13-.04.14-.023.14-.007h2.49l.14.007.13.023.14.04.13.052.12.069.11.08.11.093.09.104.08.113.07.123.05.129.04.133.02.138.01.138v2.488l-.01.138-.02.138-.04.135-.05.127-.07.123-.08.114-.09.104-.11.092-.11.082-.12.066-.13.053-.14.039-.13.024-.14.007h-2.49l-.14-.007-.14-.024-.13-.039-.13-.053-.12-.066-.11-.082-.11-.092-.09-.104-.08-.114-.07-.123-.05-.127-.04-.135-.03-.138v-.138Zm-38.098-20.266v-3.647l.009-.082.024-.076.037-.072.051-.063.063-.051.074-.039.076-.024.082-.007h6.132l.08.007.08.024.07.039.06.051.06.063.03.072.03.076.01.082v3.647l-.01.08-.03.078-.03.072-.06.063-.06.051-.07.039-.08.022-.08.009h-6.132l-.082-.009-.076-.022-.074-.039-.063-.051-.051-.063-.037-.072-.024-.078-.009-.08Zm8.608 4.592.03-.39.08-.382.14-.366.19-.344.23-.312.28-.278.31-.234.34-.187.37-.136.38-.084.39-.027.39.027.38.084.37.136.34.187.32.234.27.278.24.312.18.344.14.366.08.382.03.39-.03.39-.08.382-.14.366-.18.343-.24.313-.27.276-.32.234-.34.187-.37.138-.38.082-.39.029-.39-.029-.38-.082-.37-.138-.34-.187-.31-.234-.28-.276-.23-.313-.19-.343-.14-.366-.08-.382-.03-.39Zm-8.078.339.031-.419.089-.412.148-.394.201-.37.252-.337.298-.298.338-.253.369-.201.396-.148.411-.089.419-.03.421.03.415.089.39.148.37.201.34.253.29.298.26.337.2.37.15.394.09.412.03.419-.03.421-.09.411-.15.395-.2.37-.26.336-.29.298-.34.252-.37.203-.39.146-.415.091-.421.029-.419-.029-.411-.091-.396-.146-.369-.203-.338-.252-.298-.298-.252-.336-.201-.37-.148-.395-.089-.411-.031-.421Zm6.948 19.685V139.56l.01-.181.02-.179.04-.177.05-.172.07-.167.09-.16.09-.154.11-.143.13-.133.13-.123.14-.109.16-.097.16-.083.16-.07.18-.055.17-.039.18-.024.18-.007h3.73l.18.007.18.024.18.039.17.055.17.07.16.083.15.097.14.109.14.123.12.133.11.143.1.154.08.16.07.167.05.172.04.177.03.179V150.929l-.03.181-.04.175-.05.172-.07.167-.08.16-.1.154-.11.143-.12.133-.14.123-.14.11-.15.097-.16.084-.17.068-.17.055-.18.039-.18.024-.18.006h-3.73l-.18-.006-.18-.024-.17-.039-.18-.055-.16-.068-.16-.084-.16-.097-.14-.11-.13-.123-.13-.133-.11-.143-.09-.154-.09-.16-.07-.167-.05-.172-.04-.175-.02-.181-.01-.181Zm.76 15.717v-10.196l.01-.139.02-.137.04-.134.06-.13.06-.121.08-.114.1-.104.1-.094.11-.08.13-.066.12-.055.14-.037.14-.024.14-.008h5.05l.14.008.14.024.13.037.13.055.12.066.12.08.1.094.09.104.08.114.07.121.06.13.03.134.03.137.01.139v10.196l-.01.138-.03.138-.03.134-.06.128-.07.123-.08.114-.09.104-.1.092-.12.082-.12.066-.13.053-.13.039-.14.024-.14.007h-5.05l-.14-.007-.14-.024-.14-.039-.12-.053-.13-.066-.11-.082-.1-.092-.1-.104-.08-.114-.06-.123-.06-.128-.04-.134-.02-.138-.01-.138Zm-7.113 2.437v-12.517l.007-.139.024-.137.037-.134.055-.13.066-.121.082-.114.092-.104.104-.092.114-.082.123-.066.128-.055.134-.037.136-.024.14-.009h3.111l.14.009.14.024.13.037.13.055.12.066.11.082.11.092.09.104.08.114.07.121.05.13.04.134.02.137.01.139v12.517l-.01.139-.02.137-.04.134-.05.128-.07.123-.08.114-.09.104-.11.092-.11.082-.12.066-.13.053-.13.039-.14.024-.14.007h-3.111l-.14-.007-.136-.024-.134-.039-.128-.053-.123-.066-.114-.082-.104-.092-.092-.104-.082-.114-.066-.123-.055-.128-.037-.134-.024-.137-.007-.139Zm-14.599-29.675.04-.538.114-.53.191-.506.257-.476.325-.433.382-.383.435-.324.475-.259.506-.189.53-.116.539-.039.54.039.528.116.508.189.475.259.433.324.382.383.325.433.259.476.189.506.115.53.039.538-.039.54-.115.529-.189.508-.259.475-.325.433-.382.381-.433.326-.475.259-.508.189-.528.114-.54.039-.539-.039-.53-.114-.506-.189-.475-.259-.435-.326-.382-.381-.325-.433-.257-.475-.191-.508-.114-.529-.04-.54Zm-5.851 4.468.025-.361.079-.353.126-.337.172-.319.216-.288.256-.255.29-.217.316-.174.34-.126.352-.076.362-.026.359.026.355.076.339.126.315.174.29.217.255.255.217.288.173.319.127.337.076.353.026.361-.026.362-.076.352-.127.339-.173.317-.217.288-.255.256-.29.218-.315.172-.339.126-.355.077-.359.026-.362-.026-.352-.077-.34-.126-.316-.172-.29-.218-.256-.256-.216-.288-.172-.317-.126-.339-.079-.352-.025-.362Zm6.059 4.385.039-.54.115-.529.189-.506.259-.475.325-.433.382-.383.433-.324.475-.261.508-.189.528-.114.541-.039.538.039.53.114.506.189.475.261.435.324.382.383.323.433.259.475.191.506.115.529.039.54-.039.54-.115.528-.191.508-.259.475-.323.433-.382.382-.435.326-.475.259-.506.189-.53.114-.538.039-.541-.039-.528-.114-.508-.189-.475-.259-.433-.326-.382-.382-.325-.433-.259-.475-.189-.508-.115-.528-.039-.54Zm-16.233 4.907-.294-.022-.288-.063-.278-.102-.261-.141-.235-.178-.21-.209-.177-.237-.141-.259-.104-.278-.063-.288-.021-.295.021-.294.063-.29.104-.276.141-.261.177-.237.21-.208.235-.177.261-.141.278-.104.288-.063.294-.021h5.471l.27.017.266.053.258.087.242.121.226.15.203.179.179.203.15.226.121.242.087.258.053.265.017.271-.017.27-.053.265-.087.258-.121.243-.15.225-.179.205-.203.177-.226.152-.242.119-.258.087-.266.053-.27.018h-5.471Zm-2.072 14.671v-11.107l.009-.181.024-.179.037-.175.055-.174.07-.167.083-.16.097-.152.111-.143.121-.135.133-.121.145-.111.151-.097.161-.083.167-.068.172-.055.177-.039.179-.024.18-.008h5.471l.18.008.179.024.177.039.172.055.169.068.159.083.153.097.143.111.133.121.123.135.11.143.096.152.085.16.068.167.055.174.039.175.024.179.007.181v11.107l-.007.18-.024.179-.039.177-.055.173-.068.166-.085.161-.096.153-.11.143-.123.133-.133.123-.143.109-.153.097-.159.083-.169.07-.172.055-.177.039-.179.024-.18.007h-5.471l-.18-.007-.179-.024-.177-.039-.172-.055-.167-.07-.161-.083-.151-.097-.145-.109-.133-.123-.121-.133-.111-.143-.097-.153-.083-.161-.07-.166-.055-.173-.037-.177-.024-.179-.009-.18Zm11.273.208v-5.886l.008-.181.024-.179.039-.175.055-.174.068-.167.083-.16.098-.152.11-.143.121-.135.135-.121.143-.11.152-.098.16-.083.167-.068.174-.055.175-.039.179-.024.181-.008h12.848l.181.008.179.024.175.039.174.055.167.068.16.083.152.098.143.11.135.121.121.135.111.143.097.152.083.16.068.167.055.174.039.175.024.179.008.181v5.886l-.008.18-.024.179-.039.177-.055.172-.068.167-.083.161-.097.151-.111.143-.121.135-.135.121-.143.111-.152.097-.16.083-.167.07-.174.053-.175.039-.179.024-.181.009h-12.848l-.181-.009-.179-.024-.175-.039-.174-.053-.167-.07-.16-.083-.152-.097-.143-.111-.135-.121-.121-.135-.11-.143-.098-.151-.083-.161-.068-.167-.055-.172-.039-.177-.024-.179-.008-.18Zm-9.201 7.666-.294-.02-.288-.063-.278-.104-.261-.142-.235-.177-.21-.21-.177-.235-.141-.261-.104-.276-.063-.289-.021-.295.021-.295.063-.29.104-.276.141-.259.177-.237.21-.209.235-.177.261-.142.278-.104.288-.063.294-.02h5.471l.27.017.266.053.258.088.242.12.226.15.203.178.179.205.15.225.121.244.087.255.053.266.017.271-.017.271-.053.266-.087.255-.121.244-.15.225-.179.204-.203.179-.226.15-.242.121-.258.087-.266.053-.27.017h-5.471Zm-3.125 11.571v-4.061l.009-.08.024-.079.037-.071.051-.063.063-.051.074-.04.076-.023.08-.007h3.649l.08.007.078.023.072.04.063.051.051.063.037.071.024.079.009.08v4.061l-.009.081-.024.077-.037.073-.051.062-.063.052-.072.038-.078.024-.08.008h-3.649l-.08-.008-.076-.024-.074-.038-.063-.052-.051-.062-.037-.073-.024-.077-.009-.081Zm5.348 4.974v-9.035l.008-.08.022-.079.039-.071.052-.063.063-.051.071-.04.077-.023.082-.007h4.475l.081.007.077.023.073.04.063.051.051.063.038.071.024.079.008.08v9.035l-.008.08-.024.078-.038.072-.051.063-.063.051-.073.039-.077.022-.081.009h-4.475l-.082-.009-.077-.022-.071-.039-.063-.051-.052-.063-.039-.072-.022-.078-.008-.08Zm46.054 4.243.03-.39.08-.382.14-.367.19-.342.23-.314.28-.276.31-.233.34-.188.37-.138.38-.081.39-.029.39.029.38.081.37.138.34.188.32.233.27.276.23.314.19.342.14.367.08.382.03.39-.03.39-.08.382-.14.366-.19.344-.23.312-.27.278-.32.233-.34.188-.37.136-.38.084-.39.027-.39-.027-.38-.084-.37-.136-.34-.188-.31-.233-.28-.278-.23-.312-.19-.344-.14-.366-.08-.382-.03-.39Zm7.11 3.895v-14.091l.01-.18.02-.179.04-.176.06-.172.07-.167.08-.162.1-.151.11-.143.12-.133.13-.123.15-.111.15-.097.16-.083.17-.069.17-.054.18-.039.18-.024.18-.009h4.59l.19.009.17.024.18.039.17.054.17.069.16.083.15.097.15.111.13.123.12.133.11.143.1.151.08.162.07.167.06.172.04.176.02.179.01.18v14.091l-.01.181-.02.18-.04.176-.06.172-.07.167-.08.162-.1.152-.11.143-.12.133-.13.122-.15.111-.15.097-.16.084-.17.068-.17.054-.18.04-.17.023-.19.009h-4.59l-.18-.009-.18-.023-.18-.04-.17-.054-.17-.068-.16-.084-.15-.097-.15-.111-.13-.122-.12-.133-.11-.143-.1-.152-.08-.162-.07-.167-.06-.172-.04-.176-.02-.18-.01-.181Zm9.76 0v-8.288l.01-.181.03-.179.03-.175.06-.174.07-.167.08-.16.1-.152.11-.143.12-.135.13-.121.15-.111.15-.097.16-.083.17-.068.17-.055.18-.039.17-.024.18-.008h12.85l.19.008.17.024.18.039.18.055.16.068.16.083.15.097.15.111.13.121.12.135.11.143.1.152.08.16.07.167.05.174.04.175.03.179.01.181v8.288l-.01.181-.03.18-.04.176-.05.172-.07.167-.08.162-.1.152-.11.143-.12.133-.13.122-.15.111-.15.097-.16.084-.16.068-.18.054-.18.04-.17.023-.19.009h-12.85l-.18-.009-.17-.023-.18-.04-.17-.054-.17-.068-.16-.084-.15-.097-.15-.111-.13-.122-.12-.133-.11-.143-.1-.152-.08-.162-.07-.167-.06-.172-.03-.176-.03-.18-.01-.181Zm11.47-14.247v-2.311l.03-.138.04-.133.05-.13.07-.122.08-.113.09-.104.11-.093.12-.08.11-.069.13-.052.14-.04.14-.022.14-.008h1.93l.13.008.14.022.13.04.14.052.11.069.12.08.11.093.09.104.08.113.07.122.05.13.04.133.02.138.01.14v2.171l-.01.139-.02.137-.04.134-.05.13-.07.121-.08.114-.09.104-.11.092-.12.082-.11.066-.14.055-.13.037-.14.024-.13.009h-1.93l-.14-.009-.14-.024-.14-.037-.13-.055-.11-.066-.12-.082-.11-.092-.09-.104-.08-.114-.07-.121-.05-.13-.04-.134-.03-.137v-.139Zm-8.85-1.427.04-.538.11-.53.19-.506.26-.476.32-.432.39-.384.43-.324.47-.259.51-.189.53-.116.54-.037.54.037.53.116.5.189.48.259.44.324.38.384.32.432.26.476.19.506.11.53.05.538-.05.541-.11.529-.19.507-.26.475-.32.433-.38.383-.44.324-.48.259-.5.189-.53.116-.54.038-.54-.038-.53-.116-.51-.189-.47-.259-.43-.324-.39-.383-.32-.433-.26-.475-.19-.507-.11-.529-.04-.541Zm18.92 16.869v-2.819l.01-.08.02-.078.03-.072.06-.063.06-.051.07-.039.08-.022.08-.009h6.96l.09.009.07.022.08.039.05.051.06.063.04.072.02.078.01.08v2.819l-.01.08-.02.078-.04.072-.06.063-.05.051-.08.039-.07.022-.09.009h-6.96l-.08-.009-.08-.022-.07-.039-.06-.051-.06-.063-.03-.072-.02-.078-.01-.08Zm23.64-.721v-11.163l.03-.138.03-.135.06-.128.07-.122.08-.113.09-.104.1-.094.12-.08.12-.068.13-.053.14-.039.13-.024.14-.007h.83l.14.007.13.024.14.039.13.053.12.068.12.08.1.094.09.104.08.113.07.122.05.128.04.135.02.138.01.138v11.025l-.01.138-.02.138-.04.135-.05.127-.07.123-.08.114-.09.104-.1.092-.12.082-.12.066-.13.053-.14.039-.13.024-.14.007h-.83l-.14-.007-.13-.024-.14-.039-.13-.053-.12-.066-.12-.082-.1-.092-.09-.104-.08-.114-.07-.123-.06-.127-.03-.135-.03-.138v-.138Zm-18.41-15.732.05-.54.11-.528.19-.508.26-.476.32-.432.39-.384.44-.324.47-.259.5-.189.53-.116.54-.037.54.037.53.116.51.189.47.259.44.324.38.384.32.432.26.476.19.508.12.528.04.54-.04.539-.12.53-.19.506-.26.475-.32.433-.38.383-.44.324-.47.259-.51.189-.53.116-.54.038-.54-.038-.53-.116-.5-.189-.47-.259-.44-.324-.39-.383-.32-.433-.26-.475-.19-.506-.11-.53-.05-.539Zm-3.16-7.188v-5.055l.01-.138.02-.139.04-.134.05-.128.07-.123.08-.114.09-.104.1-.092.12-.08.12-.068.13-.053.14-.039.13-.024.14-.007h9.78l.14.007.14.024.14.039.12.053.13.068.11.08.1.092.09.104.09.114.06.123.06.128.03.134.03.139.01.138v5.055l-.01.14-.03.138-.03.133-.06.13-.06.122-.09.113-.09.104-.1.093-.11.081-.13.068-.12.053-.14.039-.14.022-.14.008h-9.78l-.14-.008-.13-.022-.14-.039-.13-.053-.12-.068-.12-.081-.1-.093-.09-.104-.08-.113-.07-.122-.05-.13-.04-.133-.02-.138-.01-.14Zm-165.219-26.48v-.83l.007-.14.024-.136.037-.135.055-.128.066-.123.082-.114.092-.104.104-.092.114-.081.121-.067.13-.054.134-.038.137-.024.139-.007h2.073l.139.007.138.024.133.038.13.054.121.067.114.081.104.092.094.104.08.114.066.123.055.128.037.135.024.136.008.14v.83l-.008.138-.024.138-.037.134-.055.128-.066.123-.08.112-.094.104-.104.094-.114.08-.121.068-.13.053-.133.039-.138.024-.139.007h-2.073l-.139-.007-.137-.024-.134-.039-.13-.053-.121-.068-.114-.08-.104-.094-.092-.104-.082-.112-.066-.123-.055-.128-.037-.134-.024-.138-.007-.138Zm0 5.635v-.828l.007-.14.024-.138.037-.133.055-.13.066-.121.082-.114.092-.104.104-.093.114-.08.121-.069.13-.052.134-.04.137-.022.139-.008h.83l.138.008.138.022.133.04.13.052.122.069.113.08.106.093.092.104.08.114.068.121.053.13.039.133.022.138.009.14v.828l-.009.14-.022.138-.039.133-.053.129-.068.121-.08.114-.092.104-.106.094-.113.08-.122.068-.13.053-.133.037-.138.024-.138.009h-.83l-.139-.009-.137-.024-.134-.037-.13-.053-.121-.068-.114-.08-.104-.094-.092-.104-.082-.114-.066-.121-.055-.129-.037-.133-.024-.138-.007-.14Zm11.065 11.729v-1.824l.008-.139.024-.138.037-.133.055-.13.066-.121.08-.114.094-.104.104-.094.114-.08.121-.068.13-.053.133-.039.138-.022.139-.009h2.487l.139.009.137.022.134.039.13.053.121.068.114.08.104.094.094.104.08.114.066.121.055.13.037.133.024.138.009.139v1.824l-.009.14-.024.136-.037.134-.055.128-.066.123-.08.114-.094.104-.104.092-.114.082-.121.066-.13.055-.134.037-.137.024-.139.009h-2.487l-.139-.009-.138-.024-.133-.037-.13-.055-.121-.066-.114-.082-.104-.092-.094-.104-.08-.114-.066-.123-.055-.128-.037-.134-.024-.136-.008-.14Zm0 15.582v-12.019l.008-.138.024-.138.037-.135.055-.128.066-.122.08-.113.094-.104.104-.093.114-.08.121-.069.13-.052.133-.04.138-.023.139-.007h2.487l.139.007.137.023.134.04.13.052.121.069.114.08.104.093.094.104.08.113.066.122.055.128.037.135.024.138.009.138v12.019l-.009.139-.024.138-.037.133-.055.13-.066.122-.08.113-.094.104-.104.094-.114.08-.121.068-.13.053-.134.039-.137.022-.139.009h-2.487l-.139-.009-.138-.022-.133-.039-.13-.053-.121-.068-.114-.08-.104-.094-.094-.104-.08-.113-.066-.122-.055-.13-.037-.133-.024-.138-.008-.139ZM887.23 181.5v-8.868l.009-.14.023-.138.04-.133.052-.129.067-.123.082-.113.092-.104.104-.093.114-.08.123-.069.127-.052.135-.04.136-.022.14-.008h9.781l.138.008.138.022.133.04.13.052.122.069.113.08.104.093.094.104.08.113.068.123.053.129.039.133.022.138.008.14v8.868l-.008.139-.022.138-.039.133-.053.13-.068.121-.08.114-.094.104-.104.094-.113.08-.122.068-.13.053-.133.039-.138.022-.138.009h-9.781l-.14-.009-.136-.022-.135-.039-.127-.053-.123-.068-.114-.08-.104-.094-.092-.104-.082-.114-.067-.121-.052-.13-.04-.133-.023-.138-.009-.139Zm248.05-16.577-2.2-6.772-5.76-4.185h-7.12l-5.76 4.185-2.2 6.772 2.2 6.772 5.76 4.185h7.12l5.76-4.185 2.2-6.772Z" stroke="#fff" stroke-opacity=".3" stroke-width=".5" stroke-linecap="round" stroke-linejoin="round" stroke-dasharray="17.52 8.76 0.02 8.76"/><path d="M918.612 111.468v106.909l3.751.16 11.522.48V110.829l-11.522.479-3.751.16Zm0 0v106.91l-30.859-1.298V112.765l30.859-1.297Zm-30.859 1.293v104.322l-23.904-.99V113.752l23.904-.991Zm-23.904.977v102.369l-2.495-.063V113.801l2.495-.063Z" stroke="#fff" stroke-width=".3" stroke-linecap="round" stroke-linejoin="round" stroke-dasharray="17.52 8.76 0.02 8.76"/><path clip-rule="evenodd" d="M861.354 113.798v102.249l-2.898-.04V113.839l2.898-.041Zm-2.902.042v102.165l-7.199-.085V113.926l7.199-.086Z" stroke="#fff" stroke-width=".3" stroke-linecap="round" stroke-linejoin="round" stroke-dasharray="17.52 8.76 0.02 8.76"/><path d="m846.292 215.904 4.974.022V113.919l-4.974.022m0 101.963V113.941m0 101.963-.826.004-3.942.025V113.912m4.768.029-.826-.004-3.942-.025m0 0v102.02l-4.746.071V113.842l4.746.07Zm-9.03 102.188 4.283-.099V113.844l-4.283-.099m0 102.355V113.745m0 102.355-4.074.128m4.074-102.483-4.074-.128m0 102.611V113.617m0 102.611-3.868.159V113.459l3.868.158m195.49-5.881.02-7.695.83-.041-.01 7.493-.84.243Z" stroke="#fff" stroke-width=".3" stroke-linecap="round" stroke-linejoin="round" stroke-dasharray="17.52 8.76 0.02 8.76"/></svg>