<svg width="16" height="16" viewBox="0 0 16 16" fill="none" xmlns="http://www.w3.org/2000/svg">
<g id="gear">
<path id="Union" fill-rule="evenodd" clip-rule="evenodd" d="M7.32059 0.833984C7.09345 0.833984 6.89486 0.987079 6.83705 1.20673L6.4784 2.56956L5.23272 3.09466L4.33221 2.29371C4.13436 2.11773 3.83361 2.12652 3.64637 2.31376L2.31303 3.6471C2.13186 3.82827 2.11696 4.11708 2.27852 4.31594L3.06088 5.27889L2.54926 6.53675L1.21961 6.84707C0.993331 6.89988 0.833252 7.10162 0.833252 7.33398V8.66732C0.833252 8.89275 0.984101 9.0903 1.20157 9.14967L2.56772 9.52262L3.09363 10.7702L2.29336 11.6679C2.11701 11.8658 2.12564 12.1668 2.31303 12.3542L3.64637 13.6875C3.82774 13.8689 4.11695 13.8836 4.31579 13.7216L5.27912 12.9365L6.50814 13.4421L6.84847 14.7897C6.90454 15.0118 7.10426 15.1673 7.33325 15.1673H8.66659C8.89545 15.1673 9.09509 15.0119 9.15128 14.7901L9.49269 13.4421L10.7579 12.9181C10.887 13.0247 11.0457 13.1606 11.2005 13.2952C11.3259 13.4045 11.4425 13.5073 11.5278 13.583L11.6291 13.6731L11.6661 13.7062C11.8638 13.8835 12.1657 13.8753 12.3535 13.6875L13.6868 12.3542C13.8708 12.1702 13.8829 11.8758 13.7146 11.6773L12.9225 10.743L13.4426 9.48721L14.7924 9.13601C15.0127 9.07869 15.1665 8.87979 15.1665 8.65214L15.1666 7.33401C15.1666 7.10532 15.0114 6.90577 14.7898 6.84941L13.4476 6.50809L12.9282 5.25403L13.7151 4.32349C13.8829 4.12496 13.8706 3.83093 13.6868 3.6471L12.3535 2.31376C12.1689 2.12922 11.8735 2.11766 11.6751 2.28721L10.7506 3.07728L9.45881 2.54605L9.10705 1.20695C9.04932 0.987189 8.85067 0.833984 8.62345 0.833984H7.32059ZM7.38285 3.06199L7.70603 1.83398H8.23783L8.55486 3.04084C8.59469 3.19246 8.70331 3.31661 8.84828 3.37623L10.6529 4.11837C10.8264 4.18973 11.0253 4.15795 11.1679 4.03606L11.9733 3.34779L12.6545 4.02901L11.9679 4.84102C11.8471 4.9839 11.8162 5.18228 11.8878 5.35516L12.6196 7.12223C12.6799 7.26793 12.8055 7.37663 12.9583 7.4155L14.1666 7.72275L14.1665 8.26556L12.95 8.58209C12.7983 8.62156 12.6739 8.72987 12.6139 8.87468L11.8819 10.6423C11.8102 10.8154 11.8413 11.014 11.9625 11.1569L12.6541 11.9727L11.9791 12.6477C11.94 12.6133 11.899 12.5775 11.857 12.541C11.6089 12.325 11.2983 12.0597 11.1274 11.9376C10.987 11.8372 10.8048 11.8163 10.6453 11.8824L8.87827 12.6142C8.73241 12.6746 8.62365 12.8003 8.58489 12.9534L8.27743 14.1673H7.72268L7.41603 12.9531C7.37724 12.7995 7.26797 12.6734 7.12148 12.6131L5.38425 11.8985C5.2146 11.8287 5.02036 11.8574 4.87816 11.9733L4.03413 12.6611L3.35399 11.9809L4.05031 11.1998C4.17872 11.0558 4.21278 10.8507 4.13782 10.6729L3.39473 8.9101C3.33509 8.76863 3.21378 8.6624 3.06567 8.62197L1.83325 8.28552V7.73073L3.02856 7.45177C3.18661 7.41488 3.31693 7.30357 3.37807 7.15323L4.09865 5.3816C4.1674 5.21258 4.13862 5.01954 4.02356 4.87793L3.339 4.03535L4.02 3.35434L4.8039 4.05156C4.94793 4.17967 5.15278 4.21357 5.33041 4.1387L7.09354 3.39548C7.23649 3.33522 7.34337 3.21202 7.38285 3.06199ZM7.99992 5.50061C6.61918 5.50061 5.49992 6.61987 5.49992 8.00061C5.49992 9.38135 6.61918 10.5006 7.99992 10.5006C9.38067 10.5006 10.4999 9.38135 10.4999 8.00061C10.4999 6.61987 9.38067 5.50061 7.99992 5.50061ZM6.49992 8.00061C6.49992 7.17215 7.17147 6.50061 7.99992 6.50061C8.82838 6.50061 9.49992 7.17215 9.49992 8.00061C9.49992 8.82907 8.82838 9.50061 7.99992 9.50061C7.17147 9.50061 6.49992 8.82907 6.49992 8.00061Z" fill="white"/>
</g>
</svg>
