<svg width="13" height="13" viewBox="0 0 13 13" fill="none" xmlns="http://www.w3.org/2000/svg">
<path fill-rule="evenodd" clip-rule="evenodd" d="M1.125 6.5C1.125 3.53147 3.53147 1.125 6.5 1.125C9.46851 1.125 11.875 3.53147 11.875 6.5C11.875 9.46851 9.46851 11.875 6.5 11.875C3.53147 11.875 1.125 9.46851 1.125 6.5ZM6.5 1.875C3.94568 1.875 1.875 3.94568 1.875 6.5C1.875 9.05429 3.94568 11.125 6.5 11.125C9.05429 11.125 11.125 9.05429 11.125 6.5C11.125 3.94568 9.05429 1.875 6.5 1.875ZM6.75587 3.97072C6.90981 4.10928 6.92228 4.34638 6.78372 4.50032L6.77872 4.50587C6.64017 4.65981 6.40306 4.67228 6.24913 4.53372C6.09519 4.39517 6.08272 4.15806 6.22128 4.00413L6.22628 3.99857C6.36483 3.84464 6.60194 3.83217 6.75587 3.97072ZM6.5 5.875C6.70711 5.875 6.875 6.04289 6.875 6.25V8.75C6.875 8.95711 6.70711 9.125 6.5 9.125C6.29289 9.125 6.125 8.95711 6.125 8.75V6.25C6.125 6.04289 6.29289 5.875 6.5 5.875Z" fill="white"/>
</svg>
