<svg width="16" height="16" viewBox="0 0 16 16" fill="none" xmlns="http://www.w3.org/2000/svg">
<g id="Log-out icon">
<path id="move_item" d="M12.4333 8.66667H4.33333V7.33333H12.4333L11.4 6.3L12.3333 5.33333L15 8L12.3333 10.6667L11.4 9.7L12.4333 8.66667ZM9 6V3.33333H2.33333V12.6667H9V10H10.3333V12.6667C10.3333 13.0333 10.2028 13.3472 9.94167 13.6083C9.68056 13.8694 9.36667 14 9 14H2.33333C1.96667 14 1.65278 13.8694 1.39167 13.6083C1.13056 13.3472 1 13.0333 1 12.6667V3.33333C1 2.96667 1.13056 2.65278 1.39167 2.39167C1.65278 2.13056 1.96667 2 2.33333 2H9C9.36667 2 9.68056 2.13056 9.94167 2.39167C10.2028 2.65278 10.3333 2.96667 10.3333 3.33333V6H9Z" fill="white"/>
</g>
</svg>
