<svg width="16" height="16" viewBox="0 0 16 16" fill="none" xmlns="http://www.w3.org/2000/svg">
<path d="M8.00033 1.83398C7.54014 1.83398 7.16699 2.20706 7.16699 2.66732C7.16699 3.12758 7.54014 3.50065 8.00033 3.50065C8.46051 3.50065 8.83366 3.12758 8.83366 2.66732C8.83366 2.20706 8.46051 1.83398 8.00033 1.83398Z" fill="white"/>
<path d="M8.00033 7.16748C7.54012 7.16748 7.16699 7.5406 7.16699 8.00081C7.16699 8.46102 7.54012 8.83415 8.00033 8.83415C8.46053 8.83415 8.83366 8.46102 8.83366 8.00081C8.83366 7.5406 8.46053 7.16748 8.00033 7.16748Z" fill="white"/>
<path d="M8.00033 12.5007C7.54012 12.5007 7.16699 12.8739 7.16699 13.3341C7.16699 13.7943 7.54012 14.1674 8.00033 14.1674C8.46053 14.1674 8.83366 13.7943 8.83366 13.3341C8.83366 12.8739 8.46053 12.5007 8.00033 12.5007Z" fill="white"/>
</svg>
