<svg width="32" height="32" viewBox="0 0 32 32" fill="none" xmlns="http://www.w3.org/2000/svg">
<path d="M16.0003 9.83398C15.5401 9.83398 15.167 10.2071 15.167 10.6673C15.167 11.1276 15.5401 11.5007 16.0003 11.5007C16.4605 11.5007 16.8337 11.1276 16.8337 10.6673C16.8337 10.2071 16.4605 9.83398 16.0003 9.83398Z" fill="white"/>
<path d="M16.0003 15.1675C15.5401 15.1675 15.167 15.5406 15.167 16.0008C15.167 16.461 15.5401 16.8341 16.0003 16.8341C16.4605 16.8341 16.8337 16.461 16.8337 16.0008C16.8337 15.5406 16.4605 15.1675 16.0003 15.1675Z" fill="white"/>
<path d="M16.0003 20.5007C15.5401 20.5007 15.167 20.8739 15.167 21.3341C15.167 21.7943 15.5401 22.1674 16.0003 22.1674C16.4605 22.1674 16.8337 21.7943 16.8337 21.3341C16.8337 20.8739 16.4605 20.5007 16.0003 20.5007Z" fill="white"/>
</svg>
