<svg width="16" height="16" viewBox="0 0 16 16" fill="none" xmlns="http://www.w3.org/2000/svg">
<g id="show">
<path id="Vector" fill-rule="evenodd" clip-rule="evenodd" d="M13.5442 8.87193C11.3211 3.93169 4.67919 3.93169 2.45608 8.87193C2.34277 9.12375 2.04676 9.23603 1.79494 9.12271C1.54312 9.00939 1.43084 8.71339 1.54416 8.46157C4.12105 2.73514 11.8792 2.73514 14.4561 8.46157C14.5694 8.71339 14.4571 9.00939 14.2053 9.12271C13.9535 9.23603 13.6575 9.12375 13.5442 8.87193ZM8.00012 7.83342C7.17167 7.83342 6.50012 8.50496 6.50012 9.33342C6.50012 10.1619 7.17167 10.8334 8.00012 10.8334C8.82858 10.8334 9.50012 10.1619 9.50012 9.33342C9.50012 8.50496 8.82858 7.83342 8.00012 7.83342ZM5.50012 9.33342C5.50012 7.95267 6.61938 6.83342 8.00012 6.83342C9.38087 6.83342 10.5001 7.95267 10.5001 9.33342C10.5001 10.7142 9.38087 11.8334 8.00012 11.8334C6.61938 11.8334 5.50012 10.7142 5.50012 9.33342Z" fill="white"/>
</g>
</svg>
