<svg width="16" height="16" viewBox="0 0 24 24" fill="none" xmlns="http://www.w3.org/2000/svg">
<path fill-rule="evenodd" clip-rule="evenodd" d="M1 12C1 5.92487 5.92487 1 12 1C18.0751 1 23 5.92486 23 12C23 18.0751 18.0751 23 12 23C5.92486 23 1 18.0751 1 12ZM12 2.53488C6.77256 2.53488 2.53488 6.77256 2.53488 12C2.53488 17.2274 6.77256 21.4651 12 21.4651C17.2274 21.4651 21.4651 17.2274 21.4651 12C21.4651 6.77256 17.2274 2.53488 12 2.53488ZM17.6589 7.87594C17.9586 8.17565 17.9586 8.66156 17.6589 8.96127L10.4962 16.1241C10.1964 16.4238 9.71053 16.4238 9.41082 16.1241L6.34106 13.0543C6.04135 12.7546 6.04135 12.2687 6.34106 11.969C6.64076 11.6693 7.12668 11.6693 7.42638 11.969L9.95349 14.4961L16.5736 7.87594C16.8733 7.57624 17.3592 7.57624 17.6589 7.87594Z" fill="#3D7E00"/>
</svg>
