<svg xmlns="http://www.w3.org/2000/svg" width="16" height="16" viewBox="0 0 16 16" fill="none">
  <path fill-rule="evenodd" clip-rule="evenodd" d="M1.51944 2.71302C1.802 2.71302 2.03107 2.94208 2.03107 3.22464V7.3048C2.03145 7.30824 2.03216 7.31387 2.03343 7.32149C2.03757 7.34629 2.04753 7.39193 2.07089 7.452C2.11648 7.56922 2.21785 7.75408 2.4493 7.95247C2.91585 8.35236 3.96826 8.85255 6.29463 8.85255C6.6865 8.85255 7.04299 8.83833 7.36708 8.81267C7.64876 8.79037 7.89519 9.00064 7.91749 9.28232C7.93979 9.56401 7.72952 9.81043 7.44784 9.83274C7.09467 9.86069 6.71114 9.87581 6.29463 9.87581C3.84582 9.87581 2.51063 9.35274 1.78338 8.72938C1.41793 8.41614 1.22085 8.08937 1.11721 7.82287C1.06596 7.69108 1.03862 7.57683 1.0241 7.48971C1.01684 7.44616 1.01277 7.40932 1.01052 7.38032C1.00939 7.36582 1.00871 7.35326 1.00832 7.34278L1.00792 7.32862L1.00784 7.32274L1.00782 7.3201L1.00781 7.31886C1.00781 7.31826 1.00781 7.31767 1.51944 7.31767H1.00781V3.22464C1.00781 2.94208 1.23688 2.71302 1.51944 2.71302Z" fill="black"/>
  <path fill-rule="evenodd" clip-rule="evenodd" d="M11.0698 2.71302C11.3524 2.71302 11.5815 2.94208 11.5815 3.22464V7.31767C11.5815 7.60023 11.3524 7.82929 11.0698 7.82929C10.7873 7.82929 10.5582 7.60023 10.5582 7.31767V3.22464C10.5582 2.94208 10.7873 2.71302 11.0698 2.71302Z" fill="black"/>
  <path fill-rule="evenodd" clip-rule="evenodd" d="M2.03282 3.22464C2.03301 3.22586 2.03321 3.22713 2.03343 3.22847C2.03757 3.25327 2.04753 3.29891 2.07089 3.35897C2.11648 3.4762 2.21785 3.66106 2.4493 3.85944C2.91585 4.25934 3.96826 4.75953 6.29463 4.75953C8.62101 4.75953 9.67342 4.25934 10.14 3.85944C10.3714 3.66106 10.4728 3.4762 10.5184 3.35897C10.5417 3.29891 10.5517 3.25327 10.5558 3.22847C10.5561 3.22713 10.5563 3.22586 10.5565 3.22464C10.5563 3.22343 10.5561 3.22216 10.5558 3.22082C10.5517 3.19602 10.5417 3.15038 10.5184 3.09031C10.4728 2.97309 10.3714 2.78823 10.14 2.58984C9.67342 2.18995 8.62101 1.68976 6.29463 1.68976C3.96826 1.68976 2.91585 2.18995 2.4493 2.58984C2.21785 2.78823 2.11648 2.97309 2.07089 3.09031C2.04753 3.15038 2.03757 3.19602 2.03343 3.22082C2.03321 3.22216 2.03301 3.22343 2.03282 3.22464ZM11.0698 3.22464C11.5815 3.22464 11.5815 3.22405 11.5815 3.22345L11.5815 3.22221L11.5814 3.21957L11.5814 3.21369L11.5809 3.19953C11.5806 3.18905 11.5799 3.17649 11.5787 3.16199C11.5765 3.13299 11.5724 3.09615 11.5652 3.0526C11.5506 2.96548 11.5233 2.85123 11.4721 2.71944C11.3684 2.45294 11.1713 2.12617 10.8059 1.81293C10.0786 1.18957 8.74345 0.666504 6.29463 0.666504C3.84582 0.666504 2.51063 1.18957 1.78338 1.81293C1.41793 2.12617 1.22085 2.45294 1.11721 2.71944C1.06596 2.85123 1.03862 2.96548 1.0241 3.0526C1.01684 3.09615 1.01277 3.13299 1.01052 3.16199C1.00939 3.17649 1.00871 3.18905 1.00832 3.19953L1.00792 3.21369L1.00784 3.21957L1.00782 3.22221L1.00781 3.22345C1.00781 3.22405 1.00781 3.22464 1.51944 3.22464C1.00781 3.22464 1.00781 3.22524 1.00781 3.22584L1.00782 3.22708L1.00784 3.22972L1.00792 3.2356L1.00832 3.24976C1.00871 3.26024 1.00939 3.2728 1.01052 3.2873C1.01277 3.31629 1.01684 3.35314 1.0241 3.39669C1.03862 3.48381 1.06596 3.59805 1.11721 3.72985C1.22085 3.99634 1.41793 4.32311 1.78338 4.63636C2.51063 5.25972 3.84582 5.78278 6.29463 5.78278C8.74345 5.78278 10.0786 5.25972 10.8059 4.63636C11.1713 4.32311 11.3684 3.99634 11.4721 3.72985C11.5233 3.59805 11.5506 3.48381 11.5652 3.39669C11.5724 3.35314 11.5765 3.31629 11.5787 3.2873C11.5799 3.2728 11.5806 3.26024 11.5809 3.24976L11.5814 3.2356L11.5814 3.22972L11.5815 3.22708L11.5815 3.22584C11.5815 3.22524 11.5815 3.22464 11.0698 3.22464Z" fill="black"/>
  <path fill-rule="evenodd" clip-rule="evenodd" d="M1.51944 6.80604C1.802 6.80604 2.03107 7.0351 2.03107 7.31767V11.3978C2.03145 11.4013 2.03216 11.4069 2.03343 11.4145C2.03757 11.4393 2.04753 11.485 2.07089 11.545C2.11648 11.6622 2.21785 11.8471 2.4493 12.0455C2.91585 12.4454 3.96826 12.9456 6.29463 12.9456C6.5772 12.9456 6.80626 13.1746 6.80626 13.4572C6.80626 13.7398 6.5772 13.9688 6.29463 13.9688C3.84582 13.9688 2.51063 13.4458 1.78338 12.8224C1.41793 12.5092 1.22085 12.1824 1.11721 11.9159C1.06596 11.7841 1.03862 11.6699 1.0241 11.5827C1.01684 11.5392 1.01277 11.5023 1.01052 11.4733C1.00939 11.4588 1.00871 11.4463 1.00832 11.4358L1.00792 11.4216L1.00784 11.4158L1.00782 11.4131L1.00781 11.4119C1.00781 11.4113 1.00781 11.4107 1.51944 11.4107H1.00781V7.31767C1.00781 7.0351 1.23688 6.80604 1.51944 6.80604Z" fill="black"/>
  <path fill-rule="evenodd" clip-rule="evenodd" d="M8.66887 11.2593C9.09328 9.88966 10.2867 8.85255 11.7452 8.85255C13.1085 8.85255 14.2421 9.76027 14.7291 10.9957C14.8327 11.2586 14.7036 11.5557 14.4407 11.6593C14.1779 11.7629 13.8808 11.6338 13.7771 11.371C13.4199 10.4648 12.6255 9.87581 11.7452 9.87581C10.8049 9.87581 9.95983 10.5503 9.64627 11.5621C9.56263 11.832 9.27603 11.983 9.00613 11.8994C8.73623 11.8158 8.58523 11.5292 8.66887 11.2593Z" fill="black"/>
  <path fill-rule="evenodd" clip-rule="evenodd" d="M14.4807 9.15578C14.7633 9.15578 14.9924 9.38484 14.9924 9.6674V10.9557C14.9924 11.364 14.6614 11.695 14.2531 11.695H13.113C12.8304 11.695 12.6014 11.4659 12.6014 11.1833C12.6014 10.9008 12.8304 10.6717 13.113 10.6717H13.9691V9.6674C13.9691 9.38484 14.1982 9.15578 14.4807 9.15578Z" fill="black"/>
  <path fill-rule="evenodd" clip-rule="evenodd" d="M14.4979 12.2863C14.7678 12.37 14.9188 12.6566 14.8351 12.9265C14.4107 14.2961 13.2173 15.3332 11.7588 15.3332C10.3955 15.3332 9.26193 14.4255 8.77491 13.19C8.67128 12.9272 8.80038 12.6301 9.06325 12.5264C9.32613 12.4228 9.62324 12.5519 9.72687 12.8148C10.0841 13.721 10.8785 14.3099 11.7588 14.3099C12.6991 14.3099 13.5442 13.6355 13.8577 12.6236C13.9414 12.3537 14.228 12.2027 14.4979 12.2863Z" fill="black"/>
  <path fill-rule="evenodd" clip-rule="evenodd" d="M8.51162 13.23C8.51162 12.8218 8.8426 12.4908 9.25089 12.4908H10.391C10.6736 12.4908 10.9026 12.7198 10.9026 13.0024C10.9026 13.285 10.6736 13.514 10.391 13.514H9.53488V14.5183C9.53488 14.8009 9.30581 15.0299 9.02325 15.0299C8.74068 15.0299 8.51162 14.8009 8.51162 14.5183V13.23Z" fill="black"/>
</svg>