<svg width="12" height="12" viewBox="0 0 12 12" fill="none" xmlns="http://www.w3.org/2000/svg">
<g id="Stepper/step/icon/automated">
<g id="Vector">
<path fill-rule="evenodd" clip-rule="evenodd" d="M2.63289 1.41975C2.29106 1.41975 2.01394 1.69686 2.01394 2.0387V6.72898H9.98606V2.0387C9.98606 1.69686 9.70895 1.41975 9.3671 1.41975H2.63289ZM10.0765 7.47172H1.92347L1.26693 9.79281C1.15518 10.1879 1.45198 10.5803 1.86251 10.5803H10.1375C10.548 10.5803 10.8448 10.1879 10.7331 9.79282L10.0765 7.47172ZM1.2712 7.04884V2.0387C1.2712 1.28665 1.88085 0.677002 2.63289 0.677002H9.3671C10.1192 0.677002 10.7288 1.28666 10.7288 2.0387V7.04884L11.4478 9.59065C11.4478 9.59064 11.4478 9.59065 11.4478 9.59065C11.6936 10.4597 11.0407 11.323 10.1375 11.323H1.86251C0.959316 11.323 0.3064 10.4597 0.552223 9.59066L1.2712 7.04884Z" fill="black"/>
<path fill-rule="evenodd" clip-rule="evenodd" d="M5.13347 9.46614C5.13347 9.26103 5.29973 9.09477 5.50484 9.09477H6.49516C6.70027 9.09477 6.86653 9.26103 6.86653 9.46614C6.86653 9.67124 6.70027 9.83751 6.49516 9.83751H5.50484C5.29973 9.83751 5.13347 9.67124 5.13347 9.46614Z" fill="black"/>
<path fill-rule="evenodd" clip-rule="evenodd" d="M6.72773 2.76642C6.87276 2.62139 7.10789 2.62139 7.25292 2.76642L8.24325 3.75675C8.38828 3.90178 8.38828 4.13692 8.24325 4.28195L7.25292 5.27227C7.10789 5.4173 6.87276 5.4173 6.72773 5.27227C6.5827 5.12724 6.5827 4.8921 6.72773 4.74708L7.45545 4.01935L6.72773 3.29162C6.5827 3.14659 6.5827 2.91145 6.72773 2.76642Z" fill="black"/>
<path fill-rule="evenodd" clip-rule="evenodd" d="M5.27227 2.76642C5.4173 2.91145 5.4173 3.14659 5.27227 3.29162L4.54455 4.01935L5.27227 4.74708C5.4173 4.8921 5.4173 5.12724 5.27227 5.27227C5.12724 5.4173 4.89211 5.4173 4.74708 5.27227L3.75675 4.28195C3.61172 4.13692 3.61172 3.90178 3.75675 3.75675L4.74708 2.76642C4.89211 2.62139 5.12724 2.62139 5.27227 2.76642Z" fill="black"/>
</g>
</g>
</svg>
