<svg width="16" height="16" viewBox="0 0 16 16" fill="none" xmlns="http://www.w3.org/2000/svg">
<g id="Stepper/step/icon/completed">
<path id="Vector" fill-rule="evenodd" clip-rule="evenodd" d="M0.666504 7.99984C0.666504 3.94975 3.94975 0.666504 7.99984 0.666504C12.0499 0.666504 15.3332 3.94975 15.3332 7.99984C15.3332 12.0499 12.0499 15.3332 7.99984 15.3332C3.94975 15.3332 0.666504 12.0499 0.666504 7.99984ZM7.99984 1.68976C4.51488 1.68976 1.68976 4.51488 1.68976 7.99984C1.68976 11.4848 4.51488 14.3099 7.99984 14.3099C11.4848 14.3099 14.3099 11.4848 14.3099 7.99984C14.3099 4.51488 11.4848 1.68976 7.99984 1.68976ZM11.7725 5.25046C11.9723 5.45027 11.9723 5.77421 11.7725 5.97402L6.99727 10.7492C6.79747 10.949 6.47352 10.949 6.27372 10.7492L4.22721 8.7027C4.02741 8.5029 4.02741 8.17895 4.22721 7.97915C4.42701 7.77934 4.75096 7.77934 4.95076 7.97915L6.6355 9.66388L11.0489 5.25046C11.2487 5.05066 11.5727 5.05066 11.7725 5.25046Z" fill="#67CA00"/>
</g>
</svg>
