<svg width="16" height="16" viewBox="0 0 16 16" fill="none" xmlns="http://www.w3.org/2000/svg">
<g id="Icon">
<g id="Union">
<path d="M5.41518 4.72428C5.22446 4.53356 4.91524 4.53356 4.72452 4.72428C4.53379 4.915 4.53379 5.22422 4.72452 5.41494L7.30943 7.99986L4.72452 10.5847C4.5338 10.7755 4.53379 11.0847 4.72451 11.2754C4.91523 11.4661 5.22446 11.4661 5.41518 11.2754L8.00009 8.69052L10.585 11.2754C10.7757 11.4661 11.0849 11.4661 11.2756 11.2754C11.4664 11.0847 11.4664 10.7755 11.2756 10.5847L8.69075 7.99986L11.2756 5.41494C11.4664 5.22422 11.4664 4.915 11.2756 4.72428C11.0849 4.53356 10.7757 4.53356 10.585 4.72428L8.00009 7.30919L5.41518 4.72428Z" fill="#FFCF26"/>
<path fill-rule="evenodd" clip-rule="evenodd" d="M8 1C4.13401 1 1 4.13401 1 8C1 11.866 4.134 15 8 15C11.866 15 15 11.866 15 8C15 4.134 11.866 1 8 1ZM1.97674 8C1.97674 4.67345 4.67345 1.97674 8 1.97674C11.3265 1.97674 14.0233 4.67345 14.0233 8C14.0233 11.3265 11.3265 14.0233 8 14.0233C4.67345 14.0233 1.97674 11.3265 1.97674 8Z" fill="#FFCF26"/>
</g>
</g>
</svg>
