<svg width="16" height="16" viewBox="0 0 24 24" fill="none" xmlns="http://www.w3.org/2000/svg">
<path d="M7.93814 6.85244C7.63843 6.55273 7.15252 6.55273 6.85281 6.85244C6.55311 7.15214 6.55311 7.63806 6.85281 7.93776L10.9148 11.9998L6.85281 16.0617C6.55311 16.3614 6.55311 16.8474 6.85281 17.1471C7.15251 17.4468 7.63843 17.4468 7.93814 17.1471L12.0001 13.0851L16.0621 17.1471C16.3618 17.4468 16.8477 17.4468 17.1474 17.1471C17.4471 16.8474 17.4471 16.3614 17.1474 16.0617L13.0855 11.9998L17.1474 7.93776C17.4471 7.63805 17.4471 7.15214 17.1474 6.85243C16.8477 6.55273 16.3618 6.55273 16.0621 6.85244L12.0001 10.9144L7.93814 6.85244Z" fill="#D37000"/>
<path fill-rule="evenodd" clip-rule="evenodd" d="M12 1C5.92487 1 1 5.92487 1 12C1 18.0751 5.92486 23 12 23C18.0751 23 23 18.0751 23 12C23 5.92486 18.0751 1 12 1ZM2.53488 12C2.53488 6.77256 6.77256 2.53488 12 2.53488C17.2274 2.53488 21.4651 6.77256 21.4651 12C21.4651 17.2274 17.2274 21.4651 12 21.4651C6.77256 21.4651 2.53488 17.2274 2.53488 12Z" fill="#D37000"/>
</svg>
