<svg width="12" height="12" viewBox="0 0 12 12" fill="none" xmlns="http://www.w3.org/2000/svg">
<g id="Stepper/step/icon/human">
<g id="Vector">
<path fill-rule="evenodd" clip-rule="evenodd" d="M6.00033 6.47143C3.83065 6.47143 2.07176 8.23031 2.07176 10.4V11.0286C2.07176 11.2889 1.8607 11.5 1.60033 11.5C1.33997 11.5 1.12891 11.2889 1.12891 11.0286V10.4C1.12891 7.70958 3.30992 5.52857 6.00033 5.52857C8.69075 5.52857 10.8718 7.70958 10.8718 10.4V11.0286C10.8718 11.2889 10.6607 11.5 10.4003 11.5C10.14 11.5 9.9289 11.2889 9.9289 11.0286V10.4C9.9289 8.23031 8.17003 6.47143 6.00033 6.47143Z" fill="white"/>
<path fill-rule="evenodd" clip-rule="evenodd" d="M3.01462 3.48571C3.01462 1.83675 4.35137 0.5 6.00033 0.5C7.64927 0.5 8.98605 1.83675 8.98605 3.48571C8.98605 5.13465 7.64927 6.47143 6.00033 6.47143C4.35137 6.47143 3.01462 5.13465 3.01462 3.48571ZM6.00033 1.44286C4.87209 1.44286 3.95748 2.35747 3.95748 3.48571C3.95748 4.61393 4.8721 5.52857 6.00033 5.52857C7.12855 5.52857 8.04319 4.61393 8.04319 3.48571C8.04319 2.35748 7.12855 1.44286 6.00033 1.44286Z" fill="white"/>
</g>
</g>
</svg>
