<svg width="16" height="16" viewBox="0 0 24 24" fill="none" xmlns="http://www.w3.org/2000/svg">
<path fill-rule="evenodd" clip-rule="evenodd" d="M13.104 4.23988C12.6143 3.3883 11.3857 3.3883 10.896 4.23989L10.2336 3.85901L10.896 4.2399L2.70186 18.4906L2.04062 18.1104L2.70185 18.4906C2.2137 19.3396 2.82651 20.3989 3.80586 20.3989H20.1941C21.1735 20.3989 21.7863 19.3396 21.2982 18.4906L13.104 4.23989L13.104 4.23988ZM9.5712 3.47814C10.6485 1.60463 13.3515 1.60461 14.4288 3.47813L22.623 17.7288L22.623 17.7289C23.6969 19.5966 22.3487 21.9271 20.1941 21.9271H3.80586C1.65132 21.9271 0.303067 19.5966 1.37705 17.7288L9.5712 3.47814ZM12 8.17329C12.422 8.17329 12.7641 8.51539 12.7641 8.93739V13.0126C12.7641 13.4346 12.422 13.7767 12 13.7767C11.578 13.7767 11.2359 13.4346 11.2359 13.0126V8.93739C11.2359 8.51539 11.578 8.17329 12 8.17329ZM12.5216 16.5189C12.8351 16.8014 12.8603 17.2845 12.5779 17.5981L12.5677 17.6094C12.2853 17.9229 11.8021 17.9481 11.4886 17.6657C11.175 17.3832 11.1498 16.9001 11.4323 16.5865L11.4425 16.5752C11.7249 16.2617 12.2081 16.2365 12.5216 16.5189Z" fill="rgba(255, 207, 38, 1)"/>
</svg>
