<svg width="24" height="25" viewBox="0 0 24 25" fill="none" xmlns="http://www.w3.org/2000/svg">
<path d="M6 18.5099L6.01 18.4988" stroke="white" stroke-width="1.5" stroke-linecap="round" stroke-linejoin="round"/>
<path d="M6 6.50989L6.01 6.49878" stroke="white" stroke-width="1.5" stroke-linecap="round" stroke-linejoin="round"/>
<path d="M2 9.9V3.1C2 2.76863 2.26863 2.5 2.6 2.5H21.4C21.7314 2.5 22 2.76863 22 3.1V9.9C22 10.2314 21.7314 10.5 21.4 10.5H2.6C2.26863 10.5 2 10.2314 2 9.9Z" stroke="white" stroke-width="1.5"/>
<path d="M2 21.9V15.1C2 14.7686 2.26863 14.5 2.6 14.5H21.4C21.7314 14.5 22 14.7686 22 15.1V21.9C22 22.2314 21.7314 22.5 21.4 22.5H2.6C2.26863 22.5 2 22.2314 2 21.9Z" stroke="white" stroke-width="1.5"/>
</svg>
